<?xml version="1.0" encoding="UTF-8" standalone="no"?>
<!-- Created with Inkscape (http://www.inkscape.org/) -->

<svg
   width="150mm"
   height="250mm"
   viewBox="0 0 150 250"
   version="1.1"
   id="svg1"
   xml:space="preserve"
   inkscape:version="1.3.2 (091e20e, 2023-11-25, custom)"
   sodipodi:docname="cell_irradiation-normal.svg"
   inkscape:export-filename="cell_cancer.png"
   inkscape:export-xdpi="96"
   inkscape:export-ydpi="96"
   xmlns:inkscape="http://www.inkscape.org/namespaces/inkscape"
   xmlns:sodipodi="http://sodipodi.sourceforge.net/DTD/sodipodi-0.dtd"
   xmlns="http://www.w3.org/2000/svg"
   xmlns:svg="http://www.w3.org/2000/svg"><sodipodi:namedview
     id="namedview1"
     pagecolor="#ffffff"
     bordercolor="#000000"
     borderopacity="0.25"
     inkscape:showpageshadow="2"
     inkscape:pageopacity="0.0"
     inkscape:pagecheckerboard="0"
     inkscape:deskcolor="#d1d1d1"
     inkscape:document-units="mm"
     inkscape:zoom="2.3725615"
     inkscape:cx="170.2801"
     inkscape:cy="825.90062"
     inkscape:window-width="1920"
     inkscape:window-height="1009"
     inkscape:window-x="1912"
     inkscape:window-y="-8"
     inkscape:window-maximized="1"
     inkscape:current-layer="layer1" /><defs
     id="defs1"><inkscape:path-effect
       effect="rough_hatches"
       id="path-effect3"
       is_visible="true"
       lpeversion="1.2"
       direction="106.57716,92.26098 , 28.321203,0"
       dist_rdm="75;1"
       growth="100"
       do_bend="true"
       bender="106.57716,97.26098 , 5,0"
       bottom_edge_variation="10.806776;2004554173"
       top_edge_variation="10.806776;1"
       bottom_tgt_variation="0;1"
       top_tgt_variation="0;1"
       scale_bf="1"
       scale_bb="1"
       scale_tf="1"
       scale_tb="1"
       top_smth_variation="0;1"
       bottom_smth_variation="0;1"
       fat_output="true"
       stroke_width_top="2.8"
       stroke_width_bottom="1"
       front_thickness="1"
       back_thickness="0.25" /><inkscape:path-effect
       effect="sketch"
       id="path-effect2"
       is_visible="true"
       lpeversion="1"
       nbiter_approxstrokes="2"
       parallel_offset="5;1"
       strokelength="42.803951"
       strokelength_rdm="0.3;1"
       strokeoverlap="0.3"
       strokeoverlap_rdm="0.3;1"
       ends_tolerance="0.1;1"
       tremble_size="5;1"
       tremble_frequency="1"
       nbtangents="5"
       tgt_places_rdmness="1;1"
       tgtlength="100"
       tgtlength_rdm="0.3;1"
       tgtscale="10" /></defs><g
     inkscape:label="Layer 1"
     inkscape:groupmode="layer"
     id="layer1"
     transform="translate(-4.5663801,-2.9037723)"><path
       id="path1-2"
       style="fill:#fcc5a4;stroke:#d18457;stroke-width:5.44144;stroke-linecap:round;stroke-linejoin:round;stroke-dasharray:none;stroke-opacity:1;paint-order:markers stroke fill"
       d="m 139.34566,189.54872 c 0,32.47679 -19.28243,58.51766 -53.327063,58.51766 -17.022306,0 -39.889031,-11.17015 -51.044265,-21.81166 -11.155234,-10.64151 -15.187234,-18.74702 -15.187233,-34.98541 10e-7,-32.47678 15.554469,-55.93677 49.599104,-55.93677 17.022316,0 31.859587,-5.17548 43.014827,5.46603 11.15525,10.64151 26.94463,32.51175 26.94463,48.75015 z"
       sodipodi:nodetypes="sssssss" /><path
       id="path3-6"
       style="fill:#515684;fill-opacity:1;stroke:#363c72;stroke-width:3.26486;stroke-linecap:round;stroke-linejoin:round;stroke-dasharray:none;stroke-opacity:1;paint-order:markers stroke fill"
       d="m 92.879187,200.96631 c 0,6.56904 0.272561,16.54815 -3.849917,20.85305 -4.122468,4.30488 -8.608044,10.99949 -14.89873,10.99949 -6.290697,0 -20.049783,-2.25943 -24.172265,-6.56433 -4.122481,-4.30489 -9.494665,-15.0904 -9.494665,-21.65945 0,-6.56903 4.162594,-15.74176 8.285075,-20.04665 4.122481,-4.30489 13.446406,-5.35474 19.737101,-5.35474 6.290697,1e-5 8.760273,5.08182 12.882762,9.38671 4.122468,4.3049 11.510639,5.81688 11.510639,12.38592 z"
       sodipodi:nodetypes="sssssssss" /><path
       id="path4-1"
       style="fill:#6f87b2;fill-opacity:1;stroke:#4e5c76;stroke-width:2.72072;stroke-linecap:round;stroke-linejoin:round;stroke-dasharray:none;stroke-opacity:1;paint-order:markers stroke fill"
       d="m 77.963197,152.34374 c 0.286971,1.79858 -0.06845,3.37985 -2.212087,4.93055 -2.143634,1.55071 -7.327215,3.41575 -10.885276,3.98347 -3.55805,0.56771 -6.193666,1.11185 -8.713429,0.30522 -2.519764,-0.80662 -4.006351,-2.67477 -4.293328,-4.47335 -0.286976,-1.79857 -0.208695,-4.2068 1.93494,-5.75751 2.143635,-1.5507 5.4353,-2.53309 8.99335,-3.1008 3.55806,-0.56772 8.76491,-1.37692 11.284678,-0.57029 2.519767,0.80662 3.60417,2.88414 3.891152,4.68271 z"
       sodipodi:nodetypes="sssssssss" /><path
       id="path4-3-3"
       style="fill:#758db9;fill-opacity:1;stroke:#617598;stroke-width:2.72072;stroke-linecap:round;stroke-linejoin:round;stroke-dasharray:none;stroke-opacity:1;paint-order:markers stroke fill"
       d="m 114.43795,165.21218 c 1.79857,-0.28697 2.9272,0.4371 4.4779,2.58073 1.5507,2.14364 3.26007,5.74193 3.82779,9.29999 0.56771,3.55805 1.11184,6.19366 0.30522,8.71342 -0.80662,2.51977 -1.86368,2.99249 -3.66226,3.27946 -1.79857,0.28698 -4.20681,0.2087 -5.75751,-1.93493 -1.55069,-2.14364 -3.14141,-6.65195 -3.70913,-10.21 -0.56772,-3.55806 -0.97136,-5.31775 -0.16473,-7.83752 0.80661,-2.51977 2.88413,-3.60417 4.68272,-3.89115 z"
       sodipodi:nodetypes="sssssssss" /><path
       id="path5-8"
       style="fill:#bee5b9;fill-opacity:1;stroke:#84a781;stroke-width:2.72072;stroke-linecap:round;stroke-linejoin:round;stroke-dasharray:none;stroke-opacity:1;paint-order:markers stroke fill"
       d="m 119.4368,211.45481 c 0,1.78174 0.45726,3.49617 -0.60658,4.6638 -1.06383,1.16762 -3.64876,1.78843 -5.27211,1.78843 -1.62336,0 -3.59996,-0.92496 -4.6638,-2.09259 -1.06383,-1.16762 -1.21489,-2.5779 -1.21489,-4.35964 0,-1.78173 -1.74475,-2.10731 1.1135,-5.06935 1.09684,-1.13667 3.64877,-1.07871 5.27212,-1.07871 1.62336,0 2.89027,0.92496 3.9541,2.09258 1.06384,1.16763 1.41766,2.27375 1.41766,4.05548 z"
       sodipodi:nodetypes="sssssssss" /><path
       id="path5-9-6"
       style="fill:#bee5b9;fill-opacity:1;stroke:#84a781;stroke-width:2.72072;stroke-linecap:round;stroke-linejoin:round;stroke-dasharray:none;stroke-opacity:1;paint-order:markers stroke fill"
       d="m 89.058675,168.35055 c -1.780309,-0.0713 -3.496169,-0.45726 -4.663793,0.60658 -1.167625,1.06383 -1.788428,3.64876 -1.788428,5.27211 0,1.62336 0.638194,4.24518 1.805819,5.30902 1.167624,1.06383 4.298498,1.71674 6.080233,1.71674 1.781734,0 3.960911,-0.47359 4.925972,-2.54734 0.99007,-2.12749 0.433487,-3.78615 0.433487,-5.27212 0,-1.62336 -1.522874,-2.65786 -2.737806,-3.66733 -1.778622,-1.47784 -2.385201,-1.35079 -4.055484,-1.41766 z"
       sodipodi:nodetypes="sssssssss" /><path
       id="path5-9-9-1"
       style="fill:#f3b9b6;fill-opacity:1;stroke:#bb5351;stroke-width:2.17658;stroke-linecap:round;stroke-linejoin:round;stroke-dasharray:none;stroke-opacity:1;paint-order:markers stroke fill"
       d="m 99.483224,224.49969 c -1.020739,-0.0408 -1.717765,0.34721 -2.387226,0.95716 -0.66946,0.60995 -1.31216,1.48264 -1.31216,2.4134 0,0.93075 0.0076,2.68489 0.676905,3.29484 0.66946,0.60996 2.823008,0.73338 3.844577,0.73338 1.02155,0 2.27098,-0.27153 2.8243,-1.46052 0.56766,-1.21979 0.24854,-2.17079 0.24854,-3.02277 0,-0.93076 -0.3713,-1.27297 -1.06788,-1.85175 -1.01977,-0.84732 -1.8694,-1.0254 -2.827056,-1.06374 z"
       sodipodi:nodetypes="sssssssss" /><path
       id="path5-9-9-8-5"
       style="fill:#f2adaa;fill-opacity:1;stroke:#ae4744;stroke-width:2.17658;stroke-linecap:round;stroke-linejoin:round;stroke-dasharray:none;stroke-opacity:1;paint-order:markers stroke fill"
       d="m 38.232004,171.2464 c 1.020738,-0.0408 1.717765,0.34721 2.387226,0.95716 0.66946,0.60996 1.312159,1.48264 1.312159,2.4134 0,0.93075 -0.0076,2.6849 -0.676904,3.29485 -0.66946,0.60995 -2.823008,0.73337 -3.844573,0.73337 -1.021555,0 -2.270986,-0.27152 -2.824304,-1.46051 -0.567662,-1.2198 -0.248543,-2.1708 -0.248543,-3.02278 0,-0.93075 0.371302,-1.27297 1.067883,-1.85175 1.019769,-0.84732 1.869396,-1.0254 2.827056,-1.06374 z"
       sodipodi:nodetypes="sssssssss" /><path
       style="fill:none;fill-opacity:1;stroke:#c7d3ec;stroke-width:2.17658;stroke-linecap:round;stroke-linejoin:round;stroke-dasharray:none;stroke-opacity:1;paint-order:markers stroke fill"
       d="m 115.89933,170.17225 c -1.75278,-0.87427 -3.38379,0.53854 -3.48552,1.84994 -0.11812,1.52245 3.22402,1.28462 3.66681,2.74604 0.43867,1.44781 -2.3004,2.98815 -1.51187,4.2792 0.85269,1.39611 4.11489,-0.79617 4.86336,0.65849 0.7003,1.36103 -2.63126,2.60959 -2.14406,4.06061 0.28955,0.86235 1.50074,2.14593 2.47239,1.15525"
       id="path6-7"
       sodipodi:nodetypes="caaaaac" /><path
       style="fill:none;fill-opacity:1;stroke:#c7d3ec;stroke-width:2.17658;stroke-linecap:round;stroke-linejoin:round;stroke-dasharray:none;stroke-opacity:1;paint-order:markers stroke fill"
       d="m 73.857772,153.65582 c 0.967488,-1.70311 -0.148486,-2.15828 -0.978295,-2.43311 -2.087522,-0.69137 -3.463836,3.83112 -5.628126,3.44177 -1.1598,-0.20864 -1.006108,-2.81045 -2.184129,-2.77986 -1.526982,0.0397 -1.29936,2.80831 -2.640262,3.74543 -2.015944,1.40889 -2.337671,-2.73294 -4.369295,-2.0372 -1.616172,0.55346 -2.116173,3.96377 -1.179298,4.98741"
       id="path6-2-9"
       sodipodi:nodetypes="caaassc" /><path
       style="fill:#a2d899;fill-opacity:1;stroke:none;stroke-width:3.91808;stroke-linecap:round;stroke-linejoin:round;stroke-dasharray:none;stroke-opacity:1;paint-order:markers stroke fill"
       d="m 86.040765,172.57979 c -1.250356,0.21674 -1.478722,1.90961 -0.564212,2.64535 -0.24443,0.76991 -0.814214,1.67894 0.231816,2.19647 0.798314,0.8431 1.556198,-0.5846 2.438408,-0.0999 0.810023,0.41726 1.289643,1.32584 2.160469,1.66507 1.074859,0.28217 1.95746,-0.80319 1.966646,-1.80244 0.370409,-0.71967 0.594368,-1.86292 -0.471654,-2.0856 -0.996262,-0.47779 -0.570785,-1.85385 -0.364097,-2.71939 0.309835,-0.87758 -0.471991,-1.67482 -1.242934,-1.94747 -1.327592,0.25814 0.570154,2.16429 -0.774535,2.13111 -0.592235,-0.16137 -0.771335,-1.73919 -1.512492,-0.77553 0.360289,0.83939 -0.08227,1.38231 -0.931422,0.87736 -0.307866,-0.0458 -0.630032,0.001 -0.935993,-0.085 z"
       id="path7-8" /><path
       style="fill:#a2d899;fill-opacity:1;stroke:none;stroke-width:3.91808;stroke-linecap:round;stroke-linejoin:round;stroke-dasharray:none;stroke-opacity:1;paint-order:markers stroke fill"
       d="m 116.768,215.3861 c -0.40944,1.20114 -2.21377,0.65496 -2.94951,-0.25955 -0.76991,0.24443 -2.21121,0.70015 -2.72874,-0.34588 -0.84311,-0.79832 1.49708,-1.80966 1.01239,-2.69187 -0.41726,-0.81003 -2.23832,-1.03618 -2.57755,-1.90701 -0.28218,-1.07486 0.54972,-3.04737 1.54898,-3.05656 0.71966,-0.37041 3.00351,-0.2902 3.2262,0.77582 0.47779,0.99627 0.40908,1.81278 1.27462,1.60609 0.87757,-0.30984 2.56196,-0.94743 2.8346,-0.17649 -0.25813,1.32759 -1.47992,0.36768 -1.44675,1.71237 0.16137,0.59223 1.13087,1.48104 0.16722,2.22219 -0.83939,-0.36028 -1.28093,-0.27257 -0.77599,0.57658 0.0458,0.30787 0.70716,0.68584 0.60461,0.98669 z"
       id="path7-9-9"
       sodipodi:nodetypes="scccccccccccss" /><g
       id="g6"
       transform="matrix(-1.1306949,0,0,-1.1306949,213.24148,83.003025)"><circle
         style="fill:#ffcc00;stroke:#000000;stroke-width:2;stroke-linecap:round;stroke-linejoin:round;stroke-dasharray:none;paint-order:markers fill stroke"
         id="path1"
         cx="118.22385"
         cy="40.913811"
         r="27.743385" /><g
         id="g5"
         inkscape:transform-center-x="-0.22303602"
         inkscape:transform-center-y="-1.5612521"><path
           style="opacity:1;fill:#000000;stroke:none;stroke-width:2;stroke-linecap:round;stroke-linejoin:round;stroke-dasharray:none;paint-order:markers fill stroke"
           id="path3"
           sodipodi:type="arc"
           sodipodi:cx="118.22385"
           sodipodi:cy="40.913811"
           sodipodi:rx="24.110388"
           sodipodi:ry="24.110388"
           sodipodi:start="0"
           sodipodi:end="1.0471976"
           sodipodi:arc-type="slice"
           d="M 142.33423,40.913811 A 24.110388,24.110388 0 0 1 130.27904,61.79402 L 118.22385,40.913811 Z" /><path
           style="opacity:1;fill:#000000;stroke:none;stroke-width:2;stroke-linecap:round;stroke-linejoin:round;stroke-dasharray:none;paint-order:markers fill stroke"
           id="path4"
           sodipodi:type="arc"
           sodipodi:cx="118.22385"
           sodipodi:cy="40.913811"
           sodipodi:rx="24.110388"
           sodipodi:ry="24.110388"
           sodipodi:start="2.0943951"
           sodipodi:end="3.1415927"
           sodipodi:arc-type="slice"
           d="M 106.16865,61.794019 A 24.110388,24.110388 0 0 1 94.113459,40.913811 h 24.110391 z" /><path
           style="opacity:1;fill:#000000;stroke:none;stroke-width:2;stroke-linecap:round;stroke-linejoin:round;stroke-dasharray:none;paint-order:markers fill stroke"
           id="path5"
           sodipodi:type="arc"
           sodipodi:cx="118.22385"
           sodipodi:cy="40.913811"
           sodipodi:rx="24.110388"
           sodipodi:ry="24.110388"
           sodipodi:start="4.1887902"
           sodipodi:end="5.2359878"
           sodipodi:arc-type="slice"
           d="m 106.16865,20.033602 a 24.110388,24.110388 0 0 1 24.11039,1e-6 l -12.05519,20.880208 z" /></g><circle
         style="opacity:1;fill:#000000;stroke:#ffcc00;stroke-width:5;stroke-linecap:round;stroke-linejoin:round;stroke-dasharray:none;paint-order:markers stroke fill"
         id="path2"
         cx="118.22385"
         cy="40.913811"
         r="5.5335321" /></g><path
       style="fill:#000000;fill-opacity:1;stroke-width:0.159895"
       d="m 72.200039,230.60616 c 0.06027,-0.14414 0.172743,-0.46174 0.249942,-0.70575 l 0.140351,-0.44367 -4.563671,-3.67279 c -4.069603,-3.27517 -4.557424,-3.67629 -4.504142,-3.70739 0.09163,-0.0533 0.628971,-0.2147 0.994022,-0.29861 l 0.328047,-0.0754 3.952125,3.18062 c 2.173663,1.74934 3.959721,3.17118 3.969041,3.15961 0.04046,-0.0502 0.0051,-0.81899 -0.05818,-1.26484 l -0.06902,-0.48631 -2.903405,-2.3366 -2.903406,-2.33663 0.431141,0.0372 c 0.237131,0.0205 0.737682,0.0813 1.112343,0.13494 l 0.681194,0.0977 1.49161,1.20043 c 0.820386,0.66024 1.500416,1.18919 1.511165,1.17545 0.01858,-0.0237 -0.281555,-0.82908 -0.588493,-1.57914 -0.07801,-0.19067 -0.135134,-0.35482 -0.126917,-0.3648 0.0082,-0.009 0.169263,0.009 0.357865,0.0445 0.188603,0.0345 0.636727,0.10682 0.995827,0.16078 0.553901,0.0833 0.658638,0.11173 0.690627,0.18776 0.0742,0.17632 0.351178,1.31762 0.466189,1.92092 0.345418,1.8119 0.250336,3.1925 -0.305695,4.43875 -0.154325,0.34589 -0.22421,0.45224 -0.61316,0.9331 -0.273429,0.33776 -0.515621,0.60303 -0.641998,0.70248 l -0.203018,0.15976 z m -10.652314,-8.35294 c 0.10401,-0.31785 0.739739,-1.15043 1.158769,-1.5176 0.775786,-0.67977 1.811185,-1.12254 3.079167,-1.31676 1.272494,-0.19491 2.425887,-0.18583 5.144889,0.0406 2.088552,0.17388 2.899115,0.188 3.962919,0.0692 1.417935,-0.1585 2.400101,-0.56202 3.295022,-1.35379 0.455143,-0.40267 1.092756,-1.25682 1.336601,-1.7905 0.353255,-0.77315 0.503993,-1.53708 0.48696,-2.4679 -0.0105,-0.57152 -0.104877,-1.31909 -0.237701,-1.88204 -0.04526,-0.19184 -0.0678,-0.35952 -0.05008,-0.37264 0.01771,-0.0131 0.551874,0.0187 1.187001,0.0705 1.342712,0.10978 1.168472,-8.4e-4 1.42097,0.90468 0.673679,2.41661 0.558351,4.35138 -0.359432,6.03022 -0.233445,0.427 -0.908449,1.28469 -1.249015,1.58707 -1.065118,0.94559 -2.272836,1.47864 -3.741763,1.65153 -1.62761,0.19156 -2.873666,0.0985 -5.849671,-0.43665 -3.570899,-0.64214 -4.436997,-0.72697 -5.936201,-0.58136 -1.201258,0.11671 -2.199347,0.47095 -3.240943,1.1504 -0.235729,0.15375 -0.419096,0.25055 -0.407495,0.21508 z m 8.132089,-4.21448 c -0.243123,-0.80567 -0.374304,-1.45271 -0.457997,-2.25911 -0.08937,-0.86096 -0.06315,-1.50488 0.09218,-2.26422 0.125391,-0.61296 0.273017,-1.0349 0.549323,-1.57006 0.313659,-0.60748 0.283248,-0.58666 0.962273,-0.65881 l 0.5906,-0.0628 0.142495,0.45077 0.142501,0.45075 0.616832,-0.086 0.616836,-0.0861 0.178028,0.53501 c 0.09792,0.29425 0.187273,0.54244 0.198562,0.55154 0.0113,0.009 0.0058,-0.16026 -0.01214,-0.37634 -0.01797,-0.21607 -0.04084,-0.54236 -0.05081,-0.72512 -0.01096,-0.19982 -0.04195,-0.33994 -0.07785,-0.3515 -0.03284,-0.0103 -0.255605,-0.0397 -0.495015,-0.0649 l -0.435288,-0.0458 -0.02231,-0.3595 c -0.01227,-0.19774 -0.02602,-0.45415 -0.03057,-0.56981 -0.0046,-0.11563 -0.02398,-0.22292 -0.04315,-0.23836 -0.01918,-0.0155 -0.231525,-0.0522 -0.471856,-0.0815 -0.499249,-0.0609 -0.498524,-0.0582 -0.09485,-0.3746 1.093852,-0.85761 2.474032,-1.33539 4.092763,-1.41681 1.387704,-0.0697 2.549777,0.048 5.251037,0.53268 2.893664,0.51912 3.81071,0.63256 4.950773,0.61249 1.089848,-0.0192 1.96799,-0.18148 2.844339,-0.52567 0.388082,-0.15242 1.164207,-0.57907 1.436081,-0.78944 0.09461,-0.0731 0.192756,-0.13651 0.218124,-0.14068 0.09437,-0.0156 -0.237266,0.52829 -0.584746,0.95886 -1.265392,1.56769 -3.187816,2.16979 -6.493951,2.03328 -0.274619,-0.0119 -1.199988,-0.0761 -2.056385,-0.14388 -2.210495,-0.17498 -3.057605,-0.19729 -3.988336,-0.10499 l -0.796698,0.079 1.372556,1.10568 1.372557,1.10568 0.02416,0.37652 c 0.02438,0.37984 0.02173,0.81085 -0.0065,1.06314 l -0.01536,0.13698 -2.08056,-1.67441 -2.080559,-1.6744 -0.232906,0.12029 c -0.278949,0.14407 -0.770901,0.47585 -0.957546,0.64579 l -0.134554,0.12252 2.491914,2.00547 2.49191,2.00546 -0.04684,0.10169 c -0.02577,0.0559 -0.181809,0.27313 -0.346747,0.48273 l -0.299878,0.38109 -2.542994,-2.03452 -2.542999,-2.03453 -0.110161,0.1557 c -0.169718,0.23989 -0.350622,0.57442 -0.485925,0.89866 l -0.12299,0.29473 2.284965,1.83893 2.284965,1.83891 -0.09528,0.0558 c -0.143413,0.084 -0.693384,0.27715 -1.000693,0.35145 l -0.271956,0.0657 -1.738223,-1.38483 -1.738222,-1.38482 -0.0026,0.42267 c -0.0032,0.51806 0.07487,1.2285 0.206775,1.88191 0.05463,0.27058 0.08688,0.50639 0.07168,0.52402 -0.01522,0.0176 -0.213654,0.0177 -0.441002,7e-5 -1.546037,-0.11966 -1.86888,-0.14845 -1.894358,-0.16896 -0.01577,-0.0127 -0.09809,-0.25305 -0.182911,-0.53413 z m -5.069011,-6.93232 -0.107194,-0.99108 1.972021,0.25982 c 1.084608,0.14289 2.047785,0.26971 2.140377,0.28183 0.09259,0.0121 0.148594,0.029 0.124381,0.0378 -0.02422,0.008 -0.92547,0.33264 -2.002827,0.72003 -1.077363,0.38739 -1.972504,0.69948 -1.989196,0.69353 -0.0167,-0.006 -0.0786,-0.45679 -0.13756,-1.00188 z m 0.143104,-3.63998 c -0.0043,-0.0397 1.507358,-1.91963 1.54724,-1.92387 0.01635,-0.001 0.486554,0.59062 1.044852,1.31643 0.558291,0.7258 1.281387,1.66413 1.606873,2.08517 0.325492,0.42102 0.58587,0.77296 0.578622,0.78206 -0.0073,0.009 -0.255526,-0.0997 -0.551718,-0.24177 -0.54685,-0.26229 -2.526785,-1.19513 -3.621357,-1.70618 -0.330567,-0.15435 -0.602548,-0.29463 -0.604397,-0.31175 z m 4.820367,-0.69428 c -0.391419,-1.09091 -0.706431,-1.99767 -0.700026,-2.01499 0.02201,-0.0596 1.971287,-0.24406 1.974665,-0.18689 0.0018,0.0304 -0.113699,0.93863 -0.256638,2.01828 -0.142945,1.07965 -0.265262,2.01369 -0.271811,2.07561 -0.0065,0.0619 -0.01699,0.10785 -0.02321,0.10203 -0.006,-0.006 -0.331557,-0.90315 -0.722975,-1.99404 z m 8.786177,0.25 c -0.550605,-2.18782 -0.62459,-3.60848 -0.256234,-4.92009 0.162788,-0.57963 0.368966,-0.99555 0.747289,-1.50747 0.331765,-0.44891 0.858222,-1.00069 0.944524,-0.98992 0.01925,0.002 -0.01843,0.12563 -0.08373,0.27383 -0.0653,0.14822 -0.166669,0.42642 -0.225256,0.6182 l -0.106521,0.34871 4.589409,3.72069 4.589405,3.72069 -0.375392,0.13232 c -0.206467,0.0727 -0.519204,0.1632 -0.694969,0.20096 l -0.319582,0.0686 -3.976348,-3.1871 c -2.187141,-1.75272 -3.988493,-3.19657 -4.003253,-3.20824 -0.05347,-0.0419 -0.04329,0.65497 0.01705,1.16792 l 0.06169,0.52453 2.980177,2.41228 2.980173,2.41227 -0.580793,-0.0536 c -0.319438,-0.0294 -0.813462,-0.0892 -1.097829,-0.13272 l -0.51703,-0.0791 -1.598794,-1.28989 c -0.879676,-0.70902 -1.607484,-1.27886 -1.618024,-1.2655 -0.01923,0.0244 0.419192,1.18931 0.670118,1.78042 0.0746,0.17573 0.129865,0.32709 0.122809,0.33636 -0.0071,0.009 -0.147841,-0.0103 -0.312868,-0.0442 -0.165005,-0.0335 -0.614841,-0.10841 -0.999599,-0.16638 -0.384757,-0.058 -0.712075,-0.11634 -0.727379,-0.12977 -0.01532,-0.0134 -0.109328,-0.34818 -0.208934,-0.74398 z"
       id="path7" /><path
       style="fill:#000000;fill-opacity:1;stroke-width:0.133097"
       d="m 43.575584,198.35349 c 0.07164,0.10852 0.238931,0.33365 0.371741,0.50021 l 0.241477,0.30288 4.655827,-1.44954 c 4.151774,-1.29263 4.655338,-1.4436 4.652106,-1.39236 -0.0056,0.088 -0.143482,0.53429 -0.254887,0.82549 l -0.100087,0.26172 -4.03193,1.2553 c -2.217555,0.69042 -4.028924,1.26495 -4.025249,1.27675 0.01593,0.0513 0.563595,0.38358 0.901089,0.54671 l 0.368091,0.17797 2.962014,-0.92219 2.962037,-0.9222 -0.225774,0.28069 c -0.124242,0.15434 -0.398457,0.47209 -0.609407,0.70609 l -0.383601,0.42542 -1.521729,0.47378 c -0.836948,0.26057 -1.518045,0.48508 -1.513536,0.49887 0.0078,0.0238 0.703608,0.19012 1.364371,0.32609 0.167861,0.0352 0.307916,0.0712 0.310994,0.0816 0.0025,0.0105 -0.08486,0.11273 -0.196817,0.22666 -0.111323,0.11434 -0.369275,0.39045 -0.573202,0.61357 -0.314598,0.34414 -0.382836,0.40333 -0.450221,0.39016 -0.156159,-0.0313 -1.073396,-0.3691 -1.543805,-0.56922 -1.412436,-0.60206 -2.322407,-1.30842 -2.925641,-2.27096 -0.167423,-0.26715 -0.208492,-0.36478 -0.360314,-0.85672 -0.106544,-0.34568 -0.177473,-0.63614 -0.187562,-0.76964 l -0.0162,-0.21443 z m 10.715426,-3.48551 c 0.171391,0.21938 0.45177,1.04504 0.511071,1.50501 0.109779,0.85155 -0.06468,1.77254 -0.518847,2.73893 -0.455768,0.96983 -0.99725,1.76269 -2.415441,3.53662 -1.089305,1.36266 -1.475194,1.91627 -1.886694,2.70657 -0.548422,1.05343 -0.725314,1.91942 -0.593418,2.90529 0.06708,0.50139 0.361489,1.33836 0.617146,1.75452 0.370378,0.60289 0.828368,1.06154 1.479533,1.48169 0.399835,0.25794 0.960251,0.53962 1.41092,0.70906 0.153638,0.0575 0.27993,0.11991 0.280767,0.13828 8.95e-4,0.0183 -0.269022,0.37271 -0.599543,0.78758 -0.698923,0.87697 -0.541624,0.80787 -1.284566,0.56218 -1.982641,-0.65583 -3.266202,-1.63329 -4.000519,-3.04658 -0.186766,-0.35946 -0.466272,-1.22392 -0.517201,-1.59959 -0.159231,-1.17485 0.03281,-2.25682 0.594947,-3.35219 0.62288,-1.21368 1.265399,-2.03161 3.016155,-3.83989 2.100766,-2.16978 2.561281,-2.72896 3.156327,-3.83258 0.476759,-0.88431 0.695094,-1.73844 0.70888,-2.77354 0.0031,-0.23424 0.02132,-0.4059 0.04044,-0.3814 z m -0.861006,7.57548 c 0.669605,0.2058 1.177604,0.41546 1.773726,0.73178 0.636456,0.33776 1.069286,0.65466 1.521962,1.11437 0.365426,0.37106 0.588508,0.66889 0.830128,1.10817 0.274263,0.49864 0.273991,0.46797 0.0088,0.9707 l -0.23068,0.43727 -0.377623,-0.11079 -0.377631,-0.11068 -0.226756,0.46619 -0.226762,0.46622 -0.452325,-0.12529 c -0.248774,-0.0689 -0.461754,-0.12236 -0.473284,-0.11875 -0.01122,0.002 0.108051,0.0784 0.2657,0.16627 0.157664,0.0878 0.393773,0.22341 0.524684,0.30135 0.143187,0.0851 0.254391,0.12875 0.279056,0.10924 0.02234,-0.018 0.14605,-0.15821 0.274575,-0.31196 l 0.233611,-0.27959 0.258804,0.1514 c 0.142337,0.0833 0.325914,0.19277 0.407964,0.24328 0.08201,0.0505 0.165177,0.0869 0.184751,0.0808 0.01977,-0.007 0.143475,-0.13579 0.275262,-0.28826 0.27378,-0.31674 0.271553,-0.31752 0.302782,0.10861 0.08509,1.15387 -0.225169,2.32938 -0.920029,3.48581 -0.595749,0.99137 -1.21637,1.73978 -2.804745,3.38166 -1.701482,1.75884 -2.205415,2.33994 -2.720564,3.13713 -0.49247,0.76205 -0.787788,1.44422 -0.956581,2.20956 -0.07475,0.33892 -0.140038,1.07325 -0.120822,1.35875 0.0066,0.0993 0.0049,0.19655 -0.004,0.21603 -0.03301,0.0725 -0.254985,-0.40913 -0.391298,-0.84905 -0.496211,-1.60192 -0.02024,-3.20984 1.608224,-5.43127 0.135636,-0.18428 0.609432,-0.79397 1.053653,-1.35435 1.146657,-1.44642 1.555153,-2.02147 1.92325,-2.70749 l 0.315117,-0.58724 -1.401003,0.43548 -1.401009,0.43546 -0.271425,-0.15798 c -0.273812,-0.1594 -0.570441,-0.36124 -0.731687,-0.49782 l -0.08753,-0.0742 2.122572,-0.66084 2.122569,-0.66085 0.02501,-0.21675 c 0.02987,-0.25963 0.02887,-0.75356 -0.002,-0.96141 l -0.02223,-0.14983 -2.542238,0.79149 -2.542229,0.7915 -0.04854,-0.0796 c -0.0267,-0.0437 -0.104391,-0.25238 -0.1727,-0.46363 l -0.124214,-0.38407 2.586021,-0.81331 2.586022,-0.81332 -0.05649,-0.14836 c -0.08702,-0.22862 -0.23426,-0.50887 -0.395553,-0.75282 l -0.146606,-0.22176 -2.331109,0.72575 -2.331104,0.72577 0.0056,-0.0918 c 0.0085,-0.13808 0.130219,-0.60777 0.221471,-0.85462 l 0.08074,-0.21848 1.763594,-0.55863 1.763594,-0.55864 -0.290871,-0.19796 c -0.35654,-0.24259 -0.883726,-0.51831 -1.396486,-0.73036 -0.212343,-0.0878 -0.390274,-0.17489 -0.395386,-0.19365 -0.0051,-0.0187 0.08691,-0.15585 0.204589,-0.30479 0.800095,-1.0129 0.969799,-1.22265 0.995795,-1.23074 0.01615,-0.005 0.220377,0.0497 0.454009,0.12141 z m 7.142881,-0.28626 0.734651,0.38581 -1.094622,1.24224 c -0.602038,0.68324 -1.136622,1.29003 -1.187961,1.34838 -0.05132,0.0584 -0.08899,0.0892 -0.08383,0.0685 0.0057,-0.0205 0.199562,-0.79391 0.43178,-1.7182 0.232205,-0.92428 0.431902,-1.68772 0.443755,-1.69649 0.01169,-0.009 0.352147,0.15762 0.756201,0.36984 z m 2.449081,1.78795 c 0.0296,0.0149 0.627149,1.93244 0.611566,1.96197 -0.0068,0.0118 -0.633934,0.0622 -1.394586,0.11121 -0.760641,0.049 -1.744626,0.11333 -2.186627,0.14289 -0.442009,0.0296 -0.806032,0.0462 -0.808956,0.037 -0.0029,-0.01 0.187499,-0.1303 0.423087,-0.26908 0.435019,-0.25621 1.99842,-1.19162 2.8595,-1.71091 0.260056,-0.15682 0.483213,-0.27968 0.495902,-0.27302 z m -1.756981,3.65337 c 0.935523,0.23571 1.708328,0.43878 1.71733,0.45124 0.03097,0.0428 -0.746067,1.47555 -0.787146,1.45135 -0.02191,-0.0127 -0.5959,-0.5141 -1.275684,-1.11389 -0.67979,-0.59977 -1.268515,-1.11772 -1.308269,-1.15097 -0.03974,-0.0332 -0.06666,-0.0618 -0.05974,-0.0633 0.0068,-0.002 0.777982,0.18999 1.713502,0.42566 z m -4.249797,5.95586 c 1.767455,0.63466 2.783543,1.24282 3.519031,2.10598 0.32503,0.38147 0.516785,0.71694 0.695008,1.21593 0.156278,0.43758 0.293309,1.05745 0.24582,1.11208 -0.01059,0.0123 -0.07826,-0.0711 -0.150387,-0.18492 -0.07212,-0.11394 -0.217342,-0.31304 -0.32269,-0.44252 l -0.191553,-0.23543 -4.700868,1.4451 -4.700867,1.4451 0.08275,-0.32081 c 0.04557,-0.17641 0.128147,-0.43454 0.183607,-0.57352 l 0.100896,-0.25268 4.04765,-1.26905 c 2.226144,-0.69816 4.05982,-1.27302 4.074737,-1.2778 0.05378,-0.0177 -0.432549,-0.33385 -0.815032,-0.53017 l -0.391121,-0.20074 -3.049939,0.94016 -3.049928,0.94015 0.30657,-0.37648 c 0.168576,-0.20708 0.43914,-0.52075 0.601142,-0.69708 l 0.294568,-0.3206 1.63329,-0.50635 c 0.898177,-0.27891 1.629702,-0.51747 1.625358,-0.53095 -0.008,-0.0246 -1.016422,-0.26217 -1.541348,-0.36305 -0.156176,-0.0293 -0.286292,-0.0621 -0.289444,-0.0712 -0.0029,-0.01 0.0757,-0.0974 0.175701,-0.19572 0.09975,-0.0985 0.360224,-0.37458 0.578819,-0.61358 0.218601,-0.239 0.410826,-0.43812 0.427208,-0.44245 0.01634,-0.004 0.291364,0.0859 0.611056,0.20095 z"
       id="path8" /><path
       style="opacity:1;fill:#ffe680;stroke:#aa8800;stroke-width:2.5;stroke-linecap:round;stroke-linejoin:round;stroke-dasharray:none;paint-order:markers stroke fill"
       d="M 93.505126,73.641301 69.402627,126.68818 81.499605,122.4507 64.528662,164.80793 75.226141,161.27072 61.192663,198.5494 91.668954,148.40344 78.929816,151.5027 103.83307,106.7888 92.319493,110.1099 112.93865,70.465469 Z"
       id="path6"
       sodipodi:nodetypes="cccccccccccc" /></g></svg>
