<?xml version="1.0" encoding="UTF-8" standalone="no"?>
<!-- Created with Inkscape (http://www.inkscape.org/) -->

<svg
   width="290mm"
   height="130mm"
   viewBox="0 0 289.99999 130"
   version="1.1"
   id="svg1"
   xml:space="preserve"
   inkscape:version="1.3.2 (091e20e, 2023-11-25, custom)"
   sodipodi:docname="constraint_penalization3.svg"
   inkscape:export-filename="constraint_penalization.png"
   inkscape:export-xdpi="200"
   inkscape:export-ydpi="200"
   xmlns:inkscape="http://www.inkscape.org/namespaces/inkscape"
   xmlns:sodipodi="http://sodipodi.sourceforge.net/DTD/sodipodi-0.dtd"
   xmlns="http://www.w3.org/2000/svg"
   xmlns:svg="http://www.w3.org/2000/svg"><sodipodi:namedview
     id="namedview1"
     pagecolor="#ffffff"
     bordercolor="#000000"
     borderopacity="0.25"
     inkscape:showpageshadow="2"
     inkscape:pageopacity="0.0"
     inkscape:pagecheckerboard="0"
     inkscape:deskcolor="#d1d1d1"
     inkscape:document-units="mm"
     inkscape:zoom="0.72426347"
     inkscape:cx="542.62022"
     inkscape:cy="178.80234"
     inkscape:window-width="1920"
     inkscape:window-height="1009"
     inkscape:window-x="3832"
     inkscape:window-y="-8"
     inkscape:window-maximized="1"
     inkscape:current-layer="layer1" /><defs
     id="defs1"><clipPath
       clipPathUnits="userSpaceOnUse"
       id="clipEmfPath1"><path
         d="M 0,0 H 54.765354 V 24.948661 H 0 Z"
         id="path1-9" /></clipPath><pattern
       id="EMFhbasepattern"
       patternUnits="userSpaceOnUse"
       width="6"
       height="6"
       x="0"
       y="0" /></defs><g
     inkscape:label="Layer 1"
     inkscape:groupmode="layer"
     id="layer1"
     transform="translate(-7.2622342,-29.22909)"><g
       id="text11-8"
       style="font-weight:700;font-size:9.87778px;font-family:Aptos, Aptos_MSFontService, sans-serif;text-align:center;text-anchor:middle;fill:#b22424;stroke-width:0.264583"
       aria-label="Penalize voxels both&#10;within 80% lower dose&#10;and with dose ≥ 25 Gy"><path
         style="font-family:Arial;-inkscape-font-specification:'Arial Bold'"
         d="m 161.23764,128.47385 v -7.07072 h 2.29099 q 1.30225,0 1.69775,0.10611 0.60771,0.15916 1.01768,0.69453 0.40996,0.53055 0.40996,1.37459 0,0.65113 -0.23633,1.09486 -0.23633,0.44372 -0.60289,0.69935 -0.36174,0.2508 -0.73794,0.3328 -0.51125,0.10128 -1.4807,0.10128 h -0.93087 v 2.6672 z m 1.42765,-5.87458 v 2.00642 h 0.78135 q 0.84405,0 1.12861,-0.11093 0.28457,-0.11093 0.44373,-0.34727 0.16399,-0.23633 0.16399,-0.54983 0,-0.38585 -0.22669,-0.63666 -0.22669,-0.2508 -0.57395,-0.3135 -0.25563,-0.0482 -1.02733,-0.0482 z m 8.11734,4.24436 1.35048,0.22668 q -0.26045,0.74277 -0.82476,1.13344 -0.55948,0.38585 -1.40353,0.38585 -1.33601,0 -1.97749,-0.87299 -0.50643,-0.69935 -0.50643,-1.76526 0,-1.27331 0.6656,-1.99196 0.66559,-0.72347 1.68327,-0.72347 1.14308,0 1.80385,0.75723 0.66077,0.75241 0.63183,2.31029 h -3.39548 q 0.0145,0.60289 0.32797,0.94051 0.3135,0.33279 0.78135,0.33279 0.31832,0 0.53536,-0.17363 0.21705,-0.17363 0.32798,-0.55948 z m 0.0772,-1.36977 q -0.0145,-0.58843 -0.30386,-0.89228 -0.28939,-0.30868 -0.70418,-0.30868 -0.44373,0 -0.73311,0.32315 -0.28939,0.32315 -0.28457,0.87781 z m 7.1093,2.99999 h -1.3553 v -2.61414 q 0,-0.82958 -0.0868,-1.07074 -0.0868,-0.24598 -0.28456,-0.38103 -0.19293,-0.13504 -0.46785,-0.13504 -0.35209,0 -0.63183,0.19292 -0.27974,0.19293 -0.38585,0.51125 -0.10128,0.31833 -0.10128,1.17685 v 2.31993 h -1.35531 v -5.12217 h 1.25884 v 0.75241 q 0.67042,-0.86817 1.6881,-0.86817 0.44855,0 0.81993,0.16399 0.37138,0.15916 0.55949,0.40997 0.19292,0.2508 0.26527,0.56913 0.0772,0.31832 0.0772,0.91157 z m 2.38745,-3.55948 -1.2299,-0.22186 q 0.2074,-0.74276 0.71382,-1.09968 0.50643,-0.35691 1.50482,-0.35691 0.90675,0 1.35048,0.21704 0.44373,0.21222 0.62218,0.54502 0.18328,0.32797 0.18328,1.2106 l -0.0145,1.58199 q 0,0.67524 0.0627,0.99839 0.0675,0.31833 0.24598,0.68489 h -1.34083 q -0.0531,-0.13505 -0.13022,-0.40032 -0.0338,-0.12058 -0.0482,-0.15917 -0.34727,0.33762 -0.74277,0.50643 -0.39549,0.16881 -0.84404,0.16881 -0.791,0 -1.2492,-0.42926 -0.45337,-0.42926 -0.45337,-1.0852 0,-0.43408 0.20739,-0.7717 0.2074,-0.34245 0.57878,-0.5209 0.3762,-0.18328 1.08038,-0.31833 0.95016,-0.17846 1.31672,-0.3328 v -0.13504 q 0,-0.39068 -0.19293,-0.55466 -0.19292,-0.16881 -0.72829,-0.16881 -0.36174,0 -0.56431,0.14469 -0.20257,0.13987 -0.32797,0.49678 z m 1.8135,1.09968 q -0.26045,0.0868 -0.82476,0.20739 -0.5643,0.12058 -0.73794,0.23634 -0.26527,0.1881 -0.26527,0.47749 0,0.28456 0.21222,0.49196 0.21222,0.20739 0.54019,0.20739 0.36656,0 0.69935,-0.24116 0.24598,-0.18327 0.32315,-0.44855 0.0531,-0.17363 0.0531,-0.66077 z m 2.66719,2.4598 v -7.07072 h 1.3553 v 7.07072 z m 2.74436,-5.8167 v -1.25402 h 1.35531 v 1.25402 z m 0,5.8167 v -5.12217 h 1.35531 v 5.12217 z m 2.19936,0 v -1.05627 l 1.9196,-2.20417 q 0.47267,-0.54019 0.69936,-0.76688 -0.23634,0.0145 -0.62219,0.0193 l -1.80867,0.01 v -1.12379 h 4.23471 v 0.9598 l -1.95819,2.25723 -0.68971,0.74758 q 0.56431,-0.0338 0.69935,-0.0338 h 2.09807 v 1.19132 z m 8.45013,-1.63022 1.35047,0.22668 q -0.26044,0.74277 -0.82475,1.13344 -0.55949,0.38585 -1.40353,0.38585 -1.33601,0 -1.97749,-0.87299 -0.50643,-0.69935 -0.50643,-1.76526 0,-1.27331 0.66559,-1.99196 0.6656,-0.72347 1.68328,-0.72347 1.14308,0 1.80385,0.75723 0.66077,0.75241 0.63183,2.31029 h -3.39549 q 0.0145,0.60289 0.32798,0.94051 0.3135,0.33279 0.78135,0.33279 0.31832,0 0.53536,-0.17363 0.21704,-0.17363 0.32798,-0.55948 z m 0.0772,-1.36977 q -0.0145,-0.58843 -0.30386,-0.89228 -0.28939,-0.30868 -0.70418,-0.30868 -0.44373,0 -0.73311,0.32315 -0.28939,0.32315 -0.28457,0.87781 z m 6.60287,2.99999 -2.0643,-5.12217 h 1.42282 l 0.96463,2.61414 0.27974,0.87298 q 0.11093,-0.33279 0.13987,-0.4389 0.0675,-0.21704 0.1447,-0.43408 l 0.97427,-2.61414 h 1.39389 l -2.03537,5.12217 z m 3.77169,-2.63344 q 0,-0.67523 0.3328,-1.30706 0.33279,-0.63184 0.94051,-0.96463 0.61254,-0.3328 1.36494,-0.3328 1.16238,0 1.90514,0.75723 0.74277,0.75241 0.74277,1.90514 0,1.16238 -0.75241,1.92926 -0.74759,0.76205 -1.88585,0.76205 -0.70418,0 -1.34565,-0.31833 -0.63666,-0.31832 -0.96945,-0.93086 -0.3328,-0.61736 -0.3328,-1.5 z m 1.38906,0.0724 q 0,0.76206 0.36174,1.1672 0.36173,0.40514 0.89228,0.40514 0.53054,0 0.88745,-0.40514 0.36174,-0.40514 0.36174,-1.17684 0,-0.75241 -0.36174,-1.15756 -0.35691,-0.40514 -0.88745,-0.40514 -0.53055,0 -0.89228,0.40514 -0.36174,0.40515 -0.36174,1.1672 z m 4.30706,2.56109 1.84726,-2.63826 -1.77009,-2.48391 h 1.65434 l 0.90675,1.40835 0.95498,-1.40835 h 1.59163 l -1.73633,2.42603 1.89549,2.69614 h -1.66398 l -1.04179,-1.58681 -1.05145,1.58681 z m 9.1109,-1.63022 1.35048,0.22668 q -0.26045,0.74277 -0.82476,1.13344 -0.55948,0.38585 -1.40353,0.38585 -1.33601,0 -1.97748,-0.87299 -0.50643,-0.69935 -0.50643,-1.76526 0,-1.27331 0.66559,-1.99196 0.66559,-0.72347 1.68327,-0.72347 1.14309,0 1.80386,0.75723 0.66077,0.75241 0.63183,2.31029 h -3.39549 q 0.0145,0.60289 0.32797,0.94051 0.31351,0.33279 0.78135,0.33279 0.31833,0 0.53537,-0.17363 0.21704,-0.17363 0.32797,-0.55948 z m 0.0772,-1.36977 q -0.0145,-0.58843 -0.30386,-0.89228 -0.28938,-0.30868 -0.70417,-0.30868 -0.44373,0 -0.73312,0.32315 -0.28939,0.32315 -0.28456,0.87781 z m 2.45016,2.99999 v -7.07072 h 1.3553 v 7.07072 z m 2.26687,-1.46141 1.36012,-0.2074 q 0.0868,0.3955 0.35209,0.60289 0.26527,0.20258 0.74276,0.20258 0.52573,0 0.791,-0.19293 0.17845,-0.13505 0.17845,-0.36174 0,-0.15434 -0.0965,-0.25562 -0.10128,-0.0965 -0.45337,-0.17846 -1.63987,-0.36173 -2.07877,-0.66077 -0.60772,-0.41479 -0.60772,-1.15273 0,-0.66559 0.52572,-1.11896 0.52572,-0.45338 1.63022,-0.45338 1.05145,0 1.5627,0.34244 0.51125,0.34245 0.70418,1.01286 l -1.27814,0.23634 q -0.082,-0.29904 -0.3135,-0.4582 -0.22669,-0.15916 -0.65112,-0.15916 -0.53537,0 -0.76688,0.14951 -0.15434,0.10611 -0.15434,0.27492 0,0.1447 0.13505,0.24598 0.18328,0.13505 1.26366,0.38103 1.0852,0.24598 1.51446,0.60289 0.42444,0.36174 0.42444,1.00804 0,0.70417 -0.58842,1.2106 -0.58843,0.50643 -1.74116,0.50643 -1.04662,0 -1.65915,-0.42443 -0.60772,-0.42444 -0.79582,-1.15273 z m 8.65753,1.46141 v -7.07072 h 1.3553 v 2.54662 q 0.627,-0.71383 1.48552,-0.71383 0.93569,0 1.54823,0.68006 0.61254,0.67524 0.61254,1.94373 0,1.31189 -0.62701,2.02089 -0.62219,0.709 -1.51447,0.709 -0.4389,0 -0.86816,-0.21704 -0.42444,-0.22186 -0.73312,-0.65112 v 0.75241 z m 1.34565,-2.67202 q 0,0.79582 0.2508,1.17684 0.35209,0.5402 0.93569,0.5402 0.44855,0 0.76206,-0.38103 0.31832,-0.38585 0.31832,-1.21061 0,-0.87781 -0.31832,-1.26366 -0.31833,-0.39067 -0.81511,-0.39067 -0.48714,0 -0.81029,0.38102 -0.32315,0.37621 -0.32315,1.14791 z m 4.43246,0.0386 q 0,-0.67523 0.3328,-1.30706 0.3328,-0.63184 0.94051,-0.96463 0.61254,-0.3328 1.36495,-0.3328 1.16237,0 1.90514,0.75723 0.74276,0.75241 0.74276,1.90514 0,1.16238 -0.75241,1.92926 -0.74758,0.76205 -1.88584,0.76205 -0.70418,0 -1.34566,-0.31833 -0.63665,-0.31832 -0.96945,-0.93086 -0.3328,-0.61736 -0.3328,-1.5 z m 1.38907,0.0724 q 0,0.76206 0.36173,1.1672 0.36174,0.40514 0.89228,0.40514 0.53055,0 0.88746,-0.40514 0.36173,-0.40514 0.36173,-1.17684 0,-0.75241 -0.36173,-1.15756 -0.35691,-0.40514 -0.88746,-0.40514 -0.53054,0 -0.89228,0.40514 -0.36173,0.40515 -0.36173,1.1672 z m 7.30704,-2.56108 v 1.08038 h -0.92604 v 2.0643 q 0,0.62701 0.0241,0.73312 0.0289,0.10128 0.12057,0.16881 0.0965,0.0675 0.23151,0.0675 0.18811,0 0.54502,-0.13022 l 0.11575,1.05144 q -0.47266,0.20257 -1.07073,0.20257 -0.36656,0 -0.66077,-0.12058 -0.29421,-0.1254 -0.43408,-0.31832 -0.13505,-0.19775 -0.18811,-0.53055 -0.0434,-0.23633 -0.0434,-0.95498 v -2.23311 h -0.62219 v -1.08038 h 0.62219 V 122.334 l 1.36012,-0.791 v 1.80868 z m 2.29099,-1.94855 v 2.59967 q 0.65595,-0.76688 1.56752,-0.76688 0.46784,0 0.84405,0.17363 0.3762,0.17364 0.5643,0.44373 0.19293,0.2701 0.26045,0.59807 0.0723,0.32798 0.0723,1.01768 v 3.00482 h -1.3553 v -2.70578 q 0,-0.80547 -0.0772,-1.02251 -0.0772,-0.21704 -0.27492,-0.34244 -0.19293,-0.13022 -0.48714,-0.13022 -0.33762,0 -0.60289,0.16398 -0.26527,0.16399 -0.39067,0.49679 -0.12058,0.32797 -0.12058,0.97427 v 2.56591 h -1.3553 v -7.07072 z"
         id="path1" /><path
         style="font-family:Arial;-inkscape-font-specification:'Arial Bold'"
         d="m 158.07126,140.93542 -1.62058,-5.12217 h 1.31672 l 0.9598,3.3569 0.88264,-3.3569 h 1.30707 l 0.85369,3.3569 0.9791,-3.3569 h 1.336 l -1.64468,5.12217 h -1.30225 l -0.88263,-3.29421 -0.86817,3.29421 z m 6.72827,-5.8167 v -1.25402 h 1.3553 v 1.25402 z m 0,5.8167 v -5.12217 h 1.3553 v 5.12217 z m 5.09323,-5.12217 v 1.08038 h -0.92604 v 2.0643 q 0,0.62701 0.0241,0.73312 0.0289,0.10128 0.12058,0.16881 0.0965,0.0675 0.23151,0.0675 0.1881,0 0.54502,-0.13022 l 0.11575,1.05144 q -0.47267,0.20257 -1.07073,0.20257 -0.36656,0 -0.66077,-0.12058 -0.29421,-0.1254 -0.43409,-0.31832 -0.13504,-0.19775 -0.1881,-0.53055 -0.0434,-0.23633 -0.0434,-0.95498 v -2.23311 h -0.62218 v -1.08038 h 0.62218 v -1.01769 l 1.36013,-0.79099 v 1.80868 z m 2.29099,-1.94855 v 2.59967 q 0.65594,-0.76688 1.56752,-0.76688 0.46784,0 0.84405,0.17363 0.3762,0.17364 0.5643,0.44373 0.19293,0.2701 0.26045,0.59807 0.0724,0.32797 0.0724,1.01768 v 3.00482 h -1.3553 v -2.70578 q 0,-0.80547 -0.0772,-1.02251 -0.0772,-0.21704 -0.27492,-0.34244 -0.19293,-0.13022 -0.48714,-0.13022 -0.33762,0 -0.60289,0.16398 -0.26527,0.16399 -0.39067,0.49678 -0.12058,0.32798 -0.12058,0.97428 v 2.56591 h -1.3553 v -7.07072 z m 4.68326,1.25402 v -1.25402 h 1.3553 v 1.25402 z m 0,5.8167 v -5.12217 h 1.3553 v 5.12217 z m 7.40351,0 h -1.3553 v -2.61414 q 0,-0.82958 -0.0868,-1.07074 -0.0868,-0.24598 -0.28457,-0.38103 -0.19292,-0.13504 -0.46784,-0.13504 -0.35209,0 -0.63183,0.19292 -0.27975,0.19293 -0.38585,0.51125 -0.10129,0.31833 -0.10129,1.17685 v 2.31993 h -1.3553 v -5.12217 h 1.25884 v 0.75241 q 0.67041,-0.86817 1.68809,-0.86817 0.44856,0 0.81994,0.16399 0.37138,0.15916 0.55948,0.40996 0.19293,0.25081 0.26527,0.56913 0.0772,0.31833 0.0772,0.91158 z m 4.99195,-3.8151 q -0.52572,-0.22187 -0.76688,-0.60772 -0.23633,-0.39067 -0.23633,-0.85369 0,-0.791 0.54983,-1.30707 0.55466,-0.51608 1.57235,-0.51608 1.00803,0 1.56269,0.51608 0.55949,0.51607 0.55949,1.30707 0,0.49196 -0.25563,0.87781 -0.25563,0.38102 -0.71865,0.5836 0.58842,0.23633 0.89228,0.6897 0.30868,0.45338 0.30868,1.04662 0,0.9791 -0.627,1.59164 -0.62219,0.61254 -1.65916,0.61254 -0.96463,0 -1.60611,-0.50643 -0.75723,-0.59807 -0.75723,-1.63987 0,-0.57395 0.28457,-1.05144 0.28456,-0.48231 0.8971,-0.74276 z m 0.27974,-1.36495 q 0,0.40514 0.22669,0.63183 0.23151,0.22669 0.61254,0.22669 0.38585,0 0.61736,-0.22669 0.23151,-0.23151 0.23151,-0.63665 0,-0.38103 -0.23151,-0.60772 -0.22669,-0.23151 -0.60289,-0.23151 -0.39068,0 -0.62219,0.23151 -0.23151,0.23151 -0.23151,0.61254 z m -0.1254,3.02893 q 0,0.55948 0.28456,0.87298 0.28939,0.31351 0.71865,0.31351 0.41961,0 0.69453,-0.29904 0.27492,-0.30385 0.27492,-0.87298 0,-0.49679 -0.27974,-0.79582 -0.27974,-0.30386 -0.709,-0.30386 -0.49678,0 -0.74276,0.34244 -0.24116,0.34245 -0.24116,0.74277 z m 6.46782,-4.94854 q 1.02733,0 1.60611,0.73312 0.68971,0.86816 0.68971,2.87941 0,2.00642 -0.69454,2.88423 -0.57395,0.72347 -1.60128,0.72347 -1.03215,0 -1.66398,-0.79099 -0.63183,-0.79582 -0.63183,-2.83118 0,-1.99678 0.69453,-2.87459 0.57396,-0.72347 1.60128,-0.72347 z m 0,1.12379 q -0.24598,0 -0.4389,0.15917 -0.19293,0.15434 -0.29904,0.55948 -0.13987,0.52572 -0.13987,1.77009 0,1.24437 0.1254,1.71221 0.12541,0.46302 0.31351,0.61736 0.19292,0.15434 0.4389,0.15434 0.24598,0 0.43891,-0.15434 0.19292,-0.15916 0.29903,-0.5643 0.13987,-0.5209 0.13987,-1.76527 0,-1.24437 -0.1254,-1.70739 -0.1254,-0.46784 -0.31832,-0.62218 -0.18811,-0.15917 -0.43409,-0.15917 z m 3.21221,0.65112 q 0,-0.95015 0.41479,-1.40835 0.41961,-0.4582 1.13344,-0.4582 0.73794,0 1.15273,0.4582 0.41961,0.45337 0.41961,1.40835 0,0.95016 -0.41961,1.40836 -0.41479,0.4582 -1.12862,0.4582 -0.73794,0 -1.15755,-0.45338 -0.41479,-0.45819 -0.41479,-1.41318 z m 1.05627,-0.01 q 0,0.68971 0.15916,0.92604 0.12058,0.17363 0.3328,0.17363 0.21704,0 0.33762,-0.17363 0.15434,-0.23633 0.15434,-0.92604 0,-0.68971 -0.15434,-0.92122 -0.12058,-0.17846 -0.33762,-0.17846 -0.21222,0 -0.3328,0.17364 -0.15916,0.23633 -0.15916,0.92604 z m 1.52411,5.60448 h -1.00321 l 3.76686,-7.46139 h 0.97428 z m 2.1897,-1.85691 q 0,-0.95015 0.41479,-1.40835 0.41961,-0.4582 1.14308,-0.4582 0.7283,0 1.14309,0.4582 0.41961,0.4582 0.41961,1.40835 0,0.95498 -0.41961,1.41318 -0.41479,0.4582 -1.12862,0.4582 -0.73794,0 -1.15755,-0.4582 -0.41479,-0.4582 -0.41479,-1.41318 z m 1.05627,-0.005 q 0,0.68971 0.15916,0.92122 0.12058,0.17846 0.3328,0.17846 0.21704,0 0.33279,-0.17364 0.15917,-0.23633 0.15917,-0.92604 0,-0.68971 -0.15434,-0.92604 -0.12058,-0.17363 -0.33762,-0.17363 -0.21704,0 -0.3328,0.17363 -0.15916,0.23633 -0.15916,0.92604 z m 5.98068,1.59164 v -7.07072 h 1.3553 v 7.07072 z m 2.43086,-2.63344 q 0,-0.67523 0.3328,-1.30707 0.3328,-0.63183 0.94051,-0.96462 0.61254,-0.3328 1.36495,-0.3328 1.16237,0 1.90514,0.75723 0.74276,0.75241 0.74276,1.90514 0,1.16238 -0.75241,1.92926 -0.74758,0.76205 -1.88584,0.76205 -0.70418,0 -1.34566,-0.31833 -0.63665,-0.31832 -0.96945,-0.93086 -0.3328,-0.61736 -0.3328,-1.5 z m 1.38907,0.0724 q 0,0.76206 0.36173,1.1672 0.36174,0.40514 0.89228,0.40514 0.53055,0 0.88746,-0.40514 0.36173,-0.40514 0.36173,-1.17685 0,-0.7524 -0.36173,-1.15755 -0.35691,-0.40514 -0.88746,-0.40514 -0.53054,0 -0.89228,0.40514 -0.36173,0.40515 -0.36173,1.1672 z m 5.91316,2.56109 -1.62057,-5.12217 h 1.31671 l 0.95981,3.3569 0.88263,-3.3569 h 1.30707 l 0.85369,3.3569 0.9791,-3.3569 h 1.33601 l -1.64469,5.12217 h -1.30225 l -0.88263,-3.29421 -0.86816,3.29421 z m 9.6945,-1.63022 1.35048,0.22668 q -0.26045,0.74277 -0.82476,1.13344 -0.55948,0.38585 -1.40353,0.38585 -1.33601,0 -1.97749,-0.87299 -0.50643,-0.69935 -0.50643,-1.76526 0,-1.27331 0.6656,-1.99196 0.66559,-0.72347 1.68327,-0.72347 1.14308,0 1.80385,0.75723 0.66077,0.75241 0.63183,2.31028 h -3.39548 q 0.0145,0.6029 0.32797,0.94052 0.3135,0.33279 0.78135,0.33279 0.31832,0 0.53536,-0.17363 0.21705,-0.17363 0.32798,-0.55948 z m 0.0772,-1.36977 q -0.0145,-0.58843 -0.30386,-0.89228 -0.28939,-0.30868 -0.70418,-0.30868 -0.44373,0 -0.73311,0.32315 -0.28939,0.32315 -0.28457,0.87781 z m 3.74758,2.99999 h -1.3553 v -5.12217 h 1.25883 v 0.72829 q 0.32315,-0.51608 0.57878,-0.68006 0.26045,-0.16399 0.58842,-0.16399 0.46302,0 0.89228,0.25563 l -0.41961,1.18167 q -0.34244,-0.22187 -0.63665,-0.22187 -0.28457,0 -0.48232,0.15916 -0.19775,0.15434 -0.3135,0.56431 -0.11093,0.40997 -0.11093,1.71704 z m 9.98871,0 h -1.25884 v -0.75241 q -0.3135,0.4389 -0.74276,0.65594 -0.42444,0.21222 -0.85852,0.21222 -0.88263,0 -1.51447,-0.709 -0.627,-0.71382 -0.627,-1.98713 0,-1.30225 0.61254,-1.97749 0.61253,-0.68006 1.54822,-0.68006 0.85852,0 1.48553,0.71383 v -2.54662 h 1.3553 z m -3.61735,-2.67202 q 0,0.81993 0.22668,1.18649 0.32798,0.53054 0.9164,0.53054 0.46784,0 0.79582,-0.39549 0.32797,-0.40032 0.32797,-1.19132 0,-0.88263 -0.31833,-1.26848 -0.31832,-0.39067 -0.81511,-0.39067 -0.48231,0 -0.81028,0.38585 -0.32315,0.38102 -0.32315,1.14308 z m 4.63986,0.0386 q 0,-0.67523 0.33279,-1.30707 0.3328,-0.63183 0.94051,-0.96462 0.61254,-0.3328 1.36495,-0.3328 1.16238,0 1.90514,0.75723 0.74276,0.75241 0.74276,1.90514 0,1.16238 -0.75241,1.92926 -0.74758,0.76205 -1.88584,0.76205 -0.70418,0 -1.34566,-0.31833 -0.63665,-0.31832 -0.96945,-0.93086 -0.33279,-0.61736 -0.33279,-1.5 z m 1.38906,0.0724 q 0,0.76206 0.36173,1.1672 0.36174,0.40514 0.89228,0.40514 0.53055,0 0.88746,-0.40514 0.36174,-0.40514 0.36174,-1.17685 0,-0.7524 -0.36174,-1.15755 -0.35691,-0.40514 -0.88746,-0.40514 -0.53054,0 -0.89228,0.40514 -0.36173,0.40515 -0.36173,1.1672 z m 4.48069,1.09968 1.36012,-0.2074 q 0.0868,0.3955 0.35209,0.60289 0.26527,0.20257 0.74276,0.20257 0.52572,0 0.791,-0.19292 0.17845,-0.13505 0.17845,-0.36174 0,-0.15434 -0.0965,-0.25562 -0.10129,-0.0965 -0.45338,-0.17846 -1.63986,-0.36173 -2.07877,-0.66077 -0.60771,-0.41479 -0.60771,-1.15273 0,-0.66559 0.52572,-1.11896 0.52572,-0.45338 1.63022,-0.45338 1.05144,0 1.5627,0.34244 0.51125,0.34245 0.70417,1.01286 l -1.27813,0.23634 q -0.082,-0.29904 -0.3135,-0.4582 -0.22669,-0.15917 -0.65112,-0.15917 -0.53537,0 -0.76688,0.14952 -0.15434,0.10611 -0.15434,0.27492 0,0.14469 0.13504,0.24598 0.18328,0.13505 1.26367,0.38103 1.0852,0.24598 1.51446,0.60289 0.42444,0.36173 0.42444,1.00803 0,0.70418 -0.58843,1.21061 -0.58842,0.50643 -1.74115,0.50643 -1.04662,0 -1.65916,-0.42444 -0.60771,-0.42443 -0.79581,-1.15272 z m 8.93727,-0.16881 1.35048,0.22668 q -0.26045,0.74277 -0.82476,1.13344 -0.55948,0.38585 -1.40353,0.38585 -1.33601,0 -1.97749,-0.87299 -0.50643,-0.69935 -0.50643,-1.76526 0,-1.27331 0.6656,-1.99196 0.66559,-0.72347 1.68327,-0.72347 1.14308,0 1.80385,0.75723 0.66077,0.75241 0.63183,2.31028 h -3.39548 q 0.0145,0.6029 0.32797,0.94052 0.3135,0.33279 0.78135,0.33279 0.31832,0 0.53536,-0.17363 0.21705,-0.17363 0.32798,-0.55948 z m 0.0772,-1.36977 q -0.0145,-0.58843 -0.30386,-0.89228 -0.28939,-0.30868 -0.70418,-0.30868 -0.44373,0 -0.73311,0.32315 -0.28939,0.32315 -0.28457,0.87781 z"
         id="path5" /><path
         style="font-family:Arial;-inkscape-font-specification:'Arial Bold'"
         d="m 158.98524,149.83751 -1.2299,-0.22186 q 0.2074,-0.74277 0.71382,-1.09968 0.50643,-0.35691 1.50482,-0.35691 0.90675,0 1.35048,0.21704 0.44373,0.21222 0.62218,0.54502 0.18328,0.32797 0.18328,1.2106 l -0.0145,1.58199 q 0,0.67524 0.0627,0.99839 0.0675,0.31833 0.24598,0.68488 h -1.34083 q -0.0531,-0.13504 -0.13022,-0.40032 -0.0338,-0.12057 -0.0482,-0.15916 -0.34727,0.33762 -0.74277,0.50643 -0.39549,0.16881 -0.84404,0.16881 -0.791,0 -1.2492,-0.42926 -0.45337,-0.42926 -0.45337,-1.0852 0,-0.43409 0.20739,-0.77171 0.2074,-0.34244 0.57878,-0.52089 0.3762,-0.18328 1.08038,-0.31833 0.95016,-0.17846 1.31672,-0.3328 v -0.13505 q 0,-0.39067 -0.19293,-0.55466 -0.19292,-0.16881 -0.72829,-0.16881 -0.36174,0 -0.56431,0.1447 -0.20257,0.13987 -0.32797,0.49678 z m 1.8135,1.09968 q -0.26045,0.0868 -0.82476,0.20739 -0.5643,0.12058 -0.73794,0.23633 -0.26527,0.18811 -0.26527,0.47749 0,0.28457 0.21222,0.49196 0.21222,0.2074 0.54019,0.2074 0.36656,0 0.69935,-0.24116 0.24598,-0.18328 0.32315,-0.44855 0.0531,-0.17363 0.0531,-0.66077 z m 7.32634,2.45979 h -1.3553 v -2.61413 q 0,-0.82958 -0.0868,-1.07074 -0.0868,-0.24598 -0.28456,-0.38103 -0.19293,-0.13505 -0.46785,-0.13505 -0.35209,0 -0.63183,0.19293 -0.27974,0.19293 -0.38585,0.51125 -0.10128,0.31833 -0.10128,1.17685 v 2.31992 h -1.3553 v -5.12216 h 1.25883 v 0.7524 q 0.67042,-0.86816 1.6881,-0.86816 0.44855,0 0.81993,0.16399 0.37139,0.15916 0.55949,0.40996 0.19292,0.25081 0.26527,0.56913 0.0772,0.31833 0.0772,0.91158 z m 6.07233,0 h -1.25884 v -0.7524 q -0.3135,0.4389 -0.74276,0.65594 -0.42444,0.21222 -0.85852,0.21222 -0.88264,0 -1.51447,-0.709 -0.627,-0.71382 -0.627,-1.98713 0,-1.30225 0.61253,-1.97749 0.61254,-0.68006 1.54823,-0.68006 0.85852,0 1.48553,0.71382 v -2.54661 h 1.3553 z m -3.61735,-2.67201 q 0,0.81993 0.22668,1.18649 0.32798,0.53054 0.9164,0.53054 0.46784,0 0.79582,-0.39549 0.32797,-0.40032 0.32797,-1.19132 0,-0.88263 -0.31833,-1.26848 -0.31832,-0.39068 -0.81511,-0.39068 -0.48231,0 -0.81028,0.38586 -0.32315,0.38102 -0.32315,1.14308 z m 8.6527,2.67201 -1.62057,-5.12216 h 1.31671 l 0.95981,3.3569 0.88263,-3.3569 h 1.30707 l 0.85369,3.3569 0.9791,-3.3569 h 1.33601 l -1.64469,5.12216 h -1.30225 l -0.88263,-3.2942 -0.86817,3.2942 z m 6.72827,-5.8167 v -1.25401 h 1.3553 v 1.25401 z m 0,5.8167 v -5.12216 h 1.3553 v 5.12216 z m 5.09323,-5.12216 v 1.08038 h -0.92604 v 2.0643 q 0,0.62701 0.0241,0.73312 0.0289,0.10128 0.12058,0.16881 0.0965,0.0675 0.23151,0.0675 0.1881,0 0.54501,-0.13023 l 0.11576,1.05145 q -0.47267,0.20257 -1.07074,0.20257 -0.36656,0 -0.66077,-0.12058 -0.29421,-0.1254 -0.43408,-0.31833 -0.13505,-0.19774 -0.1881,-0.53054 -0.0434,-0.23633 -0.0434,-0.95498 v -2.23311 h -0.62219 v -1.08038 h 0.62219 v -1.01769 l 1.36012,-0.79099 v 1.80868 z m 2.29099,-1.94855 v 2.59967 q 0.65595,-0.76688 1.56752,-0.76688 0.46784,0 0.84405,0.17363 0.3762,0.17364 0.56431,0.44373 0.19292,0.2701 0.26044,0.59807 0.0724,0.32797 0.0724,1.01768 v 3.00481 h -1.3553 v -2.70577 q 0,-0.80547 -0.0772,-1.02251 -0.0772,-0.21704 -0.27492,-0.34244 -0.19292,-0.13023 -0.48713,-0.13023 -0.33762,0 -0.6029,0.16399 -0.26527,0.16399 -0.39067,0.49678 -0.12058,0.32798 -0.12058,0.97428 v 2.5659 h -1.3553 v -7.07071 z m 12.12536,7.07071 h -1.25883 v -0.7524 q -0.31351,0.4389 -0.74277,0.65594 -0.42443,0.21222 -0.85852,0.21222 -0.88263,0 -1.51446,-0.709 -0.62701,-0.71382 -0.62701,-1.98713 0,-1.30225 0.61254,-1.97749 0.61254,-0.68006 1.54823,-0.68006 0.85852,0 1.48552,0.71382 v -2.54661 h 1.3553 z m -3.61735,-2.67201 q 0,0.81993 0.22669,1.18649 0.32797,0.53054 0.9164,0.53054 0.46784,0 0.79581,-0.39549 0.32798,-0.40032 0.32798,-1.19132 0,-0.88263 -0.31833,-1.26848 -0.31833,-0.39068 -0.81511,-0.39068 -0.48231,0 -0.81029,0.38586 -0.32315,0.38102 -0.32315,1.14308 z m 4.63986,0.0386 q 0,-0.67524 0.33279,-1.30707 0.3328,-0.63183 0.94052,-0.96462 0.61253,-0.3328 1.36494,-0.3328 1.16238,0 1.90514,0.75723 0.74276,0.75241 0.74276,1.90514 0,1.16238 -0.75241,1.92925 -0.74758,0.76206 -1.88584,0.76206 -0.70418,0 -1.34566,-0.31833 -0.63665,-0.31832 -0.96945,-0.93086 -0.33279,-0.61736 -0.33279,-1.5 z m 1.38906,0.0724 q 0,0.76206 0.36174,1.1672 0.36173,0.40514 0.89228,0.40514 0.53054,0 0.88745,-0.40514 0.36174,-0.40514 0.36174,-1.17685 0,-0.75241 -0.36174,-1.15755 -0.35691,-0.40514 -0.88745,-0.40514 -0.53055,0 -0.89228,0.40514 -0.36174,0.40514 -0.36174,1.1672 z m 4.48069,1.09967 1.36013,-0.20739 q 0.0868,0.3955 0.35208,0.60289 0.26528,0.20257 0.74277,0.20257 0.52572,0 0.79099,-0.19292 0.17846,-0.13505 0.17846,-0.36174 0,-0.15434 -0.0965,-0.25562 -0.10129,-0.0965 -0.45338,-0.17846 -1.63987,-0.36173 -2.07877,-0.66077 -0.60772,-0.41479 -0.60772,-1.15273 0,-0.66559 0.52573,-1.11897 0.52572,-0.45337 1.63022,-0.45337 1.05144,0 1.56269,0.34244 0.51125,0.34245 0.70418,1.01286 l -1.27813,0.23633 q -0.082,-0.29903 -0.31351,-0.45819 -0.22668,-0.15917 -0.65112,-0.15917 -0.53537,0 -0.76688,0.14952 -0.15434,0.10611 -0.15434,0.27492 0,0.14469 0.13505,0.24598 0.18328,0.13505 1.26366,0.38103 1.08521,0.24598 1.51447,0.60289 0.42443,0.36173 0.42443,1.00803 0,0.70418 -0.58842,1.21061 -0.58842,0.50643 -1.74115,0.50643 -1.04662,0 -1.65916,-0.42444 -0.60772,-0.42443 -0.79582,-1.15273 z m 8.93727,-0.1688 1.35048,0.22668 q -0.26045,0.74277 -0.82476,1.13344 -0.55948,0.38585 -1.40353,0.38585 -1.33601,0 -1.97749,-0.87299 -0.50643,-0.69935 -0.50643,-1.76526 0,-1.27331 0.6656,-1.99196 0.66559,-0.72347 1.68327,-0.72347 1.14308,0 1.80385,0.75723 0.66077,0.75241 0.63183,2.31028 h -3.39548 q 0.0145,0.6029 0.32797,0.94052 0.3135,0.33279 0.78135,0.33279 0.31833,0 0.53537,-0.17363 0.21704,-0.17363 0.32797,-0.55948 z m 0.0772,-1.36978 q -0.0145,-0.58842 -0.30386,-0.89228 -0.28939,-0.30868 -0.70418,-0.30868 -0.44372,0 -0.73311,0.32315 -0.28939,0.32315 -0.28457,0.87781 z m 4.7749,1.36978 v -1.36013 l 3.38584,-1.33601 -3.38584,-1.31189 v -1.3553 l 4.84725,2.09324 v 1.16238 z m 0,1.63021 v -1.26848 h 4.84725 v 1.26848 z m 12.87295,-1.25883 v 1.25883 h -4.75078 q 0.0772,-0.71382 0.46302,-1.35047 0.38585,-0.64148 1.52411,-1.69775 0.91639,-0.85369 1.12379,-1.15755 0.27974,-0.41961 0.27974,-0.82958 0,-0.45337 -0.24598,-0.69453 -0.24116,-0.24598 -0.67042,-0.24598 -0.42443,0 -0.67524,0.25563 -0.2508,0.25562 -0.28938,0.84887 l -1.35048,-0.13505 q 0.12058,-1.11897 0.75723,-1.6061 0.63665,-0.48714 1.59164,-0.48714 1.04662,0 1.64468,0.56431 0.59807,0.5643 0.59807,1.40353 0,0.47749 -0.17363,0.91157 -0.16881,0.42926 -0.54019,0.90193 -0.24598,0.3135 -0.88746,0.90192 -0.64147,0.58843 -0.81511,0.78135 -0.16881,0.19293 -0.27492,0.37621 z m 0.93569,-0.55949 1.35047,-0.13987 q 0.0579,0.4582 0.34245,0.7283 0.28456,0.26527 0.65594,0.26527 0.42444,0 0.71865,-0.34244 0.29421,-0.34727 0.29421,-1.0418 0,-0.65113 -0.29421,-0.97428 -0.28939,-0.32797 -0.75723,-0.32797 -0.5836,0 -1.04662,0.51608 l -1.09968,-0.15917 0.69453,-3.68005 h 3.58359 v 1.26849 h -2.55626 l -0.21222,1.20096 q 0.45338,-0.22669 0.92605,-0.22669 0.90192,0 1.52893,0.65595 0.62701,0.65594 0.62701,1.70256 0,0.87299 -0.50643,1.55787 -0.68971,0.93569 -1.91479,0.93569 -0.97909,0 -1.59645,-0.52572 -0.61737,-0.52572 -0.73794,-1.41318 z m 11.80703,-0.78135 V 149.606 h 3.07716 v 2.81671 q -0.44855,0.43408 -1.30225,0.76688 -0.84887,0.32797 -1.72185,0.32797 -1.10933,0 -1.93408,-0.46302 -0.82476,-0.46784 -1.23955,-1.33118 -0.41479,-0.86817 -0.41479,-1.88585 0,-1.1045 0.46302,-1.96301 0.46302,-0.85852 1.3553,-1.31672 0.68007,-0.35209 1.69293,-0.35209 1.31671,0 2.05465,0.55466 0.74276,0.54984 0.95498,1.52411 l -1.418,0.26527 q -0.14952,-0.52089 -0.56431,-0.81993 -0.40996,-0.30386 -1.02732,-0.30386 -0.93569,0 -1.49035,0.59325 -0.54984,0.59324 -0.54984,1.76044 0,1.25884 0.55948,1.89067 0.55949,0.62701 1.46624,0.62701 0.44855,0 0.8971,-0.17363 0.45337,-0.17846 0.77652,-0.42926 v -0.89711 z m 3.74276,-2.52249 h 1.44212 l 1.22507,3.63664 1.19614,-3.63664 h 1.40353 l -1.80867,4.92924 -0.32315,0.89228 q -0.17846,0.44855 -0.34245,0.68488 -0.15916,0.23634 -0.37138,0.38103 -0.20739,0.14952 -0.51607,0.23151 -0.30386,0.082 -0.68971,0.082 -0.39068,0 -0.76688,-0.082 l -0.12058,-1.06109 q 0.31833,0.0627 0.57395,0.0627 0.47267,0 0.69936,-0.27974 0.22669,-0.27492 0.34726,-0.70418 z"
         id="path6" /></g><g
       id="path19-2"
       transform="translate(10.583334)"><path
         style="color:#000000;fill:#b22424;stroke-linejoin:round;-inkscape-stroke:none;paint-order:stroke markers fill"
         d="m 207.92383,90.984375 v 27.234375 h 2 V 90.984375 Z"
         id="path3" /><g
         id="g2"><path
           style="color:#000000;fill:#b22424;stroke-linecap:round;-inkscape-stroke:none"
           d="m 208.92383,89.070312 -6.70703,6.707032 a 1,1 0 0 0 0,1.414062 1,1 0 0 0 1.41406,0 l 5.29297,-5.292969 5.29297,5.292969 a 1,1 0 0 0 1.41406,0 1,1 0 0 0 0,-1.414062 z"
           id="path2" /></g><path
         style="color:#000000;fill:#c00000;stroke-linejoin:round;-inkscape-stroke:none;paint-order:stroke markers fill"
         d="M 208.92459,118.21802 V 90.984678"
         id="path4" /></g><rect
       style="fill:none;fill-opacity:1;stroke:#b22424;stroke-width:2.5;stroke-linejoin:round;stroke-dasharray:none;stroke-opacity:1;paint-order:stroke markers fill"
       id="rect13"
       width="72"
       height="26"
       x="163.23471"
       y="60.873863"
       ry="13"
       rx="13" /></g></svg>
