<?xml version="1.0" encoding="UTF-8" standalone="no"?>
<!-- Created with Inkscape (http://www.inkscape.org/) -->

<svg
   width="290mm"
   height="130mm"
   viewBox="0 0 289.99999 130"
   version="1.1"
   id="svg1"
   xml:space="preserve"
   inkscape:version="1.3.2 (091e20e, 2023-11-25, custom)"
   sodipodi:docname="constraint_penalization0.svg"
   inkscape:export-filename="constraint_penalization.png"
   inkscape:export-xdpi="200"
   inkscape:export-ydpi="200"
   xmlns:inkscape="http://www.inkscape.org/namespaces/inkscape"
   xmlns:sodipodi="http://sodipodi.sourceforge.net/DTD/sodipodi-0.dtd"
   xmlns="http://www.w3.org/2000/svg"
   xmlns:svg="http://www.w3.org/2000/svg"><sodipodi:namedview
     id="namedview1"
     pagecolor="#ffffff"
     bordercolor="#000000"
     borderopacity="0.25"
     inkscape:showpageshadow="2"
     inkscape:pageopacity="0.0"
     inkscape:pagecheckerboard="0"
     inkscape:deskcolor="#d1d1d1"
     inkscape:document-units="mm"
     inkscape:zoom="0.72426347"
     inkscape:cx="560.56948"
     inkscape:cy="178.80234"
     inkscape:window-width="1920"
     inkscape:window-height="1009"
     inkscape:window-x="3832"
     inkscape:window-y="-8"
     inkscape:window-maximized="1"
     inkscape:current-layer="layer1" /><defs
     id="defs1"><clipPath
       clipPathUnits="userSpaceOnUse"
       id="clipEmfPath1"><path
         d="M 0,0 H 54.765354 V 24.948661 H 0 Z"
         id="path1-9" /></clipPath><pattern
       id="EMFhbasepattern"
       patternUnits="userSpaceOnUse"
       width="6"
       height="6"
       x="0"
       y="0" /></defs><g
     inkscape:label="Layer 1"
     inkscape:groupmode="layer"
     id="layer1"
     transform="translate(-7.2622342,-29.22909)"><g
       id="text1"
       style="font-weight:bold;font-size:11.2889px;font-family:Arial;-inkscape-font-specification:'Arial Bold';text-align:center;letter-spacing:0px;word-spacing:0px;text-anchor:middle;fill:#1f77b4;stroke:#808080;stroke-width:0;stroke-linejoin:round;paint-order:stroke markers fill"
       aria-label="dOAR = [  5 ; 10 ; 20 ; 22 ; 23 ;   25 ; 26 ; 28   ; 29 ; 30  ]"><path
         d="m 17.72878,77.636635 h -1.438673 v -0.859897 q -0.358291,0.501607 -0.848873,0.749654 -0.48507,0.242535 -0.981164,0.242535 -1.008725,0 -1.730818,-0.810288 -0.71658,-0.815799 -0.71658,-2.271009 0,-1.488283 0.700044,-2.259985 0.700044,-0.777214 1.769403,-0.777214 0.981164,0 1.697744,0.815799 v -2.910419 h 1.548917 z m -4.134119,-3.053736 q 0,0.937067 0.259072,1.355991 0.374826,0.606337 1.04731,0.606337 0.534679,0 0.909506,-0.451997 0.374827,-0.457509 0.374827,-1.361503 0,-1.008725 -0.363803,-1.449697 -0.363802,-0.446485 -0.931555,-0.446485 -0.551215,0 -0.926042,0.440973 -0.369315,0.43546 -0.369315,1.306381 z"
         id="path1" /><path
         style="font-size:7.33778px;baseline-shift:sub"
         d="m 18.764239,77.300393 q 0,-0.80257 0.240054,-1.347171 0.179145,-0.401285 0.487275,-0.720164 0.311712,-0.318878 0.680751,-0.472943 0.490858,-0.207808 1.132198,-0.207808 1.16086,0 1.855943,0.720163 0.698666,0.720164 0.698666,2.002843 0,1.27193 -0.6915,1.992094 -0.6915,0.71658 -1.848778,0.71658 -1.171609,0 -1.863109,-0.712997 -0.6915,-0.716581 -0.6915,-1.970597 z m 1.092785,-0.03583 q 0,0.892143 0.412034,1.354338 0.412034,0.458611 1.046207,0.458611 0.634174,0 1.039042,-0.455029 0.408451,-0.458611 0.408451,-1.372251 0,-0.902892 -0.397702,-1.347172 -0.394119,-0.44428 -1.049791,-0.44428 -0.655671,0 -1.056956,0.451446 -0.401285,0.447863 -0.401285,1.354337 z m 9.56635,2.629851 h -1.153695 l -0.458612,-1.193107 h -2.099581 l -0.433531,1.193107 h -1.125031 l 2.045837,-5.252535 h 1.121449 z m -1.952682,-2.078084 -0.723747,-1.949099 -0.709414,1.949099 z m 2.518781,2.078084 V 74.64188 h 2.232149 q 0.841982,0 1.22177,0.143316 0.38337,0.139733 0.612676,0.501606 0.229306,0.361873 0.229306,0.827651 0,0.591178 -0.347542,0.978132 -0.347541,0.383371 -1.039042,0.483692 0.343959,0.200642 0.566099,0.440697 0.225723,0.240054 0.605511,0.852731 l 0.641339,1.02471 H 33.443392 L 32.67665,78.751469 q -0.40845,-0.612676 -0.558932,-0.770324 -0.150482,-0.161231 -0.318879,-0.218557 -0.168396,-0.06091 -0.533852,-0.06091 h -0.214974 v 2.192737 z m 1.06054,-3.031136 h 0.784655 q 0.763159,0 0.953052,-0.06449 0.189894,-0.06449 0.297381,-0.22214 0.107487,-0.157648 0.107487,-0.394119 0,-0.265135 -0.143316,-0.426366 -0.139733,-0.164813 -0.397702,-0.207808 -0.128984,-0.01792 -0.773907,-0.01792 h -0.82765 z"
         id="path2" /><path
         d="m 38.356103,73.138714 v -1.422137 h 5.649962 v 1.422137 z m 0,2.447398 v -1.427649 h 5.649962 v 1.427649 z m 10.065202,4.327044 V 69.555811 h 2.745055 v 1.218187 h -1.273309 v 7.920971 h 1.273309 v 1.218187 z m 9.728958,-4.354605 1.543405,-0.159852 q 0.06615,0.523655 0.391363,0.832335 0.325217,0.303169 0.749654,0.303169 0.48507,0 0.821311,-0.391363 0.336242,-0.396875 0.336242,-1.190626 0,-0.744142 -0.336242,-1.113456 -0.330729,-0.374827 -0.865409,-0.374827 -0.666971,0 -1.196138,0.589801 l -1.256772,-0.181901 0.793751,-4.205777 h 4.095533 v 1.449697 h -2.921444 l -0.242535,1.372528 q 0.518143,-0.259072 1.058335,-0.259072 1.030773,0 1.747354,0.749654 0.716581,0.749654 0.716581,1.945792 0,0.997701 -0.578777,1.780427 -0.788239,1.069359 -2.188327,1.069359 -1.118968,0 -1.824524,-0.600825 -0.705557,-0.600826 -0.843361,-1.615063 z m 9.977005,-2.226912 v -1.548916 h 1.548916 v 1.548916 z m 0,2.756079 h 1.548916 v 1.107944 q 0,0.672483 -0.115755,1.058335 -0.115755,0.391363 -0.440973,0.700044 -0.319705,0.308681 -0.815799,0.48507 L 68.000488,78.7997 q 0.468534,-0.15434 0.666972,-0.429948 0.198437,-0.275608 0.209462,-0.733117 h -0.749654 z m 10.274667,1.548917 h -1.548917 v -5.837376 q -0.848872,0.793751 -2.000913,1.17409 v -1.405601 q 0.606337,-0.198437 1.317406,-0.749653 0.711068,-0.556728 0.975652,-1.295357 h 1.256772 z m 4.933376,-8.113897 q 1.17409,0 1.835549,0.837848 0.788239,0.992188 0.788239,3.290758 0,2.293058 -0.793751,3.296271 -0.655947,0.826824 -1.830037,0.826824 -1.179601,0 -1.901694,-0.903994 -0.722093,-0.909506 -0.722093,-3.235637 0,-2.282034 0.793751,-3.285247 0.655947,-0.826823 1.830036,-0.826823 z m 0,1.284333 q -0.28112,0 -0.501606,0.181901 -0.220486,0.176389 -0.341754,0.63941 -0.159852,0.600825 -0.159852,2.022962 0,1.422137 0.143316,1.956817 0.143316,0.529167 0.35829,0.705556 0.220486,0.176389 0.501606,0.176389 0.281121,0 0.501607,-0.176389 0.220486,-0.181901 0.341754,-0.644923 0.159852,-0.595313 0.159852,-2.01745 0,-1.422137 -0.143316,-1.951304 -0.143316,-0.534679 -0.363802,-0.711068 -0.214974,-0.181901 -0.496095,-0.181901 z m 7.380786,2.524568 v -1.548916 h 1.548917 v 1.548916 z m 0,2.756079 h 1.548917 v 1.107944 q 0,0.672483 -0.115756,1.058335 -0.115755,0.391363 -0.440972,0.700044 -0.319706,0.308681 -0.8158,0.48507 L 90.589317,78.7997 q 0.468534,-0.15434 0.666972,-0.429948 0.198437,-0.275608 0.209462,-0.733117 h -0.749654 z m 11.542453,0.110243 v 1.438674 h -5.429473 q 0.08819,-0.8158 0.529167,-1.543405 0.440973,-0.733117 1.741842,-1.940279 1.047314,-0.975652 1.284334,-1.322918 0.3197,-0.479558 0.3197,-0.948092 0,-0.518142 -0.28112,-0.79375 -0.2756,-0.28112 -0.766186,-0.28112 -0.48507,0 -0.771702,0.292144 -0.286632,0.292144 -0.33073,0.97014 l -1.543404,-0.154341 q 0.137804,-1.27882 0.865409,-1.835548 0.727605,-0.556728 1.819012,-0.556728 1.196141,0 1.879651,0.644922 0.6835,0.644923 0.6835,1.604038 0,0.545704 -0.19843,1.041798 -0.19293,0.490582 -0.61737,1.030774 -0.28112,0.35829 -1.01423,1.030773 -0.733121,0.672484 -0.931559,0.89297 -0.192925,0.220486 -0.314193,0.429948 z m 3.66559,-6.675223 q 1.17409,0 1.83555,0.837848 0.78824,0.992188 0.78824,3.290758 0,2.293058 -0.79375,3.296271 -0.65595,0.826824 -1.83004,0.826824 -1.1796,0 -1.90169,-0.903994 -0.7221,-0.909506 -0.7221,-3.235637 0,-2.282034 0.79375,-3.285247 0.65595,-0.826823 1.83004,-0.826823 z m 0,1.284333 q -0.28112,0 -0.50161,0.181901 -0.22048,0.176389 -0.34175,0.63941 -0.15985,0.600825 -0.15985,2.022962 0,1.422137 0.14331,1.956817 0.14332,0.529167 0.35829,0.705556 0.22049,0.176389 0.50161,0.176389 0.28112,0 0.50161,-0.176389 0.22048,-0.181901 0.34175,-0.644923 0.15985,-0.595313 0.15985,-2.01745 0,-1.422137 -0.14331,-1.951304 -0.14332,-0.534679 -0.36381,-0.711068 -0.21497,-0.181901 -0.49609,-0.181901 z m 7.38078,2.524568 v -1.548916 h 1.54891 v 1.548916 z m 0,2.756079 h 1.54891 v 1.107944 q 0,0.672483 -0.11575,1.058335 -0.11576,0.391363 -0.44097,0.700044 -0.31971,0.308681 -0.8158,0.48507 L 113.17814,78.7997 q 0.46853,-0.15434 0.66697,-0.429948 0.19844,-0.275608 0.20946,-0.733117 h -0.74965 z m 11.54246,0.110243 v 1.438674 h -5.42947 q 0.0882,-0.8158 0.52916,-1.543405 0.44098,-0.733117 1.74185,-1.940279 1.04731,-0.975652 1.28433,-1.322918 0.3197,-0.479558 0.3197,-0.948092 0,-0.518142 -0.28112,-0.79375 -0.2756,-0.28112 -0.76619,-0.28112 -0.48507,0 -0.7717,0.292144 -0.28663,0.292144 -0.33073,0.97014 l -1.5434,-0.154341 q 0.1378,-1.27882 0.86541,-1.835548 0.7276,-0.556728 1.81901,-0.556728 1.19614,0 1.87964,0.644922 0.68351,0.644923 0.68351,1.604038 0,0.545704 -0.19844,1.041798 -0.19292,0.490582 -0.61736,1.030774 -0.28112,0.35829 -1.01423,1.030773 -0.73312,0.672484 -0.93156,0.89297 -0.19293,0.220486 -0.31419,0.429948 z m 6.27834,0 v 1.438674 h -5.42947 q 0.0882,-0.8158 0.52917,-1.543405 0.44097,-0.733117 1.74184,-1.940279 1.04731,-0.975652 1.28433,-1.322918 0.31971,-0.479558 0.31971,-0.948092 0,-0.518142 -0.28112,-0.79375 -0.27561,-0.28112 -0.76619,-0.28112 -0.48507,0 -0.77171,0.292144 -0.28663,0.292144 -0.33073,0.97014 l -1.5434,-0.154341 q 0.1378,-1.27882 0.86541,-1.835548 0.7276,-0.556728 1.81901,-0.556728 1.19614,0 1.87965,0.644922 0.6835,0.644923 0.6835,1.604038 0,0.545704 -0.19843,1.041798 -0.19293,0.490582 -0.61736,1.030774 -0.28112,0.35829 -1.01424,1.030773 -0.73312,0.672484 -0.93156,0.89297 -0.19292,0.220486 -0.31419,0.429948 z m 4.76803,-2.866322 v -1.548916 h 1.54891 v 1.548916 z m 0,2.756079 h 1.54891 v 1.107944 q 0,0.672483 -0.11575,1.058335 -0.11576,0.391363 -0.44097,0.700044 -0.31971,0.308681 -0.8158,0.48507 L 135.76697,78.7997 q 0.46853,-0.15434 0.66697,-0.429948 0.19844,-0.275608 0.20946,-0.733117 h -0.74965 z m 11.54246,0.110243 v 1.438674 h -5.42948 q 0.0882,-0.8158 0.52917,-1.543405 0.44097,-0.733117 1.74184,-1.940279 1.04731,-0.975652 1.28434,-1.322918 0.3197,-0.479558 0.3197,-0.948092 0,-0.518142 -0.28112,-0.79375 -0.27561,-0.28112 -0.76619,-0.28112 -0.48507,0 -0.7717,0.292144 -0.28663,0.292144 -0.33073,0.97014 l -1.5434,-0.154341 q 0.1378,-1.27882 0.8654,-1.835548 0.72761,-0.556728 1.81902,-0.556728 1.19614,0 1.87964,0.644922 0.68351,0.644923 0.68351,1.604038 0,0.545704 -0.19844,1.041798 -0.19292,0.490582 -0.61736,1.030774 -0.28112,0.35829 -1.01424,1.030773 -0.73311,0.672484 -0.93155,0.89297 -0.19293,0.220486 -0.31419,0.429948 z m 0.99218,-0.705556 1.4993,-0.181901 q 0.0717,0.573264 0.38585,0.876433 0.3142,0.303169 0.76068,0.303169 0.47956,0 0.80478,-0.363803 0.33073,-0.363802 0.33073,-0.981164 0,-0.584289 -0.3142,-0.926042 -0.31419,-0.341754 -0.76619,-0.341754 -0.29765,0 -0.71106,0.115755 l 0.17087,-1.262284 q 0.62839,0.01654 0.95912,-0.270096 0.33073,-0.292144 0.33073,-0.771702 0,-0.4079 -0.24254,-0.650435 -0.24253,-0.242535 -0.64492,-0.242535 -0.39688,0 -0.678,0.275608 -0.28112,0.275608 -0.34175,0.804775 l -1.42765,-0.242535 q 0.14883,-0.733117 0.44649,-1.168577 0.30317,-0.440973 0.83784,-0.68902 0.5402,-0.253559 1.20717,-0.253559 1.14101,0 1.83003,0.727605 0.56776,0.595313 0.56776,1.344966 0,1.063847 -1.16307,1.697745 0.69453,0.148828 1.10794,0.666971 0.41893,0.518143 0.41893,1.25126 0,1.063847 -0.77722,1.8135 -0.77721,0.749654 -1.93476,0.749654 -1.09692,0 -1.81902,-0.628386 -0.72209,-0.633898 -0.83784,-1.653648 z m 10.05419,-2.160766 v -1.548916 h 1.54891 v 1.548916 z m 0,2.756079 h 1.54891 v 1.107944 q 0,0.672483 -0.11575,1.058335 -0.11576,0.391363 -0.44097,0.700044 -0.31971,0.308681 -0.8158,0.48507 L 158.3558,78.7997 q 0.46853,-0.15434 0.66697,-0.429948 0.19844,-0.275608 0.20946,-0.733117 h -0.74965 z m 17.81528,0.110243 v 1.438674 h -5.42948 q 0.0882,-0.8158 0.52917,-1.543405 0.44097,-0.733117 1.74184,-1.940279 1.04731,-0.975652 1.28434,-1.322918 0.3197,-0.479558 0.3197,-0.948092 0,-0.518142 -0.28112,-0.79375 -0.27561,-0.28112 -0.76619,-0.28112 -0.48507,0 -0.7717,0.292144 -0.28663,0.292144 -0.33073,0.97014 l -1.54341,-0.154341 q 0.13781,-1.27882 0.86541,-1.835548 0.72761,-0.556728 1.81902,-0.556728 1.19613,0 1.87964,0.644922 0.68351,0.644923 0.68351,1.604038 0,0.545704 -0.19844,1.041798 -0.19292,0.490582 -0.61736,1.030774 -0.28112,0.35829 -1.01424,1.030773 -0.73311,0.672484 -0.93155,0.89297 -0.19293,0.220486 -0.3142,0.429948 z m 1.06936,-0.63941 1.5434,-0.159852 q 0.0661,0.523655 0.39137,0.832335 0.32522,0.303169 0.74965,0.303169 0.48507,0 0.82131,-0.391363 0.33624,-0.396875 0.33624,-1.190626 0,-0.744142 -0.33624,-1.113456 -0.33073,-0.374827 -0.86541,-0.374827 -0.66697,0 -1.19613,0.589801 l -1.25678,-0.181901 0.79375,-4.205777 h 4.09554 v 1.449697 h -2.92145 l -0.24253,1.372528 q 0.51814,-0.259072 1.05833,-0.259072 1.03078,0 1.74736,0.749654 0.71658,0.749654 0.71658,1.945792 0,0.997701 -0.57878,1.780427 -0.78824,1.069359 -2.18832,1.069359 -1.11897,0 -1.82453,-0.600825 -0.70556,-0.600826 -0.84336,-1.615063 z m 9.97701,-2.226912 v -1.548916 h 1.54891 v 1.548916 z m 0,2.756079 h 1.54891 v 1.107944 q 0,0.672483 -0.11575,1.058335 -0.11576,0.391363 -0.44098,0.700044 -0.3197,0.308681 -0.8158,0.48507 L 187.21745,78.7997 q 0.46853,-0.15434 0.66697,-0.429948 0.19843,-0.275608 0.20946,-0.733117 h -0.74965 z m 11.54247,0.110243 v 1.438674 h -5.42948 q 0.0882,-0.8158 0.52917,-1.543405 0.44097,-0.733117 1.74184,-1.940279 1.04731,-0.975652 1.28433,-1.322918 0.31971,-0.479558 0.31971,-0.948092 0,-0.518142 -0.28112,-0.79375 -0.27561,-0.28112 -0.76619,-0.28112 -0.48507,0 -0.7717,0.292144 -0.28664,0.292144 -0.33073,0.97014 l -1.54341,-0.154341 q 0.13781,-1.27882 0.86541,-1.835548 0.72761,-0.556728 1.81901,-0.556728 1.19614,0 1.87965,0.644922 0.68351,0.644923 0.68351,1.604038 0,0.545704 -0.19844,1.041798 -0.19293,0.490582 -0.61736,1.030774 -0.28112,0.35829 -1.01424,1.030773 -0.73312,0.672484 -0.93156,0.89297 -0.19292,0.220486 -0.31419,0.429948 z m 6.29488,-4.663286 -1.4993,0.165365 q -0.0551,-0.463021 -0.28664,-0.683507 -0.23151,-0.220487 -0.60082,-0.220487 -0.49058,0 -0.83234,0.440973 -0.33624,0.440973 -0.42443,1.835549 0.57877,-0.683508 1.43867,-0.683508 0.97014,0 1.65916,0.738629 0.69453,0.738629 0.69453,1.907207 0,1.240236 -0.7276,1.989889 -0.72761,0.749654 -1.86862,0.749654 -1.2237,0 -2.01194,-0.948091 -0.78824,-0.953604 -0.78824,-3.119882 0,-2.2214 0.82131,-3.202564 0.82131,-0.981164 2.13321,-0.981164 0.92053,0 1.52135,0.518143 0.60634,0.51263 0.7717,1.493794 z m -3.51124,3.378954 q 0,0.755165 0.34726,1.168577 0.34727,0.4079 0.79376,0.4079 0.42994,0 0.71658,-0.336242 0.28663,-0.336241 0.28663,-1.102431 0,-0.788239 -0.30868,-1.152042 -0.30868,-0.369314 -0.7717,-0.369314 -0.44649,0 -0.75517,0.352778 -0.30868,0.347266 -0.30868,1.030774 z m 8.26272,-1.58199 v -1.548916 h 1.54892 v 1.548916 z m 0,2.756079 h 1.54892 v 1.107944 q 0,0.672483 -0.11576,1.058335 -0.11575,0.391363 -0.44097,0.700044 -0.3197,0.308681 -0.8158,0.48507 L 209.80628,78.7997 q 0.46854,-0.15434 0.66697,-0.429948 0.19844,-0.275608 0.20947,-0.733117 h -0.74966 z m 11.54246,0.110243 v 1.438674 h -5.42948 q 0.0882,-0.8158 0.52917,-1.543405 0.44097,-0.733117 1.74184,-1.940279 1.04731,-0.975652 1.28433,-1.322918 0.31971,-0.479558 0.31971,-0.948092 0,-0.518142 -0.28112,-0.79375 -0.27561,-0.28112 -0.76619,-0.28112 -0.48507,0 -0.7717,0.292144 -0.28664,0.292144 -0.33073,0.97014 l -1.54341,-0.154341 q 0.13781,-1.27882 0.86541,-1.835548 0.72761,-0.556728 1.81901,-0.556728 1.19614,0 1.87965,0.644922 0.68351,0.644923 0.68351,1.604038 0,0.545704 -0.19844,1.041798 -0.19293,0.490582 -0.61736,1.030774 -0.28112,0.35829 -1.01424,1.030773 -0.73312,0.672484 -0.93155,0.89297 -0.19293,0.220486 -0.3142,0.429948 z m 2.37574,-2.921443 q -0.60083,-0.25356 -0.87643,-0.694532 -0.2701,-0.446485 -0.2701,-0.975652 0,-0.903994 0.62839,-1.493795 0.6339,-0.589801 1.79696,-0.589801 1.15204,0 1.78594,0.589801 0.63941,0.589801 0.63941,1.493795 0,0.56224 -0.29214,1.003212 -0.29215,0.435461 -0.82132,0.666972 0.67249,0.270095 1.01975,0.788238 0.35278,0.518143 0.35278,1.196139 0,1.118968 -0.71658,1.819012 -0.71107,0.700044 -1.89618,0.700044 -1.10243,0 -1.83555,-0.578777 -0.86541,-0.683507 -0.86541,-1.874134 0,-0.655946 0.32522,-1.20165 0.32522,-0.551216 1.02526,-0.848872 z m 0.31971,-1.559941 q 0,0.463021 0.25907,0.722092 0.26458,0.259072 0.70004,0.259072 0.44097,0 0.70556,-0.259072 0.26458,-0.264583 0.26458,-0.727604 0,-0.435461 -0.26458,-0.694532 -0.25907,-0.264584 -0.68902,-0.264584 -0.44649,0 -0.71107,0.264584 -0.26458,0.264583 -0.26458,0.700044 z m -0.14332,3.461635 q 0,0.639411 0.32522,0.997701 0.33073,0.35829 0.82131,0.35829 0.47956,0 0.79375,-0.341754 0.31419,-0.347266 0.31419,-0.9977 0,-0.567753 -0.3197,-0.909506 -0.31971,-0.347266 -0.81029,-0.347266 -0.56775,0 -0.84887,0.391363 -0.27561,0.391363 -0.27561,0.848872 z m 14.76708,-1.846573 v -1.548916 h 1.54891 v 1.548916 z m 0,2.756079 h 1.54891 v 1.107944 q 0,0.672483 -0.11575,1.058335 -0.11576,0.391363 -0.44098,0.700044 -0.3197,0.308681 -0.8158,0.48507 L 238.66795,78.7997 q 0.46853,-0.15434 0.66697,-0.429948 0.19843,-0.275608 0.20946,-0.733117 h -0.74965 z m 11.54245,0.110243 v 1.438674 h -5.42947 q 0.0882,-0.8158 0.52916,-1.543405 0.44098,-0.733117 1.74184,-1.940279 1.04731,-0.975652 1.28434,-1.322918 0.3197,-0.479558 0.3197,-0.948092 0,-0.518142 -0.28112,-0.79375 -0.27561,-0.28112 -0.76619,-0.28112 -0.48507,0 -0.7717,0.292144 -0.28663,0.292144 -0.33073,0.97014 l -1.5434,-0.154341 q 0.1378,-1.27882 0.86541,-1.835548 0.7276,-0.556728 1.81901,-0.556728 1.19614,0 1.87964,0.644922 0.68351,0.644923 0.68351,1.604038 0,0.545704 -0.19844,1.041798 -0.19292,0.490582 -0.61736,1.030774 -0.28112,0.35829 -1.01424,1.030773 -0.73311,0.672484 -0.93155,0.89297 -0.19293,0.220486 -0.31419,0.429948 z m 1.08039,-0.429948 1.4993,-0.165365 q 0.0551,0.45751 0.28664,0.677996 0.23151,0.220486 0.61185,0.220486 0.47955,0 0.8158,-0.440972 0.33624,-0.440973 0.42994,-1.830037 -0.58429,0.677995 -1.46072,0.677995 -0.9536,0 -1.64813,-0.733117 -0.68902,-0.738629 -0.68902,-1.918231 0,-1.229211 0.7276,-1.978865 0.73312,-0.755165 1.86311,-0.755165 1.22921,0 2.01745,0.953603 0.78824,0.948091 0.78824,3.125394 0,2.215888 -0.82131,3.197052 -0.82131,0.981164 -2.13872,0.981164 -0.94809,0 -1.53238,-0.501606 -0.58429,-0.507119 -0.74965,-1.510332 z m 3.50573,-3.384465 q 0,-0.749654 -0.34727,-1.163066 -0.34175,-0.413411 -0.79375,-0.413411 -0.42995,0 -0.71658,0.341753 -0.28112,0.336242 -0.28112,1.107944 0,0.782727 0.30868,1.152041 0.30868,0.363803 0.77171,0.363803 0.44648,0 0.74965,-0.352778 0.30868,-0.352778 0.30868,-1.036286 z m 6.46025,0.948091 v -1.548916 h 1.54891 v 1.548916 z m 0,2.756079 h 1.54891 v 1.107944 q 0,0.672483 -0.11575,1.058335 -0.11576,0.391363 -0.44097,0.700044 -0.31971,0.308681 -0.8158,0.48507 L 261.25677,78.7997 q 0.46853,-0.15434 0.66697,-0.429948 0.19844,-0.275608 0.20946,-0.733117 h -0.74965 z m 6.25629,-0.595313 1.49931,-0.181901 q 0.0717,0.573264 0.38585,0.876433 0.31419,0.303169 0.76068,0.303169 0.47956,0 0.80477,-0.363803 0.33073,-0.363802 0.33073,-0.981164 0,-0.584289 -0.31419,-0.926042 -0.31419,-0.341754 -0.76619,-0.341754 -0.29766,0 -0.71107,0.115755 l 0.17088,-1.262284 q 0.62838,0.01654 0.95911,-0.270096 0.33073,-0.292144 0.33073,-0.771702 0,-0.4079 -0.24253,-0.650435 -0.24254,-0.242535 -0.64492,-0.242535 -0.39688,0 -0.678,0.275608 -0.28112,0.275608 -0.34175,0.804775 l -1.42765,-0.242535 q 0.14883,-0.733117 0.44648,-1.168577 0.30317,-0.440973 0.83785,-0.68902 0.54019,-0.253559 1.20716,-0.253559 1.14102,0 1.83004,0.727605 0.56775,0.595313 0.56775,1.344966 0,1.063847 -1.16306,1.697745 0.69453,0.148828 1.10794,0.666971 0.41893,0.518143 0.41893,1.25126 0,1.063847 -0.77722,1.8135 -0.77721,0.749654 -1.93477,0.749654 -1.09692,0 -1.81901,-0.628386 -0.72209,-0.633898 -0.83785,-1.653648 z m 8.95174,-5.969667 q 1.17408,0 1.83554,0.837848 0.78824,0.992188 0.78824,3.290758 0,2.293058 -0.79375,3.296271 -0.65595,0.826824 -1.83003,0.826824 -1.17961,0 -1.9017,-0.903994 -0.72209,-0.909506 -0.72209,-3.235637 0,-2.282034 0.79375,-3.285247 0.65595,-0.826823 1.83004,-0.826823 z m 0,1.284333 q -0.28112,0 -0.50161,0.181901 -0.22049,0.176389 -0.34176,0.63941 -0.15985,0.600825 -0.15985,2.022962 0,1.422137 0.14332,1.956817 0.14331,0.529167 0.35829,0.705556 0.22049,0.176389 0.50161,0.176389 0.28112,0 0.5016,-0.176389 0.22049,-0.181901 0.34176,-0.644923 0.15985,-0.595313 0.15985,-2.01745 0,-1.422137 -0.14332,-1.951304 -0.14331,-0.534679 -0.3638,-0.711068 -0.21497,-0.181901 -0.49609,-0.181901 z m 12.40789,-1.25126 v 10.357345 h -2.74506 v -1.218187 h 1.27331 v -7.931996 h -1.27331 v -1.207162 z"
         id="path3" /></g></g></svg>
