<?xml version="1.0" encoding="UTF-8" standalone="no"?>
<!-- Created with Inkscape (http://www.inkscape.org/) -->

<svg
   width="290mm"
   height="130mm"
   viewBox="0 0 289.99999 130"
   version="1.1"
   id="svg1"
   xml:space="preserve"
   inkscape:version="1.3.2 (091e20e, 2023-11-25, custom)"
   sodipodi:docname="constraint_penalization1.svg"
   inkscape:export-filename="constraint_penalization.png"
   inkscape:export-xdpi="200"
   inkscape:export-ydpi="200"
   xmlns:inkscape="http://www.inkscape.org/namespaces/inkscape"
   xmlns:sodipodi="http://sodipodi.sourceforge.net/DTD/sodipodi-0.dtd"
   xmlns="http://www.w3.org/2000/svg"
   xmlns:svg="http://www.w3.org/2000/svg"><sodipodi:namedview
     id="namedview1"
     pagecolor="#ffffff"
     bordercolor="#000000"
     borderopacity="0.25"
     inkscape:showpageshadow="2"
     inkscape:pageopacity="0.0"
     inkscape:pagecheckerboard="0"
     inkscape:deskcolor="#d1d1d1"
     inkscape:document-units="mm"
     inkscape:zoom="0.72426347"
     inkscape:cx="542.62022"
     inkscape:cy="178.80234"
     inkscape:window-width="1920"
     inkscape:window-height="1009"
     inkscape:window-x="3832"
     inkscape:window-y="-8"
     inkscape:window-maximized="1"
     inkscape:current-layer="layer1" /><defs
     id="defs1"><clipPath
       clipPathUnits="userSpaceOnUse"
       id="clipEmfPath1"><path
         d="M 0,0 H 54.765354 V 24.948661 H 0 Z"
         id="path1-9" /></clipPath><pattern
       id="EMFhbasepattern"
       patternUnits="userSpaceOnUse"
       width="6"
       height="6"
       x="0"
       y="0" /></defs><g
     inkscape:label="Layer 1"
     inkscape:groupmode="layer"
     id="layer1"
     transform="translate(-7.2622342,-29.22909)"><path
       style="font-weight:bold;font-size:9.87778px;font-family:Arial;-inkscape-font-specification:'Arial Bold';text-align:center;text-anchor:middle;fill:#ff8c00;stroke-width:0.264583"
       d="m 55.121094,112.16459 v -7.07072 h 2.290989 q 1.302246,0 1.697743,0.10611 0.607715,0.15917 1.017682,0.69453 0.409966,0.53055 0.409966,1.3746 0,0.65112 -0.236333,1.09485 -0.236334,0.44373 -0.602892,0.69935 -0.361735,0.25081 -0.73794,0.3328 -0.511252,0.10129 -1.480702,0.10129 h -0.930865 v 2.66719 z m 1.427648,-5.87458 v 2.00642 h 0.781348 q 0.844048,0 1.128613,-0.11093 0.284565,-0.11093 0.443729,-0.34726 0.163986,-0.23634 0.163986,-0.54984 0,-0.38585 -0.226687,-0.63665 -0.226687,-0.25081 -0.573953,-0.31351 -0.255626,-0.0482 -1.027328,-0.0482 z m 8.117336,4.24436 1.350478,0.22669 q -0.26045,0.74276 -0.824756,1.13343 -0.559484,0.38585 -1.403533,0.38585 -1.336008,0 -1.977485,-0.87298 -0.506429,-0.69936 -0.506429,-1.76527 0,-1.27331 0.665593,-1.99196 0.665592,-0.72347 1.683274,-0.72347 1.143082,0 1.803852,0.75724 0.660769,0.75241 0.631831,2.31028 h -3.395487 q 0.01447,0.60289 0.327973,0.94051 0.313504,0.3328 0.781348,0.3328 0.318327,0 0.535368,-0.17364 0.217041,-0.17363 0.327973,-0.55948 z m 0.07717,-1.36977 q -0.01447,-0.58842 -0.303857,-0.89228 -0.289389,-0.30868 -0.704178,-0.30868 -0.443729,0 -0.733117,0.32315 -0.289388,0.32315 -0.284565,0.87781 z m 7.109301,2.99999 h -1.355301 v -2.61414 q 0,-0.82958 -0.08682,-1.07074 -0.08682,-0.24598 -0.284565,-0.38102 -0.192926,-0.13505 -0.467844,-0.13505 -0.352089,0 -0.631831,0.19292 -0.279742,0.19293 -0.385851,0.51126 -0.101286,0.31832 -0.101286,1.17684 v 2.31993 h -1.355301 v -5.12217 h 1.258839 v 0.75241 q 0.670415,-0.86817 1.688097,-0.86817 0.448551,0 0.819933,0.16399 0.371381,0.15916 0.559483,0.40997 0.192926,0.2508 0.265273,0.56913 0.07717,0.31832 0.07717,0.91157 z M 74.24,108.60512 73.010101,108.38325 q 0.207394,-0.74276 0.713824,-1.09967 0.506429,-0.35692 1.504818,-0.35692 0.906749,0 1.350477,0.21705 0.443729,0.21221 0.622185,0.54501 0.183279,0.32797 0.183279,1.21061 l -0.01447,1.58198 q 0,0.67524 0.0627,0.99839 0.06752,0.31833 0.24598,0.68489 h -1.340831 q -0.05306,-0.13505 -0.130225,-0.40032 -0.03376,-0.12058 -0.04823,-0.15916 -0.347266,0.33761 -0.742763,0.50642 -0.395497,0.16881 -0.844049,0.16881 -0.790994,0 -1.249192,-0.42925 -0.453374,-0.42926 -0.453374,-1.08521 0,-0.43408 0.207395,-0.7717 0.207394,-0.34244 0.578776,-0.5209 0.376204,-0.18328 1.080382,-0.31833 0.950157,-0.17845 1.316716,-0.33279 v -0.13505 q 0,-0.39068 -0.192926,-0.55466 -0.192925,-0.16881 -0.728293,-0.16881 -0.361735,0 -0.564307,0.14469 -0.202571,0.13987 -0.327973,0.49679 z m 1.813499,1.09967 q -0.26045,0.0868 -0.824756,0.2074 -0.564307,0.12057 -0.73794,0.23633 -0.265272,0.1881 -0.265272,0.47749 0,0.28456 0.212218,0.49196 0.212217,0.20739 0.540191,0.20739 0.366558,0 0.699354,-0.24115 0.24598,-0.18328 0.32315,-0.44855 0.05306,-0.17364 0.05306,-0.66077 z m 2.667194,2.4598 v -7.07072 h 1.355301 v 7.07072 z m 2.744362,-5.8167 v -1.25402 h 1.355301 v 1.25402 z m 0,5.8167 v -5.12217 h 1.355301 v 5.12217 z m 2.199351,0 v -1.05627 l 1.919608,-2.20417 q 0.472667,-0.54019 0.699355,-0.76688 -0.236334,0.0145 -0.622185,0.0193 l -1.808675,0.01 v -1.12379 h 4.234712 v 0.9598 l -1.958193,2.25723 -0.689708,0.74759 q 0.564307,-0.0338 0.699354,-0.0338 h 2.098064 v 1.19132 z m 8.450131,-1.63022 1.350478,0.22669 q -0.26045,0.74276 -0.824756,1.13343 -0.559484,0.38585 -1.403533,0.38585 -1.336008,0 -1.977485,-0.87298 -0.506429,-0.69936 -0.506429,-1.76527 0,-1.27331 0.665593,-1.99196 0.665592,-0.72347 1.683274,-0.72347 1.143083,0 1.803852,0.75724 0.66077,0.75241 0.631831,2.31028 h -3.395487 q 0.01447,0.60289 0.327973,0.94051 0.313504,0.3328 0.781348,0.3328 0.318327,0 0.535368,-0.17364 0.217041,-0.17363 0.327973,-0.55948 z m 0.07717,-1.36977 q -0.01447,-0.58842 -0.303857,-0.89228 -0.289388,-0.30868 -0.704178,-0.30868 -0.443728,0 -0.733117,0.32315 -0.289388,0.32315 -0.284564,0.87781 z m 6.067505,-0.81511 Q 97.73349,108.12763 97.492333,107.74177 97.256,107.3511 97.256,106.88808 q 0,-0.79099 0.549837,-1.30707 0.55466,-0.51608 1.572342,-0.51608 1.008031,0 1.562691,0.51608 0.55949,0.51608 0.55949,1.30707 0,0.49196 -0.25563,0.87781 -0.25562,0.38103 -0.71865,0.5836 0.58843,0.23633 0.89228,0.68971 0.30869,0.45337 0.30869,1.04662 0,0.97909 -0.62701,1.59163 -0.62219,0.61254 -1.65916,0.61254 -0.964627,0 -1.606104,-0.50643 -0.757232,-0.59807 -0.757232,-1.63986 0,-0.57396 0.284564,-1.05145 0.284565,-0.48231 0.897104,-0.74276 z m 0.279741,-1.36495 q 0,0.40515 0.226688,0.63183 0.23151,0.22669 0.612538,0.22669 0.385851,0 0.617361,-0.22669 0.23151,-0.23151 0.23151,-0.63665 0,-0.38103 -0.23151,-0.60772 -0.226687,-0.23151 -0.602892,-0.23151 -0.390674,0 -0.622184,0.23151 -0.231511,0.23151 -0.231511,0.61254 z m -0.125401,3.02893 q 0,0.55948 0.284565,0.87299 0.289388,0.3135 0.718647,0.3135 0.419613,0 0.694536,-0.29903 0.27491,-0.30386 0.27491,-0.87299 0,-0.49678 -0.27974,-0.79582 -0.27974,-0.30385 -0.708999,-0.30385 -0.496783,0 -0.742762,0.34244 -0.241157,0.34244 -0.241157,0.74276 z m 6.467818,-4.94854 q 1.02733,0 1.60611,0.73312 0.68971,0.86817 0.68971,2.87941 0,2.00643 -0.69453,2.88424 -0.57396,0.72347 -1.60129,0.72347 -1.03215,0 -1.66398,-0.791 -0.63183,-0.79581 -0.63183,-2.83118 0,-1.99677 0.69453,-2.87459 0.57396,-0.72347 1.60128,-0.72347 z m 0,1.12379 q -0.24598,0 -0.4389,0.15917 -0.19293,0.15434 -0.29904,0.55948 -0.13987,0.52572 -0.13987,1.77009 0,1.24437 0.12541,1.71222 0.1254,0.46302 0.3135,0.61736 0.19292,0.15434 0.4389,0.15434 0.24598,0 0.43891,-0.15434 0.19293,-0.15917 0.29903,-0.56431 0.13987,-0.5209 0.13987,-1.76527 0,-1.24437 -0.1254,-1.70739 -0.1254,-0.46784 -0.31832,-0.62218 -0.18811,-0.15917 -0.43409,-0.15917 z m 3.21221,0.65113 q 0,-0.95016 0.41479,-1.40836 0.41961,-0.45819 1.13344,-0.45819 0.73794,0 1.15273,0.45819 0.41961,0.45338 0.41961,1.40836 0,0.95016 -0.41961,1.40835 -0.41479,0.4582 -1.12862,0.4582 -0.73794,0 -1.15755,-0.45337 -0.41479,-0.4582 -0.41479,-1.41318 z m 1.05627,-0.01 q 0,0.68971 0.15916,0.92604 0.12058,0.17364 0.3328,0.17364 0.21704,0 0.33762,-0.17364 0.15434,-0.23633 0.15434,-0.92604 0,-0.68971 -0.15434,-0.92122 -0.12058,-0.17845 -0.33762,-0.17845 -0.21222,0 -0.3328,0.17363 -0.15916,0.23633 -0.15916,0.92604 z m 1.52411,5.60448 h -1.00321 l 3.76686,-7.46138 h 0.97428 z m 2.1897,-1.8569 q 0,-0.95016 0.41479,-1.40836 0.41961,-0.4582 1.14308,-0.4582 0.7283,0 1.14309,0.4582 0.41961,0.4582 0.41961,1.40836 0,0.95498 -0.41961,1.41318 -0.41479,0.45819 -1.12862,0.45819 -0.73794,0 -1.15755,-0.45819 -0.41479,-0.4582 -0.41479,-1.41318 z m 1.05627,-0.005 q 0,0.68971 0.15916,0.92122 0.12058,0.17846 0.3328,0.17846 0.21704,0 0.33279,-0.17363 0.15917,-0.23634 0.15917,-0.92605 0,-0.6897 -0.15434,-0.92604 -0.12058,-0.17363 -0.33762,-0.17363 -0.21704,0 -0.3328,0.17363 -0.15916,0.23634 -0.15916,0.92604 z m 5.98069,1.59164 v -7.07072 h 1.3553 v 7.07072 z m 2.43086,-2.63343 q 0,-0.67524 0.33279,-1.30707 0.3328,-0.63183 0.94051,-0.96463 0.61254,-0.3328 1.36495,-0.3328 1.16238,0 1.90514,0.75724 0.74276,0.75241 0.74276,1.90513 0,1.16238 -0.75241,1.92926 -0.74758,0.76205 -1.88584,0.76205 -0.70418,0 -1.34566,-0.31832 -0.63665,-0.31833 -0.96945,-0.93087 -0.33279,-0.61736 -0.33279,-1.49999 z m 1.38906,0.0723 q 0,0.76206 0.36173,1.1672 0.36174,0.40515 0.89228,0.40515 0.53055,0 0.88746,-0.40515 0.36173,-0.40514 0.36173,-1.17684 0,-0.75241 -0.36173,-1.15755 -0.35691,-0.40515 -0.88746,-0.40515 -0.53054,0 -0.89228,0.40515 -0.36173,0.40514 -0.36173,1.16719 z m 5.91316,2.56109 -1.62057,-5.12217 h 1.31672 l 0.9598,3.3569 0.88263,-3.3569 h 1.30707 l 0.8537,3.3569 0.9791,-3.3569 h 1.336 l -1.64469,5.12217 h -1.30224 l -0.88264,-3.2942 -0.86816,3.2942 z m 9.6945,-1.63022 1.35048,0.22669 q -0.26045,0.74276 -0.82476,1.13343 -0.55948,0.38585 -1.40353,0.38585 -1.33601,0 -1.97748,-0.87298 -0.50643,-0.69936 -0.50643,-1.76527 0,-1.27331 0.66559,-1.99196 0.66559,-0.72347 1.68327,-0.72347 1.14309,0 1.80386,0.75724 0.66077,0.75241 0.63183,2.31028 h -3.39549 q 0.0145,0.60289 0.32797,0.94051 0.31351,0.3328 0.78135,0.3328 0.31833,0 0.53537,-0.17364 0.21704,-0.17363 0.32797,-0.55948 z m 0.0772,-1.36977 q -0.0145,-0.58842 -0.30386,-0.89228 -0.28938,-0.30868 -0.70417,-0.30868 -0.44373,0 -0.73312,0.32315 -0.28939,0.32315 -0.28456,0.87781 z m 3.74758,2.99999 h -1.3553 v -5.12217 h 1.25884 v 0.72829 q 0.32315,-0.51607 0.57877,-0.68006 0.26045,-0.16399 0.58843,-0.16399 0.46302,0 0.89228,0.25563 l -0.41962,1.18167 q -0.34244,-0.22187 -0.63665,-0.22187 -0.28457,0 -0.48231,0.15917 -0.19775,0.15434 -0.31351,0.5643 -0.11093,0.40997 -0.11093,1.71704 z m 9.98871,0 h -1.25884 v -0.75241 q -0.3135,0.43891 -0.74276,0.65595 -0.42443,0.21221 -0.85852,0.21221 -0.88263,0 -1.51446,-0.709 -0.62701,-0.71382 -0.62701,-1.98713 0,-1.30224 0.61254,-1.97748 0.61254,-0.68007 1.54823,-0.68007 0.85851,0 1.48552,0.71383 v -2.54662 h 1.3553 z m -3.61735,-2.67202 q 0,0.81994 0.22669,1.18649 0.32797,0.53055 0.91639,0.53055 0.46785,0 0.79582,-0.3955 0.32797,-0.40032 0.32797,-1.19131 0,-0.88264 -0.31832,-1.26849 -0.31833,-0.39067 -0.81511,-0.39067 -0.48232,0 -0.81029,0.38585 -0.32315,0.38103 -0.32315,1.14308 z m 4.63985,0.0386 q 0,-0.67524 0.3328,-1.30707 0.3328,-0.63183 0.94051,-0.96463 0.61254,-0.3328 1.36495,-0.3328 1.16237,0 1.90514,0.75724 0.74276,0.75241 0.74276,1.90513 0,1.16238 -0.75241,1.92926 -0.74759,0.76205 -1.88585,0.76205 -0.70417,0 -1.34565,-0.31832 -0.63665,-0.31833 -0.96945,-0.93087 -0.3328,-0.61736 -0.3328,-1.49999 z m 1.38907,0.0723 q 0,0.76206 0.36173,1.1672 0.36174,0.40515 0.89228,0.40515 0.53055,0 0.88746,-0.40515 0.36173,-0.40514 0.36173,-1.17684 0,-0.75241 -0.36173,-1.15755 -0.35691,-0.40515 -0.88746,-0.40515 -0.53054,0 -0.89228,0.40515 -0.36173,0.40514 -0.36173,1.16719 z m 4.48069,1.09968 1.36012,-0.2074 q 0.0868,0.3955 0.35209,0.6029 0.26528,0.20257 0.74277,0.20257 0.52572,0 0.79099,-0.19293 0.17846,-0.13505 0.17846,-0.36173 0,-0.15434 -0.0965,-0.25563 -0.10128,-0.0965 -0.45337,-0.17845 -1.63987,-0.36174 -2.07877,-0.66077 -0.60772,-0.41479 -0.60772,-1.15273 0,-0.6656 0.52572,-1.11897 0.52573,-0.45338 1.63022,-0.45338 1.05145,0 1.5627,0.34245 0.51125,0.34244 0.70418,1.01286 l -1.27813,0.23633 q -0.082,-0.29904 -0.31351,-0.4582 -0.22668,-0.15916 -0.65112,-0.15916 -0.53537,0 -0.76688,0.14951 -0.15434,0.10611 -0.15434,0.27492 0,0.1447 0.13505,0.24598 0.18328,0.13505 1.26366,0.38103 1.08521,0.24598 1.51446,0.60289 0.42444,0.36174 0.42444,1.00804 0,0.70418 -0.58842,1.21061 -0.58842,0.50642 -1.74115,0.50642 -1.04662,0 -1.65916,-0.42443 -0.60772,-0.42444 -0.79582,-1.15273 z m 8.93727,-0.16881 1.35048,0.22669 q -0.26045,0.74276 -0.82476,1.13343 -0.55948,0.38585 -1.40353,0.38585 -1.33601,0 -1.97748,-0.87298 -0.50643,-0.69936 -0.50643,-1.76527 0,-1.27331 0.66559,-1.99196 0.66559,-0.72347 1.68327,-0.72347 1.14309,0 1.80386,0.75724 0.66077,0.75241 0.63183,2.31028 h -3.39549 q 0.0145,0.60289 0.32797,0.94051 0.31351,0.3328 0.78135,0.3328 0.31833,0 0.53537,-0.17364 0.21704,-0.17363 0.32797,-0.55948 z m 0.0772,-1.36977 q -0.0145,-0.58842 -0.30386,-0.89228 -0.28938,-0.30868 -0.70417,-0.30868 -0.44373,0 -0.73312,0.32315 -0.28939,0.32315 -0.28456,0.87781 z m 6.60287,2.99999 -2.0643,-5.12217 h 1.42282 l 0.96463,2.61414 0.27974,0.87299 q 0.11093,-0.3328 0.13987,-0.43891 0.0675,-0.21704 0.14469,-0.43408 l 0.97428,-2.61414 h 1.39388 l -2.03536,5.12217 z m 3.77169,-2.63343 q 0,-0.67524 0.3328,-1.30707 0.33279,-0.63183 0.94051,-0.96463 0.61254,-0.3328 1.36495,-0.3328 1.16237,0 1.90513,0.75724 0.74277,0.75241 0.74277,1.90513 0,1.16238 -0.75241,1.92926 -0.74759,0.76205 -1.88585,0.76205 -0.70418,0 -1.34565,-0.31832 -0.63666,-0.31833 -0.96945,-0.93087 -0.3328,-0.61736 -0.3328,-1.49999 z m 1.38906,0.0723 q 0,0.76206 0.36174,1.1672 0.36173,0.40515 0.89228,0.40515 0.53054,0 0.88746,-0.40515 0.36173,-0.40514 0.36173,-1.17684 0,-0.75241 -0.36173,-1.15755 -0.35692,-0.40515 -0.88746,-0.40515 -0.53055,0 -0.89228,0.40515 -0.36174,0.40514 -0.36174,1.16719 z m 4.30707,2.56109 1.84726,-2.63826 -1.77009,-2.48391 h 1.65433 l 0.90675,1.40836 0.95498,-1.40836 h 1.59164 l -1.73633,2.42604 1.89549,2.69613 h -1.66398 l -1.0418,-1.58681 -1.05144,1.58681 z m 9.11089,-1.63022 1.35048,0.22669 q -0.26045,0.74276 -0.82476,1.13343 -0.55948,0.38585 -1.40353,0.38585 -1.33601,0 -1.97748,-0.87298 -0.50643,-0.69936 -0.50643,-1.76527 0,-1.27331 0.66559,-1.99196 0.66559,-0.72347 1.68327,-0.72347 1.14309,0 1.80386,0.75724 0.66077,0.75241 0.63183,2.31028 h -3.39549 q 0.0145,0.60289 0.32797,0.94051 0.31351,0.3328 0.78135,0.3328 0.31833,0 0.53537,-0.17364 0.21704,-0.17363 0.32797,-0.55948 z m 0.0772,-1.36977 q -0.0145,-0.58842 -0.30385,-0.89228 -0.28939,-0.30868 -0.70418,-0.30868 -0.44373,0 -0.73312,0.32315 -0.28939,0.32315 -0.28456,0.87781 z m 2.45015,2.99999 v -7.07072 h 1.3553 v 7.07072 z m 2.26688,-1.46141 1.36012,-0.2074 q 0.0868,0.3955 0.35209,0.6029 0.26528,0.20257 0.74277,0.20257 0.52572,0 0.79099,-0.19293 0.17846,-0.13505 0.17846,-0.36173 0,-0.15434 -0.0965,-0.25563 -0.10128,-0.0965 -0.45337,-0.17845 -1.63987,-0.36174 -2.07877,-0.66077 -0.60772,-0.41479 -0.60772,-1.15273 0,-0.6656 0.52572,-1.11897 0.52573,-0.45338 1.63022,-0.45338 1.05145,0 1.5627,0.34245 0.51125,0.34244 0.70418,1.01286 l -1.27813,0.23633 q -0.082,-0.29904 -0.31351,-0.4582 -0.22669,-0.15916 -0.65112,-0.15916 -0.53537,0 -0.76688,0.14951 -0.15434,0.10611 -0.15434,0.27492 0,0.1447 0.13505,0.24598 0.18328,0.13505 1.26366,0.38103 1.0852,0.24598 1.51446,0.60289 0.42444,0.36174 0.42444,1.00804 0,0.70418 -0.58842,1.21061 -0.58843,0.50642 -1.74115,0.50642 -1.04662,0 -1.65916,-0.42443 -0.60772,-0.42444 -0.79582,-1.15273 z"
       id="text21-9"
       aria-label="Penalize 80% lower dose voxels" /><rect
       style="fill:none;fill-opacity:1;stroke:#ff8c00;stroke-width:2.5;stroke-linejoin:round;stroke-dasharray:none;stroke-opacity:1;paint-order:stroke markers fill"
       id="rect12"
       width="177.5"
       height="14"
       x="54.234562"
       y="66.873863"
       ry="7"
       rx="7" /><g
       id="path19"><path
         style="color:#000000;fill:#ff8c00;stroke-linejoin:round;-inkscape-stroke:none;paint-order:stroke markers fill"
         d="m 128.46484,84.623047 v 17.708983 h 2 V 84.623047 Z"
         id="path3" /><g
         id="g2"><path
           style="color:#000000;fill:#ff8c00;stroke-linecap:round;-inkscape-stroke:none"
           d="m 129.46484,82.708984 -6.70703,6.707032 a 1,1 0 0 0 0,1.414062 1,1 0 0 0 1.41407,0 l 5.29296,-5.292969 5.29297,5.292969 a 1,1 0 0 0 1.41406,0 1,1 0 0 0 0,-1.414062 z"
           id="path2" /></g><path
         style="color:#000000;fill:#156082;stroke-linejoin:round;-inkscape-stroke:none;paint-order:stroke markers fill"
         d="M 129.46489,102.33219 V 84.623861"
         id="path4" /></g></g></svg>
