<?xml version="1.0" encoding="UTF-8" standalone="no"?>
<!-- Created with Inkscape (http://www.inkscape.org/) -->

<svg
   width="290mm"
   height="130mm"
   viewBox="0 0 289.99999 130"
   version="1.1"
   id="svg1"
   xml:space="preserve"
   inkscape:version="1.3.2 (091e20e, 2023-11-25, custom)"
   sodipodi:docname="constraint_penalization2.svg"
   inkscape:export-filename="constraint_penalization.png"
   inkscape:export-xdpi="200"
   inkscape:export-ydpi="200"
   xmlns:inkscape="http://www.inkscape.org/namespaces/inkscape"
   xmlns:sodipodi="http://sodipodi.sourceforge.net/DTD/sodipodi-0.dtd"
   xmlns="http://www.w3.org/2000/svg"
   xmlns:svg="http://www.w3.org/2000/svg"><sodipodi:namedview
     id="namedview1"
     pagecolor="#ffffff"
     bordercolor="#000000"
     borderopacity="0.25"
     inkscape:showpageshadow="2"
     inkscape:pageopacity="0.0"
     inkscape:pagecheckerboard="0"
     inkscape:deskcolor="#d1d1d1"
     inkscape:document-units="mm"
     inkscape:zoom="1.4485269"
     inkscape:cx="814.6207"
     inkscape:cy="56.954413"
     inkscape:window-width="1920"
     inkscape:window-height="1009"
     inkscape:window-x="3832"
     inkscape:window-y="-8"
     inkscape:window-maximized="1"
     inkscape:current-layer="layer1" /><defs
     id="defs1"><clipPath
       clipPathUnits="userSpaceOnUse"
       id="clipEmfPath1"><path
         d="M 0,0 H 54.765354 V 24.948661 H 0 Z"
         id="path1-9" /></clipPath><pattern
       id="EMFhbasepattern"
       patternUnits="userSpaceOnUse"
       width="6"
       height="6"
       x="0"
       y="0" /></defs><g
     inkscape:label="Layer 1"
     inkscape:groupmode="layer"
     id="layer1"
     transform="translate(-7.2622342,-29.22909)"><path
       style="font-weight:bold;font-size:9.87778px;font-family:Arial;-inkscape-font-specification:'Arial Bold';text-align:center;text-anchor:middle;fill:#028102;stroke-width:0.264583"
       d="m 128.95867,40.173714 v -7.070716 h 2.29099 q 1.30225,0 1.69775,0.106109 0.60771,0.159164 1.01768,0.694532 0.40996,0.530544 0.40996,1.374593 0,0.651123 -0.23633,1.094852 -0.23633,0.443728 -0.60289,0.699354 -0.36174,0.250803 -0.73794,0.332796 -0.51125,0.101286 -1.4807,0.101286 h -0.93087 v 2.667194 z m 1.42765,-5.874578 v 2.006424 h 0.78135 q 0.84405,0 1.12861,-0.110932 0.28457,-0.110933 0.44373,-0.347266 0.16399,-0.236334 0.16399,-0.549838 0,-0.38585 -0.22669,-0.636653 -0.22669,-0.250803 -0.57395,-0.313504 -0.25563,-0.04823 -1.02733,-0.04823 z m 8.11734,4.244358 1.35048,0.226687 q -0.26045,0.742763 -0.82476,1.133437 -0.55948,0.385851 -1.40353,0.385851 -1.33601,0 -1.97749,-0.872987 -0.50643,-0.699355 -0.50643,-1.765268 0,-1.273307 0.6656,-1.991954 0.66559,-0.723471 1.68327,-0.723471 1.14308,0 1.80385,0.757233 0.66077,0.752409 0.63183,2.310281 H 136.531 q 0.0145,0.602892 0.32797,0.940511 0.3135,0.332797 0.78135,0.332797 0.31832,0 0.53536,-0.173633 0.21705,-0.173633 0.32798,-0.559484 z m 0.0772,-1.36977 q -0.0145,-0.588423 -0.30386,-0.89228 -0.28939,-0.308681 -0.70418,-0.308681 -0.44373,0 -0.73311,0.32315 -0.28939,0.32315 -0.28457,0.877811 z m 7.1093,2.99999 h -1.3553 v -2.614139 q 0,-0.82958 -0.0868,-1.070736 -0.0868,-0.24598 -0.28456,-0.381028 -0.19293,-0.135048 -0.46785,-0.135048 -0.35209,0 -0.63183,0.192926 -0.27974,0.192925 -0.38585,0.511252 -0.10128,0.318327 -0.10128,1.176845 v 2.319928 h -1.35531 v -5.122169 h 1.25884 v 0.752409 q 0.67042,-0.868165 1.6881,-0.868165 0.44855,0 0.81993,0.163987 0.37138,0.159163 0.55949,0.409966 0.19292,0.250803 0.26527,0.56913 0.0772,0.318327 0.0772,0.911573 z m 2.38745,-3.559474 -1.2299,-0.221864 q 0.2074,-0.742763 0.71382,-1.099675 0.50643,-0.356912 1.50482,-0.356912 0.90675,0 1.35048,0.217041 0.44373,0.212218 0.62218,0.545015 0.18328,0.327973 0.18328,1.210606 l -0.0145,1.581989 q 0,0.675239 0.0627,0.998389 0.0675,0.318326 0.24598,0.684885 h -1.34084 q -0.053,-0.135048 -0.13022,-0.40032 -0.0338,-0.120579 -0.0482,-0.159164 -0.34727,0.337619 -0.74277,0.506429 -0.39549,0.16881 -0.84404,0.16881 -0.791,0 -1.2492,-0.429259 -0.45337,-0.429259 -0.45337,-1.085205 0,-0.434083 0.20739,-0.771702 0.2074,-0.342443 0.57878,-0.520899 0.37621,-0.183279 1.08038,-0.318326 0.95016,-0.178456 1.31672,-0.332797 v -0.135047 q 0,-0.390674 -0.19293,-0.554661 -0.19292,-0.16881 -0.72829,-0.16881 -0.36174,0 -0.56431,0.144694 -0.20257,0.139871 -0.32797,0.496783 z m 1.8135,1.099675 q -0.26045,0.08682 -0.82476,0.207395 -0.5643,0.120578 -0.73794,0.236333 -0.26527,0.188103 -0.26527,0.477491 0,0.284565 0.21222,0.491959 0.21222,0.207395 0.54019,0.207395 0.36656,0 0.69935,-0.241156 0.24598,-0.18328 0.32315,-0.448552 0.0531,-0.173633 0.0531,-0.660769 z m 2.66719,2.459799 v -7.070716 h 1.3553 v 7.070716 z m 2.74436,-5.816701 v -1.254015 h 1.35531 v 1.254015 z m 0,5.816701 v -5.122169 h 1.35531 v 5.122169 z m 2.19936,0 v -1.056267 l 1.9196,-2.204172 q 0.47267,-0.540191 0.69936,-0.766879 -0.23634,0.01447 -0.62219,0.01929 l -1.80867,0.0096 v -1.12379 h 4.23471 v 0.959803 l -1.95819,2.257227 -0.68971,0.747586 q 0.56431,-0.03376 0.69935,-0.03376 h 2.09807 v 1.191315 z m 8.45013,-1.63022 1.35047,0.226687 q -0.26044,0.742763 -0.82475,1.133437 -0.55948,0.385851 -1.40353,0.385851 -1.33601,0 -1.97749,-0.872987 -0.50643,-0.699355 -0.50643,-1.765268 0,-1.273307 0.66559,-1.991954 0.6656,-0.723471 1.68328,-0.723471 1.14308,0 1.80385,0.757233 0.66077,0.752409 0.63183,2.310281 h -3.39549 q 0.0145,0.602892 0.32798,0.940511 0.3135,0.332797 0.78135,0.332797 0.31832,0 0.53536,-0.173633 0.21704,-0.173633 0.32798,-0.559484 z m 0.0772,-1.36977 q -0.0145,-0.588423 -0.30386,-0.89228 -0.28939,-0.308681 -0.70418,-0.308681 -0.44373,0 -0.73311,0.32315 -0.28939,0.32315 -0.28457,0.877811 z m 6.60287,2.99999 -2.0643,-5.122169 h 1.42282 l 0.96463,2.614139 0.27974,0.872987 q 0.11093,-0.332796 0.13987,-0.438905 0.0675,-0.217041 0.1447,-0.434082 l 0.97427,-2.614139 h 1.39389 l -2.03537,5.122169 z m 3.77169,-2.633432 q 0,-0.675239 0.3328,-1.307069 0.33279,-0.631831 0.94051,-0.964627 0.61254,-0.332797 1.36494,-0.332797 1.16238,0 1.90514,0.757233 0.74277,0.752409 0.74277,1.905138 0,1.162375 -0.75241,1.929254 -0.74759,0.762055 -1.88585,0.762055 -0.70418,0 -1.34565,-0.318327 -0.63666,-0.318327 -0.96945,-0.930865 -0.3328,-0.617361 -0.3328,-1.499995 z m 1.38906,0.07235 q 0,0.762055 0.36174,1.167199 0.36173,0.405143 0.89228,0.405143 0.53054,0 0.88745,-0.405143 0.36174,-0.405144 0.36174,-1.176845 0,-0.752409 -0.36174,-1.157552 -0.35691,-0.405144 -0.88745,-0.405144 -0.53055,0 -0.89228,0.405144 -0.36174,0.405143 -0.36174,1.167198 z m 4.30706,2.561085 1.84726,-2.638255 -1.77009,-2.483914 h 1.65434 l 0.90675,1.408355 0.95498,-1.408355 h 1.59163 l -1.73633,2.426036 1.89549,2.696133 h -1.66398 l -1.04179,-1.586812 -1.05145,1.586812 z m 9.1109,-1.63022 1.35048,0.226687 q -0.26045,0.742763 -0.82476,1.133437 -0.55948,0.385851 -1.40353,0.385851 -1.33601,0 -1.97748,-0.872987 -0.50643,-0.699355 -0.50643,-1.765268 0,-1.273307 0.66559,-1.991954 0.66559,-0.723471 1.68327,-0.723471 1.14309,0 1.80386,0.757233 0.66077,0.752409 0.63183,2.310281 h -3.39549 q 0.0145,0.602892 0.32797,0.940511 0.31351,0.332797 0.78135,0.332797 0.31833,0 0.53537,-0.173633 0.21704,-0.173633 0.32797,-0.559484 z m 0.0772,-1.36977 q -0.0145,-0.588423 -0.30386,-0.89228 -0.28938,-0.308681 -0.70417,-0.308681 -0.44373,0 -0.73312,0.32315 -0.28939,0.32315 -0.28456,0.877811 z m 2.45016,2.99999 v -7.070716 h 1.3553 v 7.070716 z m 2.26687,-1.46141 1.36012,-0.207395 q 0.0868,0.395497 0.35209,0.602892 0.26527,0.202572 0.74276,0.202572 0.52573,0 0.791,-0.192926 0.17845,-0.135048 0.17845,-0.361735 0,-0.15434 -0.0965,-0.255626 -0.10128,-0.09646 -0.45337,-0.178456 -1.63987,-0.361735 -2.07877,-0.66077 -0.60772,-0.414789 -0.60772,-1.152729 0,-0.665592 0.52572,-1.118967 0.52572,-0.453375 1.63022,-0.453375 1.05145,0 1.5627,0.342443 0.51125,0.342442 0.70418,1.012858 l -1.27814,0.236334 q -0.082,-0.299035 -0.3135,-0.458198 -0.22669,-0.159163 -0.65112,-0.159163 -0.53537,0 -0.76688,0.149517 -0.15434,0.106109 -0.15434,0.274918 0,0.144694 0.13505,0.24598 0.18328,0.135048 1.26366,0.381028 1.0852,0.24598 1.51446,0.602892 0.42444,0.361735 0.42444,1.008035 0,0.704178 -0.58842,1.210607 -0.58843,0.506429 -1.74116,0.506429 -1.04662,0 -1.65915,-0.424436 -0.60772,-0.424436 -0.79582,-1.152729 z m 9.67038,1.46141 -1.62057,-5.122169 h 1.31672 l 0.9598,3.356901 0.88263,-3.356901 h 1.30707 l 0.8537,3.356901 0.9791,-3.356901 h 1.336 l -1.64469,5.122169 h -1.30224 l -0.88264,-3.294201 -0.86816,3.294201 z m 6.72827,-5.816701 v -1.254015 h 1.35531 v 1.254015 z m 0,5.816701 v -5.122169 h 1.35531 v 5.122169 z m 5.09324,-5.122169 v 1.080382 h -0.92604 v 2.064301 q 0,0.627008 0.0241,0.733117 0.0289,0.101286 0.12058,0.16881 0.0965,0.06752 0.23151,0.06752 0.18811,0 0.54502,-0.130225 l 0.11575,1.051443 q -0.47266,0.202572 -1.07073,0.202572 -0.36656,0 -0.66077,-0.120578 -0.29421,-0.125402 -0.43408,-0.318327 -0.13505,-0.197749 -0.18811,-0.530545 -0.0434,-0.236334 -0.0434,-0.954981 v -2.233111 h -0.62218 v -1.080382 h 0.62218 v -1.017682 l 1.36013,-0.790994 v 1.808676 z m 2.29099,-1.948547 v 2.59967 q 0.65594,-0.766879 1.56752,-0.766879 0.46784,0 0.84404,0.173633 0.37621,0.173633 0.56431,0.443729 0.19293,0.270095 0.26045,0.598068 0.0724,0.327973 0.0724,1.017682 v 3.004813 h -1.3553 v -2.705779 q 0,-0.805463 -0.0772,-1.022504 -0.0772,-0.217042 -0.27492,-0.342443 -0.19293,-0.130225 -0.48714,-0.130225 -0.33762,0 -0.60289,0.163987 -0.26527,0.163986 -0.39067,0.496783 -0.12058,0.327973 -0.12058,0.974273 v 2.565908 h -1.3553 v -7.070716 z m 12.12536,7.070716 h -1.25884 v -0.752409 q -0.3135,0.438905 -0.74276,0.655946 -0.42444,0.212218 -0.85852,0.212218 -0.88263,0 -1.51446,-0.709001 -0.62701,-0.713824 -0.62701,-1.987131 0,-1.302247 0.61254,-1.977486 0.61253,-0.680062 1.54822,-0.680062 0.85852,0 1.48553,0.713824 v -2.546615 h 1.3553 z m -3.61735,-2.672017 q 0,0.819933 0.22669,1.186491 0.32797,0.530545 0.91639,0.530545 0.46785,0 0.79582,-0.395497 0.32797,-0.40032 0.32797,-1.191314 0,-0.882634 -0.31833,-1.268485 -0.31832,-0.390674 -0.81511,-0.390674 -0.48231,0 -0.81028,0.385851 -0.32315,0.381028 -0.32315,1.143083 z m 4.63985,0.03858 q 0,-0.675239 0.3328,-1.307069 0.33279,-0.631831 0.94051,-0.964627 0.61253,-0.332797 1.36494,-0.332797 1.16238,0 1.90514,0.757233 0.74276,0.752409 0.74276,1.905138 0,1.162375 -0.7524,1.929254 -0.74759,0.762055 -1.88585,0.762055 -0.70418,0 -1.34565,-0.318327 -0.63666,-0.318327 -0.96945,-0.930865 -0.3328,-0.617361 -0.3328,-1.499995 z m 1.38906,0.07235 q 0,0.762055 0.36174,1.167199 0.36173,0.405143 0.89228,0.405143 0.53054,0 0.88745,-0.405143 0.36174,-0.405144 0.36174,-1.176845 0,-0.752409 -0.36174,-1.157552 -0.35691,-0.405144 -0.88745,-0.405144 -0.53055,0 -0.89228,0.405144 -0.36174,0.405143 -0.36174,1.167198 z m 4.4807,1.099675 1.36012,-0.207395 q 0.0868,0.395497 0.35209,0.602892 0.26527,0.202572 0.74276,0.202572 0.52572,0 0.791,-0.192926 0.17845,-0.135048 0.17845,-0.361735 0,-0.15434 -0.0965,-0.255626 -0.10129,-0.09646 -0.45337,-0.178456 -1.63987,-0.361735 -2.07878,-0.66077 -0.60771,-0.414789 -0.60771,-1.152729 0,-0.665592 0.52572,-1.118967 0.52572,-0.453375 1.63022,-0.453375 1.05144,0 1.5627,0.342443 0.51125,0.342442 0.70417,1.012858 l -1.27813,0.236334 q -0.082,-0.299035 -0.3135,-0.458198 -0.22669,-0.159163 -0.65112,-0.159163 -0.53537,0 -0.76688,0.149517 -0.15434,0.106109 -0.15434,0.274918 0,0.144694 0.13505,0.24598 0.18327,0.135048 1.26366,0.381028 1.0852,0.24598 1.51446,0.602892 0.42444,0.361735 0.42444,1.008035 0,0.704178 -0.58843,1.210607 -0.58842,0.506429 -1.74115,0.506429 -1.04662,0 -1.65916,-0.424436 -0.60771,-0.424436 -0.79581,-1.152729 z m 8.93727,-0.16881 1.35048,0.226687 q -0.26045,0.742763 -0.82476,1.133437 -0.55948,0.385851 -1.40353,0.385851 -1.33601,0 -1.97749,-0.872987 -0.50643,-0.699355 -0.50643,-1.765268 0,-1.273307 0.6656,-1.991954 0.66559,-0.723471 1.68327,-0.723471 1.14308,0 1.80385,0.757233 0.66077,0.752409 0.63183,2.310281 h -3.39548 q 0.0145,0.602892 0.32797,0.940511 0.3135,0.332797 0.78135,0.332797 0.31832,0 0.53537,-0.173633 0.21704,-0.173633 0.32797,-0.559484 z m 0.0772,-1.36977 q -0.0145,-0.588423 -0.30386,-0.89228 -0.28939,-0.308681 -0.70418,-0.308681 -0.44372,0 -0.73311,0.32315 -0.28939,0.32315 -0.28457,0.877811 z m 4.7749,1.36977 V 37.18337 l 3.38584,-1.336008 -3.38584,-1.311893 v -1.355301 l 4.84725,2.093241 v 1.162375 z m 0,1.63022 v -1.268485 h 4.84725 v 1.268485 z m 12.87295,-1.258838 v 1.258838 h -4.75079 q 0.0772,-0.713824 0.46302,-1.350478 0.38585,-0.641477 1.52411,-1.697743 0.9164,-0.853695 1.12379,-1.157553 0.27974,-0.419613 0.27974,-0.829579 0,-0.453375 -0.24598,-0.694531 -0.24115,-0.24598 -0.67041,-0.24598 -0.42444,0 -0.67524,0.255626 -0.2508,0.255626 -0.28939,0.848872 L 260.87623,35.1673 q 0.12058,-1.118967 0.75724,-1.606104 0.63665,-0.487137 1.59163,-0.487137 1.04662,0 1.64469,0.564307 0.59807,0.564307 0.59807,1.403532 0,0.477491 -0.17363,0.911573 -0.16881,0.429259 -0.5402,0.901926 -0.24598,0.313504 -0.88745,0.901926 -0.64148,0.588423 -0.81511,0.781348 -0.16881,0.192925 -0.27492,0.376205 z m 0.93568,-0.559484 1.35048,-0.139871 q 0.0579,0.458198 0.34244,0.728293 0.28457,0.265273 0.65595,0.265273 0.42443,0 0.71865,-0.342443 0.29421,-0.347266 0.29421,-1.041797 0,-0.651123 -0.29421,-0.974273 -0.28939,-0.327973 -0.75724,-0.327973 -0.5836,0 -1.04662,0.516075 l -1.09967,-0.159163 0.69453,-3.680052 h 3.58359 v 1.268484 h -2.55626 l -0.21222,1.200961 q 0.45337,-0.226688 0.92604,-0.226688 0.90193,0 1.52893,0.655947 0.62701,0.655946 0.62701,1.702566 0,0.872988 -0.50643,1.557873 -0.68971,0.935688 -1.91478,0.935688 -0.9791,0 -1.59646,-0.525722 -0.61736,-0.525721 -0.73794,-1.413178 z m 11.80704,-0.781348 V 36.38273 h 3.07716 v 2.81671 q -0.44856,0.434083 -1.30225,0.766879 -0.84887,0.327973 -1.72186,0.327973 -1.10932,0 -1.93408,-0.463021 -0.82475,-0.467844 -1.23954,-1.331185 -0.41479,-0.868164 -0.41479,-1.885846 0,-1.104498 0.46302,-1.963016 0.46302,-0.858518 1.3553,-1.316715 0.68006,-0.352089 1.69292,-0.352089 1.31672,0 2.05466,0.55466 0.74276,0.549838 0.95498,1.524111 l -1.418,0.265272 q -0.14952,-0.520898 -0.56431,-0.819933 -0.40997,-0.303857 -1.02733,-0.303857 -0.93569,0 -1.49035,0.593245 -0.54984,0.593246 -0.54984,1.760445 0,1.258838 0.55949,1.890668 0.55948,0.627008 1.46623,0.627008 0.44855,0 0.8971,-0.173633 0.45338,-0.178456 0.77653,-0.429259 v -0.897103 z m 3.74275,-2.522499 h 1.44212 l 1.22508,3.636643 1.19613,-3.636643 h 1.40354 l -1.80868,4.929243 -0.32315,0.89228 q -0.17846,0.448552 -0.34244,0.684885 -0.15917,0.236334 -0.37138,0.381028 -0.2074,0.149517 -0.51608,0.23151 -0.30386,0.08199 -0.68971,0.08199 -0.39067,0 -0.76688,-0.08199 l -0.12057,-1.061089 q 0.31832,0.0627 0.57395,0.0627 0.47267,0 0.69935,-0.279742 0.22669,-0.274919 0.34727,-0.704178 z"
       id="text21-9-8"
       aria-label="Penalize voxels with dose ≥ 25 Gy" /><rect
       style="fill:none;fill-opacity:1;stroke:#028102;stroke-width:2.5;stroke-linejoin:round;stroke-dasharray:none;stroke-opacity:1;paint-order:stroke markers fill"
       id="rect14"
       width="116"
       height="20"
       x="167.23471"
       y="63.873863"
       ry="10"
       rx="10" /><g
       id="path19-1"><path
         style="color:#000000;fill:#028102;stroke-linejoin:round;-inkscape-stroke:none;paint-order:stroke markers fill"
         d="m 236.80273,43.873047 v 16.121094 h 2 V 43.873047 Z"
         id="path3" /><g
         id="g2"><path
           style="color:#000000;fill:#028102;stroke-linecap:round;-inkscape-stroke:none"
           d="m 231.80273,53.494141 a 1,1 0 0 0 -0.70703,0.292968 1,1 0 0 0 0,1.414063 l 6.70703,6.707031 6.70704,-6.707031 a 1,1 0 0 0 0,-1.414063 1,1 0 0 0 -1.41407,0 l -5.29297,5.292969 -5.29296,-5.292969 a 1,1 0 0 0 -0.70704,-0.292968 z"
           id="path2" /></g><path
         style="color:#000000;fill:#156082;stroke-linejoin:round;-inkscape-stroke:none;paint-order:stroke markers fill"
         d="M 237.80202,43.873789 V 59.994622"
         id="path4" /></g></g></svg>
