<?xml version="1.0" encoding="UTF-8" standalone="no"?>
<svg
   width="410pt"
   height="315pt"
   viewBox="0 0 410 314.99999"
   version="1.1"
   id="svg193"
   sodipodi:docname="dvh_example_bis.svg"
   inkscape:version="1.3.2 (091e20e, 2023-11-25, custom)"
   inkscape:export-filename="dvh_example_bis.png"
   inkscape:export-xdpi="150"
   inkscape:export-ydpi="150"
   xmlns:inkscape="http://www.inkscape.org/namespaces/inkscape"
   xmlns:sodipodi="http://sodipodi.sourceforge.net/DTD/sodipodi-0.dtd"
   xmlns:xlink="http://www.w3.org/1999/xlink"
   xmlns="http://www.w3.org/2000/svg"
   xmlns:svg="http://www.w3.org/2000/svg"
   xmlns:rdf="http://www.w3.org/1999/02/22-rdf-syntax-ns#"
   xmlns:cc="http://creativecommons.org/ns#"
   xmlns:dc="http://purl.org/dc/elements/1.1/">
  <sodipodi:namedview
     id="namedview193"
     pagecolor="#ffffff"
     bordercolor="#000000"
     borderopacity="0.25"
     inkscape:showpageshadow="2"
     inkscape:pageopacity="0.0"
     inkscape:pagecheckerboard="0"
     inkscape:deskcolor="#d1d1d1"
     inkscape:document-units="pt"
     inkscape:zoom="1.2649008"
     inkscape:cx="344.69106"
     inkscape:cy="155.34815"
     inkscape:window-width="1920"
     inkscape:window-height="1009"
     inkscape:window-x="3832"
     inkscape:window-y="-8"
     inkscape:window-maximized="1"
     inkscape:current-layer="svg193" />
  <metadata
     id="metadata1">
    <rdf:RDF>
      <cc:Work>
        <dc:type
           rdf:resource="http://purl.org/dc/dcmitype/StillImage" />
        <dc:date>2024-12-03T15:25:44.643991</dc:date>
        <dc:format>image/svg+xml</dc:format>
        <dc:creator>
          <cc:Agent>
            <dc:title>Matplotlib v3.8.4, https://matplotlib.org/</dc:title>
          </cc:Agent>
        </dc:creator>
      </cc:Work>
    </rdf:RDF>
  </metadata>
  <defs
     id="defs1">
    <style
       type="text/css"
       id="style1">*{stroke-linejoin: round; stroke-linecap: butt}</style>
  </defs>
  <rect
     style="opacity:0.93179;fill:#ffffff;stroke:none;stroke-width:7.08662;stroke-linecap:round;stroke-linejoin:round;paint-order:markers stroke fill"
     id="rect201"
     width="410"
     height="315"
     x="0"
     y="0" />
  <g
     id="matplotlib.axis_1">
    <g
       id="xtick_1">
      <g
         id="line2d_1">
        <path
           d="M 43.78125,277.11122 V 10.999219"
           clip-path="url(#pb618fcf7ba)"
           style="fill:none;stroke:#808080;stroke-width:0.8;stroke-linecap:square"
           id="path3" />
      </g>
      <g
         id="line2d_2">
        <defs
           id="defs3">
          <path
             id="m7e2cb3d255"
             d="M 0,0 V 3.5"
             style="stroke:#000000;stroke-width:0.8" />
        </defs>
        <g
           id="g3">
          <use
             xlink:href="#m7e2cb3d255"
             x="43.78125"
             y="277.11121"
             style="stroke:#000000;stroke-width:0.8"
             id="use3" />
        </g>
      </g>
      <g
         id="text_1">
        <!-- 0 -->
        <g
           transform="matrix(0.1,0,0,-0.1,40.6,291.70966)"
           id="g4">
          <defs
             id="defs4">
            <path
               id="DejaVuSans-30"
               d="m 2034,4250 q -487,0 -733,-480 -245,-479 -245,-1442 0,-959 245,-1439 246,-480 733,-480 491,0 736,480 246,480 246,1439 0,963 -246,1442 -245,480 -736,480 z m 0,500 q 785,0 1199,-621 414,-620 414,-1801 0,-1178 -414,-1799 -414,-620 -1199,-620 -784,0 -1198,620 -414,621 -414,1799 0,1181 414,1801 414,621 1198,621 z"
               transform="scale(0.015625)" />
          </defs>
          <use
             xlink:href="#DejaVuSans-30"
             id="use4" />
        </g>
      </g>
    </g>
    <g
       id="xtick_2">
      <g
         id="line2d_3">
        <path
           d="M 84.53158,277.11122 V 10.999219"
           clip-path="url(#pb618fcf7ba)"
           style="fill:none;stroke:#808080;stroke-width:0.8;stroke-linecap:square"
           id="path4" />
      </g>
      <g
         id="line2d_4">
        <g
           id="g5">
          <use
             xlink:href="#m7e2cb3d255"
             x="84.531578"
             y="277.11121"
             style="stroke:#000000;stroke-width:0.8"
             id="use5" />
        </g>
      </g>
      <g
         id="text_2">
        <!-- 10 -->
        <g
           transform="matrix(0.1,0,0,-0.1,78.16908,291.70966)"
           id="g7">
          <defs
             id="defs5">
            <path
               id="DejaVuSans-31"
               d="M 794,531 H 1825 V 4091 L 703,3866 v 575 l 1116,225 h 631 V 531 H 3481 V 0 H 794 Z"
               transform="scale(0.015625)" />
          </defs>
          <use
             xlink:href="#DejaVuSans-31"
             id="use6" />
          <use
             xlink:href="#DejaVuSans-30"
             x="63.623047"
             id="use7" />
        </g>
      </g>
    </g>
    <g
       id="xtick_3">
      <g
         id="line2d_5">
        <path
           d="M 125.28191,277.11122 V 10.999219"
           clip-path="url(#pb618fcf7ba)"
           style="fill:none;stroke:#808080;stroke-width:0.8;stroke-linecap:square"
           id="path7" />
      </g>
      <g
         id="line2d_6">
        <g
           id="g8">
          <use
             xlink:href="#m7e2cb3d255"
             x="125.28191"
             y="277.11121"
             style="stroke:#000000;stroke-width:0.8"
             id="use8" />
        </g>
      </g>
      <g
         id="text_3">
        <!-- 20 -->
        <g
           transform="matrix(0.1,0,0,-0.1,118.91941,291.70966)"
           id="g10">
          <defs
             id="defs8">
            <path
               id="DejaVuSans-32"
               d="M 1228,531 H 3431 V 0 H 469 v 531 q 359,372 979,998 621,627 780,809 303,340 423,576 121,236 121,464 0,372 -261,606 -261,235 -680,235 -297,0 -627,-103 -329,-103 -704,-313 v 638 q 381,153 712,231 332,78 607,78 725,0 1156,-363 431,-362 431,-968 0,-288 -108,-546 -107,-257 -392,-607 -78,-91 -497,-524 Q 1991,1309 1228,531 Z"
               transform="scale(0.015625)" />
          </defs>
          <use
             xlink:href="#DejaVuSans-32"
             id="use9" />
          <use
             xlink:href="#DejaVuSans-30"
             x="63.623047"
             id="use10" />
        </g>
      </g>
    </g>
    <g
       id="xtick_4">
      <g
         id="line2d_7">
        <path
           d="M 166.03224,277.11122 V 10.999219"
           clip-path="url(#pb618fcf7ba)"
           style="fill:none;stroke:#808080;stroke-width:0.8;stroke-linecap:square"
           id="path10" />
      </g>
      <g
         id="line2d_8">
        <g
           id="g11">
          <use
             xlink:href="#m7e2cb3d255"
             x="166.03224"
             y="277.11121"
             style="stroke:#000000;stroke-width:0.8"
             id="use11" />
        </g>
      </g>
      <g
         id="text_4">
        <!-- 30 -->
        <g
           transform="matrix(0.1,0,0,-0.1,159.66974,291.70966)"
           id="g13">
          <defs
             id="defs11">
            <path
               id="DejaVuSans-33"
               d="m 2597,2516 q 453,-97 707,-404 255,-306 255,-756 0,-690 -475,-1069 -475,-378 -1350,-378 -293,0 -604,58 -311,58 -642,174 v 609 q 262,-153 574,-231 313,-78 654,-78 593,0 904,234 311,234 311,681 0,413 -289,645 -289,233 -804,233 h -544 v 519 h 569 q 465,0 712,186 247,186 247,536 0,359 -255,551 -254,193 -729,193 -260,0 -557,-57 -297,-56 -653,-174 v 562 q 360,100 674,150 314,50 592,50 719,0 1137,-327 419,-326 419,-882 0,-388 -222,-655 -222,-267 -631,-370 z"
               transform="scale(0.015625)" />
          </defs>
          <use
             xlink:href="#DejaVuSans-33"
             id="use12" />
          <use
             xlink:href="#DejaVuSans-30"
             x="63.623047"
             id="use13" />
        </g>
      </g>
    </g>
    <g
       id="xtick_5">
      <g
         id="line2d_9">
        <path
           d="M 206.78257,277.11122 V 10.999219"
           clip-path="url(#pb618fcf7ba)"
           style="fill:none;stroke:#808080;stroke-width:0.8;stroke-linecap:square"
           id="path13" />
      </g>
      <g
         id="line2d_10">
        <g
           id="g14">
          <use
             xlink:href="#m7e2cb3d255"
             x="206.78256"
             y="277.11121"
             style="stroke:#000000;stroke-width:0.8"
             id="use14" />
        </g>
      </g>
      <g
         id="text_5">
        <!-- 40 -->
        <g
           transform="matrix(0.1,0,0,-0.1,200.42007,291.70966)"
           id="g16">
          <defs
             id="defs14">
            <path
               id="DejaVuSans-34"
               d="M 2419,4116 825,1625 h 1594 z m -166,550 h 794 V 1625 h 666 V 1100 H 3047 V 0 H 2419 V 1100 H 313 v 609 z"
               transform="scale(0.015625)" />
          </defs>
          <use
             xlink:href="#DejaVuSans-34"
             id="use15" />
          <use
             xlink:href="#DejaVuSans-30"
             x="63.623047"
             id="use16" />
        </g>
      </g>
    </g>
    <g
       id="xtick_6">
      <g
         id="line2d_11">
        <path
           d="M 247.5329,277.11122 V 10.999219"
           clip-path="url(#pb618fcf7ba)"
           style="fill:none;stroke:#808080;stroke-width:0.8;stroke-linecap:square"
           id="path16" />
      </g>
      <g
         id="line2d_12">
        <g
           id="g17">
          <use
             xlink:href="#m7e2cb3d255"
             x="247.5329"
             y="277.11121"
             style="stroke:#000000;stroke-width:0.8"
             id="use17" />
        </g>
      </g>
      <g
         id="text_6">
        <!-- 50 -->
        <g
           transform="matrix(0.1,0,0,-0.1,241.1704,291.70966)"
           id="g19">
          <defs
             id="defs17">
            <path
               id="DejaVuSans-35"
               d="M 691,4666 H 3169 V 4134 H 1269 V 2991 q 137,47 274,70 138,23 276,23 781,0 1237,-428 457,-428 457,-1159 Q 3513,744 3044,326 2575,-91 1722,-91 1428,-91 1123,-41 819,9 494,109 v 635 q 281,-153 581,-228 300,-75 634,-75 541,0 856,284 316,284 316,772 0,487 -316,771 -315,285 -856,285 -253,0 -505,-56 -251,-56 -513,-175 z"
               transform="scale(0.015625)" />
          </defs>
          <use
             xlink:href="#DejaVuSans-35"
             id="use18" />
          <use
             xlink:href="#DejaVuSans-30"
             x="63.623047"
             id="use19" />
        </g>
      </g>
    </g>
    <g
       id="xtick_7">
      <g
         id="line2d_13">
        <path
           d="M 288.28323,277.11122 V 10.999219"
           clip-path="url(#pb618fcf7ba)"
           style="fill:none;stroke:#808080;stroke-width:0.8;stroke-linecap:square"
           id="path19" />
      </g>
      <g
         id="line2d_14">
        <g
           id="g20">
          <use
             xlink:href="#m7e2cb3d255"
             x="288.28323"
             y="277.11121"
             style="stroke:#000000;stroke-width:0.8"
             id="use20" />
        </g>
      </g>
      <g
         id="text_7">
        <!-- 60 -->
        <g
           transform="matrix(0.1,0,0,-0.1,281.92073,291.70966)"
           id="g22">
          <defs
             id="defs20">
            <path
               id="DejaVuSans-36"
               d="m 2113,2584 q -425,0 -674,-291 -248,-290 -248,-796 0,-503 248,-796 249,-292 674,-292 425,0 673,292 248,293 248,796 0,506 -248,796 -248,291 -673,291 z m 1253,1979 v -575 q -238,112 -480,171 -242,60 -480,60 -625,0 -955,-422 -329,-422 -376,-1275 184,272 462,417 279,145 613,145 703,0 1111,-427 408,-426 408,-1160 0,-719 -425,-1154 -425,-434 -1131,-434 -810,0 -1238,620 -428,621 -428,1799 0,1106 525,1764 525,658 1409,658 238,0 480,-47 242,-47 505,-140 z"
               transform="scale(0.015625)" />
          </defs>
          <use
             xlink:href="#DejaVuSans-36"
             id="use21" />
          <use
             xlink:href="#DejaVuSans-30"
             x="63.623047"
             id="use22" />
        </g>
      </g>
    </g>
    <g
       id="xtick_8">
      <g
         id="line2d_15">
        <path
           d="M 329.03356,277.11122 V 10.999219"
           clip-path="url(#pb618fcf7ba)"
           style="fill:none;stroke:#808080;stroke-width:0.8;stroke-linecap:square"
           id="path22" />
      </g>
      <g
         id="line2d_16">
        <g
           id="g23">
          <use
             xlink:href="#m7e2cb3d255"
             x="329.03357"
             y="277.11121"
             style="stroke:#000000;stroke-width:0.8"
             id="use23" />
        </g>
      </g>
      <g
         id="text_8">
        <!-- 70 -->
        <g
           transform="matrix(0.1,0,0,-0.1,322.67106,291.70966)"
           id="g25">
          <defs
             id="defs23">
            <path
               id="DejaVuSans-37"
               d="M 525,4666 H 3525 V 4397 L 1831,0 H 1172 L 2766,4134 H 525 Z"
               transform="scale(0.015625)" />
          </defs>
          <use
             xlink:href="#DejaVuSans-37"
             id="use24" />
          <use
             xlink:href="#DejaVuSans-30"
             x="63.623047"
             id="use25" />
        </g>
      </g>
    </g>
    <g
       id="xtick_9">
      <g
         id="line2d_17">
        <path
           d="M 369.78389,277.11122 V 10.999219"
           clip-path="url(#pb618fcf7ba)"
           style="fill:none;stroke:#808080;stroke-width:0.8;stroke-linecap:square"
           id="path25" />
      </g>
      <g
         id="line2d_18">
        <g
           id="g26">
          <use
             xlink:href="#m7e2cb3d255"
             x="369.78387"
             y="277.11121"
             style="stroke:#000000;stroke-width:0.8"
             id="use26" />
        </g>
      </g>
      <g
         id="text_9">
        <!-- 80 -->
        <g
           transform="matrix(0.1,0,0,-0.1,363.42139,291.70966)"
           id="g28">
          <defs
             id="defs26">
            <path
               id="DejaVuSans-38"
               d="m 2034,2216 q -450,0 -708,-241 -257,-241 -257,-662 0,-422 257,-663 258,-241 708,-241 450,0 709,242 260,243 260,662 0,421 -258,662 -257,241 -711,241 z m -631,268 q -406,100 -633,378 -226,279 -226,679 0,559 398,884 399,325 1092,325 697,0 1094,-325 397,-325 397,-884 0,-400 -227,-679 -226,-278 -629,-378 456,-106 710,-416 255,-309 255,-755 Q 3634,634 3220,271 2806,-91 2034,-91 1263,-91 848,271 434,634 434,1313 q 0,446 256,755 257,310 713,416 z m -231,997 q 0,-362 226,-565 227,-203 636,-203 407,0 636,203 230,203 230,565 0,363 -230,566 -229,203 -636,203 -409,0 -636,-203 -226,-203 -226,-566 z"
               transform="scale(0.015625)" />
          </defs>
          <use
             xlink:href="#DejaVuSans-38"
             id="use27" />
          <use
             xlink:href="#DejaVuSans-30"
             x="63.623047"
             id="use28" />
        </g>
      </g>
    </g>
    <g
       id="text_10">
      <!-- Dose (Gy) -->
      <g
         transform="matrix(0.1,0,0,-0.1,197.42641,305.38778)"
         id="g37">
        <defs
           id="defs28">
          <path
             id="DejaVuSans-44"
             d="M 1259,4147 V 519 h 763 q 966,0 1414,437 448,438 448,1382 0,937 -448,1373 -448,436 -1414,436 z m -631,519 h 1297 q 1356,0 1990,-564 635,-564 635,-1764 Q 4550,1131 3912,565 3275,0 1925,0 H 628 Z"
             transform="scale(0.015625)" />
          <path
             id="DejaVuSans-6f"
             d="m 1959,3097 q -462,0 -731,-361 -269,-361 -269,-989 0,-628 267,-989 268,-361 733,-361 460,0 728,362 269,363 269,988 0,622 -269,986 -268,364 -728,364 z m 0,487 q 750,0 1178,-488 429,-487 429,-1349 Q 3566,888 3137,398 2709,-91 1959,-91 1206,-91 779,398 353,888 353,1747 q 0,862 426,1349 427,488 1180,488 z"
             transform="scale(0.015625)" />
          <path
             id="DejaVuSans-73"
             d="m 2834,3397 v -544 q -243,125 -506,187 -262,63 -544,63 -428,0 -642,-131 -214,-131 -214,-394 0,-200 153,-314 153,-114 616,-217 l 197,-44 q 612,-131 870,-370 258,-239 258,-667 0,-488 -386,-773 Q 2250,-91 1575,-91 1294,-91 989,-36 684,19 347,128 v 594 q 319,-166 628,-249 309,-82 613,-82 406,0 624,139 219,139 219,392 0,234 -158,359 -157,125 -692,241 l -200,47 q -534,112 -772,345 -237,233 -237,639 0,494 350,762 350,269 994,269 318,0 599,-47 282,-46 519,-140 z"
             transform="scale(0.015625)" />
          <path
             id="DejaVuSans-65"
             d="M 3597,1894 V 1613 H 953 q 38,-594 358,-905 320,-311 892,-311 331,0 642,81 311,81 618,244 V 178 Q 3153,47 2828,-22 2503,-91 2169,-91 1331,-91 842,396 353,884 353,1716 q 0,859 464,1363 464,505 1252,505 706,0 1117,-455 411,-454 411,-1235 z m -575,169 q -6,471 -264,752 -258,282 -683,282 -481,0 -770,-272 -289,-272 -333,-766 z"
             transform="scale(0.015625)" />
          <path
             id="DejaVuSans-20"
             transform="scale(0.015625)"
             d="" />
          <path
             id="DejaVuSans-28"
             d="m 1984,4856 q -418,-718 -622,-1422 -203,-703 -203,-1425 0,-721 205,-1429 205,-708 620,-1424 h -500 q -468,735 -701,1444 -233,709 -233,1409 0,697 231,1403 232,707 703,1444 z"
             transform="scale(0.015625)" />
          <path
             id="DejaVuSans-47"
             d="M 3809,666 V 1919 H 2778 v 519 H 4434 V 434 Q 4069,175 3628,42 3188,-91 2688,-91 1594,-91 976,548 359,1188 359,2328 q 0,1144 617,1783 618,639 1712,639 456,0 867,-113 411,-112 758,-331 v -672 q -350,297 -744,447 -394,150 -828,150 -857,0 -1287,-478 -429,-478 -429,-1425 0,-944 429,-1422 430,-478 1287,-478 334,0 596,58 263,58 472,180 z"
             transform="scale(0.015625)" />
          <path
             id="DejaVuSans-79"
             d="m 2059,-325 q -243,-625 -475,-815 -231,-191 -618,-191 H 506 v 481 h 338 q 237,0 368,113 132,112 291,531 L 1606,56 191,3500 H 800 L 1894,763 2988,3500 h 609 z"
             transform="scale(0.015625)" />
          <path
             id="DejaVuSans-29"
             d="m 513,4856 h 500 q 468,-737 701,-1444 233,-706 233,-1403 0,-700 -233,-1409 -233,-709 -701,-1444 H 513 q 415,716 620,1424 205,708 205,1429 0,722 -205,1425 -205,704 -620,1422 z"
             transform="scale(0.015625)" />
        </defs>
        <use
           xlink:href="#DejaVuSans-44"
           id="use29" />
        <use
           xlink:href="#DejaVuSans-6f"
           x="77.001953"
           id="use30" />
        <use
           xlink:href="#DejaVuSans-73"
           x="138.18359"
           id="use31" />
        <use
           xlink:href="#DejaVuSans-65"
           x="190.2832"
           id="use32" />
        <use
           xlink:href="#DejaVuSans-20"
           x="251.80664"
           id="use33" />
        <use
           xlink:href="#DejaVuSans-28"
           x="283.59375"
           id="use34" />
        <use
           xlink:href="#DejaVuSans-47"
           x="322.60742"
           id="use35" />
        <use
           xlink:href="#DejaVuSans-79"
           x="400.09766"
           id="use36" />
        <use
           xlink:href="#DejaVuSans-29"
           x="459.27734"
           id="use37" />
      </g>
    </g>
  </g>
  <g
     id="matplotlib.axis_2">
    <g
       id="ytick_1">
      <g
         id="line2d_19">
        <path
           d="m 43.78125,277.11122 h 357.12"
           clip-path="url(#pb618fcf7ba)"
           style="fill:none;stroke:#808080;stroke-width:0.8;stroke-linecap:square"
           id="path37" />
      </g>
      <g
         id="line2d_20">
        <defs
           id="defs37">
          <path
             id="mdc3a551688"
             d="M 0,0 H -3.5"
             style="stroke:#000000;stroke-width:0.8" />
        </defs>
        <g
           id="g38">
          <use
             xlink:href="#mdc3a551688"
             x="43.78125"
             y="277.11121"
             style="stroke:#000000;stroke-width:0.8"
             id="use38" />
        </g>
      </g>
      <g
         id="text_11">
        <!-- 0.0 -->
        <g
           transform="matrix(0.1,0,0,-0.1,20.878125,280.91044)"
           id="g41">
          <defs
             id="defs38">
            <path
               id="DejaVuSans-2e"
               d="m 684,794 h 660 V 0 H 684 Z"
               transform="scale(0.015625)" />
          </defs>
          <use
             xlink:href="#DejaVuSans-30"
             id="use39" />
          <use
             xlink:href="#DejaVuSans-2e"
             x="63.623047"
             id="use40" />
          <use
             xlink:href="#DejaVuSans-30"
             x="95.410156"
             id="use41" />
        </g>
      </g>
    </g>
    <g
       id="ytick_2">
      <g
         id="line2d_21">
        <path
           d="m 43.78125,223.88882 h 357.12"
           clip-path="url(#pb618fcf7ba)"
           style="fill:none;stroke:#808080;stroke-width:0.8;stroke-linecap:square"
           id="path41" />
      </g>
      <g
         id="line2d_22">
        <g
           id="g42">
          <use
             xlink:href="#mdc3a551688"
             x="43.78125"
             y="223.88882"
             style="stroke:#000000;stroke-width:0.8"
             id="use42" />
        </g>
      </g>
      <g
         id="text_12">
        <!-- 0.2 -->
        <g
           transform="matrix(0.1,0,0,-0.1,20.878125,227.68804)"
           id="g45">
          <use
             xlink:href="#DejaVuSans-30"
             id="use43" />
          <use
             xlink:href="#DejaVuSans-2e"
             x="63.623047"
             id="use44" />
          <use
             xlink:href="#DejaVuSans-32"
             x="95.410156"
             id="use45" />
        </g>
      </g>
    </g>
    <g
       id="ytick_3">
      <g
         id="line2d_23">
        <path
           d="m 43.78125,170.66642 h 357.12"
           clip-path="url(#pb618fcf7ba)"
           style="fill:none;stroke:#808080;stroke-width:0.8;stroke-linecap:square"
           id="path45" />
      </g>
      <g
         id="line2d_24">
        <g
           id="g46">
          <use
             xlink:href="#mdc3a551688"
             x="43.78125"
             y="170.66641"
             style="stroke:#000000;stroke-width:0.8"
             id="use46" />
        </g>
      </g>
      <g
         id="text_13">
        <!-- 0.4 -->
        <g
           transform="matrix(0.1,0,0,-0.1,20.878125,174.46564)"
           id="g49">
          <use
             xlink:href="#DejaVuSans-30"
             id="use47" />
          <use
             xlink:href="#DejaVuSans-2e"
             x="63.623047"
             id="use48" />
          <use
             xlink:href="#DejaVuSans-34"
             x="95.410156"
             id="use49" />
        </g>
      </g>
    </g>
    <g
       id="ytick_4">
      <g
         id="line2d_25">
        <path
           d="m 43.78125,117.44402 h 357.12"
           clip-path="url(#pb618fcf7ba)"
           style="fill:none;stroke:#808080;stroke-width:0.8;stroke-linecap:square"
           id="path49" />
      </g>
      <g
         id="line2d_26">
        <g
           id="g50">
          <use
             xlink:href="#mdc3a551688"
             x="43.78125"
             y="117.44402"
             style="stroke:#000000;stroke-width:0.8"
             id="use50" />
        </g>
      </g>
      <g
         id="text_14">
        <!-- 0.6 -->
        <g
           transform="matrix(0.1,0,0,-0.1,20.878125,121.24324)"
           id="g53">
          <use
             xlink:href="#DejaVuSans-30"
             id="use51" />
          <use
             xlink:href="#DejaVuSans-2e"
             x="63.623047"
             id="use52" />
          <use
             xlink:href="#DejaVuSans-36"
             x="95.410156"
             id="use53" />
        </g>
      </g>
    </g>
    <g
       id="ytick_5">
      <g
         id="line2d_27">
        <path
           d="m 43.78125,64.221619 h 357.12"
           clip-path="url(#pb618fcf7ba)"
           style="fill:none;stroke:#808080;stroke-width:0.8;stroke-linecap:square"
           id="path53" />
      </g>
      <g
         id="line2d_28">
        <g
           id="g54">
          <use
             xlink:href="#mdc3a551688"
             x="43.78125"
             y="64.221619"
             style="stroke:#000000;stroke-width:0.8"
             id="use54" />
        </g>
      </g>
      <g
         id="text_15">
        <!-- 0.8 -->
        <g
           transform="matrix(0.1,0,0,-0.1,20.878125,68.020837)"
           id="g57">
          <use
             xlink:href="#DejaVuSans-30"
             id="use55" />
          <use
             xlink:href="#DejaVuSans-2e"
             x="63.623047"
             id="use56" />
          <use
             xlink:href="#DejaVuSans-38"
             x="95.410156"
             id="use57" />
        </g>
      </g>
    </g>
    <g
       id="ytick_6">
      <g
         id="line2d_29">
        <path
           d="m 43.78125,10.999219 h 357.12"
           clip-path="url(#pb618fcf7ba)"
           style="fill:none;stroke:#808080;stroke-width:0.8;stroke-linecap:square"
           id="path57" />
      </g>
      <g
         id="line2d_30">
        <g
           id="g58">
          <use
             xlink:href="#mdc3a551688"
             x="43.78125"
             y="10.999219"
             style="stroke:#000000;stroke-width:0.8"
             id="use58" />
        </g>
      </g>
      <g
         id="text_16">
        <!-- 1.0 -->
        <g
           transform="matrix(0.1,0,0,-0.1,20.878125,14.798437)"
           id="g61">
          <use
             xlink:href="#DejaVuSans-31"
             id="use59" />
          <use
             xlink:href="#DejaVuSans-2e"
             x="63.623047"
             id="use60" />
          <use
             xlink:href="#DejaVuSans-30"
             x="95.410156"
             id="use61" />
        </g>
      </g>
    </g>
    <g
       id="text_17">
      <!-- Volume (ratio) -->
      <g
         transform="matrix(0,-0.1,-0.1,0,14.798438,179.67084)"
         id="g75">
        <defs
           id="defs61">
          <path
             id="DejaVuSans-56"
             d="M 1831,0 50,4666 H 709 L 2188,738 3669,4666 h 656 L 2547,0 Z"
             transform="scale(0.015625)" />
          <path
             id="DejaVuSans-6c"
             d="m 603,4863 h 575 V 0 H 603 Z"
             transform="scale(0.015625)" />
          <path
             id="DejaVuSans-75"
             d="m 544,1381 v 2119 h 575 V 1403 q 0,-497 193,-746 194,-248 582,-248 465,0 735,297 271,297 271,810 v 1984 h 575 V 0 H 2900 V 538 Q 2691,219 2414,64 2138,-91 1772,-91 1169,-91 856,284 544,659 544,1381 Z m 1447,2203 z"
             transform="scale(0.015625)" />
          <path
             id="DejaVuSans-6d"
             d="m 3328,2828 q 216,388 516,572 300,184 706,184 547,0 844,-383 297,-382 297,-1088 V 0 h -578 v 2094 q 0,503 -179,746 -178,244 -543,244 -447,0 -707,-297 -259,-296 -259,-809 V 0 h -578 v 2094 q 0,506 -178,748 -178,242 -550,242 -441,0 -701,-298 -259,-298 -259,-808 V 0 H 581 v 3500 h 578 v -544 q 197,322 472,475 275,153 653,153 382,0 649,-194 267,-193 395,-562 z"
             transform="scale(0.015625)" />
          <path
             id="DejaVuSans-72"
             d="m 2631,2963 q -97,56 -211,82 -114,27 -251,27 -488,0 -749,-317 -261,-317 -261,-911 V 0 H 581 v 3500 h 578 v -544 q 182,319 472,473 291,155 707,155 59,0 131,-8 72,-7 159,-23 z"
             transform="scale(0.015625)" />
          <path
             id="DejaVuSans-61"
             d="m 2194,1759 q -697,0 -966,-159 -269,-159 -269,-544 0,-306 202,-486 202,-179 548,-179 479,0 768,339 289,339 289,901 v 128 z m 1147,238 V 0 H 2766 V 531 Q 2569,213 2275,61 1981,-91 1556,-91 q -537,0 -855,302 -317,302 -317,808 0,590 395,890 396,300 1180,300 h 807 v 57 q 0,397 -261,614 -261,217 -733,217 -300,0 -585,-72 -284,-72 -546,-216 v 532 q 315,122 612,182 297,61 578,61 760,0 1135,-394 375,-393 375,-1193 z"
             transform="scale(0.015625)" />
          <path
             id="DejaVuSans-74"
             d="M 1172,4494 V 3500 H 2356 V 3053 H 1172 V 1153 q 0,-428 117,-550 117,-122 477,-122 h 590 V 0 H 1766 Q 1100,0 847,248 594,497 594,1153 V 3053 H 172 v 447 h 422 v 994 z"
             transform="scale(0.015625)" />
          <path
             id="DejaVuSans-69"
             d="m 603,3500 h 575 V 0 H 603 Z m 0,1363 h 575 V 4134 H 603 Z"
             transform="scale(0.015625)" />
        </defs>
        <use
           xlink:href="#DejaVuSans-56"
           id="use62" />
        <use
           xlink:href="#DejaVuSans-6f"
           x="60.658203"
           id="use63" />
        <use
           xlink:href="#DejaVuSans-6c"
           x="121.83984"
           id="use64" />
        <use
           xlink:href="#DejaVuSans-75"
           x="149.62305"
           id="use65" />
        <use
           xlink:href="#DejaVuSans-6d"
           x="213.00195"
           id="use66" />
        <use
           xlink:href="#DejaVuSans-65"
           x="310.41406"
           id="use67" />
        <use
           xlink:href="#DejaVuSans-20"
           x="371.9375"
           id="use68" />
        <use
           xlink:href="#DejaVuSans-28"
           x="403.72461"
           id="use69" />
        <use
           xlink:href="#DejaVuSans-72"
           x="442.73828"
           id="use70" />
        <use
           xlink:href="#DejaVuSans-61"
           x="483.85156"
           id="use71" />
        <use
           xlink:href="#DejaVuSans-74"
           x="545.13086"
           id="use72" />
        <use
           xlink:href="#DejaVuSans-69"
           x="584.33984"
           id="use73" />
        <use
           xlink:href="#DejaVuSans-6f"
           x="612.12305"
           id="use74" />
        <use
           xlink:href="#DejaVuSans-29"
           x="673.30469"
           id="use75" />
      </g>
    </g>
  </g>
  <g
     id="line2d_31">
    <path
       d="m 202.2536,277.11122 -37.5738,-2.66112 -21.17512,-2.66112 -15.72807,-2.66112 -9.6685,-2.66112 -6.0853,-2.66112 -3.28446,-2.66112 -1.31444,-2.66112 -1.16158,-2.66112 -1.01298,-2.66112 -1.1263,-2.66112 -1.33287,-2.66112 -1.62276,-2.66112 -0.99149,-2.66112 -1.147932,-2.66112 -0.61736,-2.66112 -0.987002,-2.66112 -0.572667,-2.66112 -0.706363,-2.66112 -0.669221,-2.66112 -0.852545,-2.66112 -0.647589,-2.66112 -0.651286,-2.66112 -0.838172,-2.66112 -0.828661,-2.66112 -0.77766,-2.66112 -0.945077,-2.66112 -0.825176,-2.66112 -1.036196,-2.66112 -1.105422,-2.66112 -1.199157,-2.66112 -1.2159,-2.66112 -1.680934,-2.66112 -2.057268,-2.66112 -1.586405,-2.66112 -2.109697,-2.66112 -1.819435,-2.66112 -2.022762,-2.66112 -2.067782,-2.66112 -1.536663,-2.66112 -1.66699,-2.66112 -1.81547,-2.66112 -1.215868,-2.66112 -1.517468,-2.66112 -1.287331,-2.66112 -0.95944,-2.66112 -0.533499,-2.66112 -0.472514,-2.66112 -0.394085,-2.66112 -0.341888,-2.66112 -0.359274,-2.66112 -0.329301,-2.66112 -0.315834,-2.66112 -0.346456,-2.66112 -0.441098,-2.66112 -0.317045,-2.66112 -0.255422,-2.66112 -0.326057,-2.66112 -0.283607,-2.66112 -0.29008,-2.66112 -0.315179,-2.66112 -0.326711,-2.66112 -0.215431,-2.66112 -0.352646,-2.66112 -0.188705,-2.66112 -0.270927,-2.66112 -0.250789,-2.66112 -0.270204,-2.661121 -0.23382,-2.66112 -0.192563,-2.66112 -0.310118,-2.66112 -0.222289,-2.66112 -0.246203,-2.66112 -0.26532,-2.66112 -0.2747,-2.66112 -0.306058,-2.66112 -0.220787,-2.66112 -0.349695,-2.66112 -0.257789,-2.66112 -0.32111,-2.66112 -0.264496,-2.66112 -0.250488,-2.66112 -0.233237,-2.66112 -0.22793,-2.66112 -0.171308,-2.66112 -0.174181,-2.66112 -0.13982,-2.66112 -0.123149,-2.66112 -0.115603,-2.66112 -0.10947,-2.66112 -0.119479,-2.66112 -0.102302,-2.66112 -0.10432,-2.66112 -0.120098,-2.66112 -0.148625,-2.66112 -0.101415,-2.66112 -0.140879,-2.66112 -0.184575,-2.66112 -0.194508,-2.66112 -0.244689,-2.66112 -0.589724,-2.66112"
       clip-path="url(#pb618fcf7ba)"
       style="fill:none;stroke:#1f77b4;stroke-width:1.5;stroke-linecap:square"
       id="path75" />
  </g>
  <g
     id="line2d_32">
    <path
       d="m 190.05736,277.11122 -14.0568,-2.66112 -8.58932,-2.66112 -6.77661,-2.66112 -7.63778,-2.66112 -9.16991,-2.66112 -10.20921,-2.66112 -7.99723,-2.66112 -7.57841,-2.66112 -5.25574,-2.66112 -4.31921,-2.66112 -2.92383,-2.66112 -1.41244,-2.66112 -1.64887,-2.66112 -1.34878,-2.66112 -1.05548,-2.66112 -1.251936,-2.66112 -1.458031,-2.66112 -1.387898,-2.66112 -1.25537,-2.66112 -1.30887,-2.66112 -1.874971,-2.66112 -1.81653,-2.66112 -2.172104,-2.66112 -1.955867,-2.66112 -2.261512,-2.66112 -1.853868,-2.66112 -2.821116,-2.66112 -1.881149,-2.66112 -2.723415,-2.66112 -1.567113,-2.66112 -2.481663,-2.66112 -1.416369,-2.66112 -2.057838,-2.66112 -0.726405,-2.66112 -1.394413,-2.66112 -1.066066,-2.66112 -0.773567,-2.66112 -0.819033,-2.66112 -0.562668,-2.66112 -0.455118,-2.66112 -0.472811,-2.66112 -0.305244,-2.66112 -0.406479,-2.66112 -0.287826,-2.66112 -0.298685,-2.66112 -0.297009,-2.66112 -0.321898,-2.66112 -0.291381,-2.66112 -0.252296,-2.66112 -0.225169,-2.66112 -0.326837,-2.66112 -0.332179,-2.66112 -0.257257,-2.66112 -0.257717,-2.66112 -0.334924,-2.66112 -0.213938,-2.66112 -0.268967,-2.66112 -0.257206,-2.66112 -0.25234,-2.66112 -0.228408,-2.66112 -0.339075,-2.66112 -0.249058,-2.66112 -0.312037,-2.66112 -0.218538,-2.66112 -0.25135,-2.66112 -0.27268,-2.66112 -0.287402,-2.661121 -0.301703,-2.66112 -0.272347,-2.66112 -0.322578,-2.66112 -0.313764,-2.66112 -0.221201,-2.66112 -0.22508,-2.66112 -0.142506,-2.66112 -0.160224,-2.66112 -0.230504,-2.66112 -0.205724,-2.66112 -0.132797,-2.66112 -0.162382,-2.66112 -0.138144,-2.66112 -0.132397,-2.66112 -0.152869,-2.66112 -0.167366,-2.66112 -0.09724,-2.66112 -0.15104,-2.66112 -0.104827,-2.66112 -0.123303,-2.66112 -0.114016,-2.66112 -0.117977,-2.66112 -0.08756,-2.66112 -0.134132,-2.66112 -0.08912,-2.66112 -0.116604,-2.66112 -0.122418,-2.66112 -0.09216,-2.66112 -0.164631,-2.66112 -0.169377,-2.66112 -0.164165,-2.66112 -0.242317,-2.66112 -0.547078,-2.66112"
       clip-path="url(#pb618fcf7ba)"
       style="fill:none;stroke:#ff7f0e;stroke-width:1.5;stroke-linecap:square"
       id="path76" />
  </g>
  <g
     id="line2d_34">
    <path
       d="m 340.70193,277.11122 -12.53521,-2.66112 -3.35122,-2.66112 -2.56017,-2.66112 -1.69725,-2.66112 -1.69237,-2.66112 -2.02992,-2.66112 -3.33593,-2.66112 -2.53644,-2.66112 -2.29694,-2.66112 -2.39369,-2.66112 -1.78614,-2.66112 -1.59671,-2.66112 -2.59284,-2.66112 -2.53802,-2.66112 -2.76441,-2.66112 -2.91668,-2.66112 -2.38675,-2.66112 -2.16316,-2.66112 -2.17166,-2.66112 -2.13578,-2.66112 -1.6292,-2.66112 -2.4874,-2.66112 -2.61492,-2.66112 -2.62367,-2.66112 -2.52178,-2.66112 -0.87254,-2.66112 -3.07131,-2.66112 -1.95176,-2.66112 -3.23276,-2.66112 -1.82036,-2.66112 -1.32097,-2.66112 -1.56269,-2.66112 -1.01728,-2.66112 -1.18734,-2.66112 -1.62709,-2.66112 -0.97181,-2.66112 -1.42698,-2.66112 -2.94302,-2.66112 -1.57834,-2.66112 -2.30548,-2.66112 -2.2102,-2.66112 -3.26101,-2.66112 -1.72832,-2.66112 -2.62221,-2.66112 -2.033,-2.66112 -1.94936,-2.66112 -1.31906,-2.66112 -1.82662,-2.66112 -2.70462,-2.66112 -2.80536,-2.66112 -3.10749,-2.66112 -3.5259,-2.66112 -2.42768,-2.66112 -2.32303,-2.66112 -2.1847,-2.66112 -1.81597,-2.66112 -2.6056,-2.66112 -2.78888,-2.66112 -1.78959,-2.66112 -2.04096,-2.66112 -2.73228,-2.66112 -2.69707,-2.66112 -1.72467,-2.66112 -2.06509,-2.66112 -2.38157,-2.66112 -2.46483,-2.66112 -2.19251,-2.661121 -1.50737,-2.66112 -1.7335,-2.66112 -1.73136,-2.66112 -2.20403,-2.66112 -1.39571,-2.66112 -1.60503,-2.66112 -1.0705,-2.66112 -1.40374,-2.66112 -1.02445,-2.66112 -1.02145,-2.66112 -1.45599,-2.66112 -1.1297,-2.66112 -1.29854,-2.66112 -2.17909,-2.66112 -1.61709,-2.66112 -2.36251,-2.66112 -2.28312,-2.66112 -1.35444,-2.66112 -1.99976,-2.66112 -1.62784,-2.66112 -2.13877,-2.66112 -1.74076,-2.66112 -1.86593,-2.66112 -1.94216,-2.66112 -1.97426,-2.66112 -1.9787,-2.66112 -4.23783,-2.66112 -5.07362,-2.66112 -4.2516,-2.66112 -3.65999,-2.66112 -11.43295,-2.66112 -9.451612,-2.66112 -20.275508,-2.66112"
       clip-path="url(#pb618fcf7ba)"
       style="fill:none;stroke:#d62728;stroke-width:1.5;stroke-linecap:square"
       id="path78" />
  </g>
  <g
     id="line2d_36"
     transform="translate(-12)">
    <path
       d="m 355.6147,277.11122 -6.27163,-2.66112 -2.15228,-2.66112 -1.68162,-2.66112 -1.08,-2.66112 -1.11991,-2.66112 -1.84776,-2.66112 -0.81163,-2.66112 -0.57253,-2.66112 -0.51503,-2.66112 -0.39788,-2.66112 -0.45801,-2.66112 -0.44353,-2.66112 -0.34461,-2.66112 -0.35486,-2.66112 -0.25464,-2.66112 -0.28513,-2.66112 -0.3415,-2.66112 -0.39263,-2.66112 -0.32847,-2.66112 -0.30426,-2.66112 -0.27563,-2.66112 -0.32318,-2.66112 -0.23369,-2.66112 -0.25885,-2.66112 -0.17308,-2.66112 -0.24939,-2.66112 -0.31701,-2.66112 -0.284,-2.66112 -0.18744,-2.66112 -0.19911,-2.66112 -0.2337,-2.66112 -0.34195,-2.66112 -0.14057,-2.66112 -0.18777,-2.66112 -0.1428,-2.66112 -0.19744,-2.66112 -0.19081,-2.66112 -0.40081,-2.66112 -0.15549,-2.66112 -0.21262,-2.66112 -0.1922,-2.66112 -0.18098,-2.66112 -0.2695,-2.66112 -0.16537,-2.66112 -0.14324,-2.66112 -0.13812,-2.66112 -0.16326,-2.66112 -0.19669,-2.66112 -0.15024,-2.66112 -0.15257,-2.66112 -0.15324,-2.66112 -0.20891,-2.66112 -0.17487,-2.66112 -0.13595,-2.66112 -0.14259,-2.66112 -0.14373,-2.66112 -0.14658,-2.66112 -0.18865,-2.66112 -0.12399,-2.66112 -0.16611,-2.66112 -0.10252,-2.66112 -0.12782,-2.66112 -0.1167,-2.66112 -0.1355,-2.66112 -0.16214,-2.66112 -0.1223,-2.66112 -0.14982,-2.661121 -0.10902,-2.66112 -0.11663,-2.66112 -0.0813,-2.66112 -0.073,-2.66112 -0.11135,-2.66112 -0.0933,-2.66112 -0.0737,-2.66112 -0.12473,-2.66112 -0.0758,-2.66112 -0.0704,-2.66112 -0.10598,-2.66112 -0.0742,-2.66112 -0.072,-2.66112 -0.0887,-2.66112 -0.10718,-2.66112 -0.0749,-2.66112 -0.13565,-2.66112 -0.0795,-2.66112 -0.0517,-2.66112 -0.0496,-2.66112 -0.0641,-2.66112 -0.0496,-2.66112 -0.0534,-2.66112 -0.0475,-2.66112 -0.0386,-2.66112 -0.0517,-2.66112 -0.10584,-2.66112 -0.0999,-2.66112 -0.14061,-2.66112 -0.24087,-2.66112 -0.27249,-2.66112 -0.40591,-2.66112 -1.7632,-2.66112"
       clip-path="url(#pb618fcf7ba)"
       style="fill:none;stroke:#8c564b;stroke-width:1.5;stroke-linecap:square"
       id="path80" />
  </g>
  <g
     id="line2d_43"
     transform="translate(-12)">
    <path
       d="m 362.6139,277.11122 -10.1677,-2.66112 -3.88203,-2.66112 -1.74759,-2.66112 -1.52982,-2.66112 -1.0028,-2.66112 -1.13192,-2.66112 -1.48959,-2.66112 -0.80284,-2.66112 -0.58208,-2.66112 -0.58809,-2.66112 -0.49,-2.66112 -0.41654,-2.66112 -0.34734,-2.66112 -0.3715,-2.66112 -0.32747,-2.66112 -0.31756,-2.66112 -0.27091,-2.66112 -0.39639,-2.66112 -0.28159,-2.66112 -0.43986,-2.66112 -0.38028,-2.66112 -0.27792,-2.66112 -0.30785,-2.66112 -0.2854,-2.66112 -0.25065,-2.66112 -0.27442,-2.66112 -0.24248,-2.66112 -0.30142,-2.66112 -0.19646,-2.66112 -0.27688,-2.66112 -0.22768,-2.66112 -0.23014,-2.66112 -0.26091,-2.66112 -0.20373,-2.66112 -0.19136,-2.66112 -0.23897,-2.66112 -0.1833,-2.66112 -0.3255,-2.66112 -0.17359,-2.66112 -0.24896,-2.66112 -0.16823,-2.66112 -0.25362,-2.66112 -0.21757,-2.66112 -0.18171,-2.66112 -0.17383,-2.66112 -0.15628,-2.66112 -0.18415,-2.66112 -0.20866,-2.66112 -0.156,-2.66112 -0.21712,-2.66112 -0.20768,-2.66112 -0.15766,-2.66112 -0.16109,-2.66112 -0.155,-2.66112 -0.1713,-2.66112 -0.13549,-2.66112 -0.12876,-2.66112 -0.19046,-2.66112 -0.14637,-2.66112 -0.12631,-2.66112 -0.1024,-2.66112 -0.13208,-2.66112 -0.12372,-2.66112 -0.13589,-2.66112 -0.11713,-2.66112 -0.12921,-2.66112 -0.12206,-2.661121 -0.14558,-2.66112 -0.0954,-2.66112 -0.0884,-2.66112 -0.11402,-2.66112 -0.098,-2.66112 -0.14005,-2.66112 -0.0958,-2.66112 -0.10554,-2.66112 -0.12134,-2.66112 -0.10112,-2.66112 -0.12863,-2.66112 -0.12338,-2.66112 -0.15678,-2.66112 -0.0839,-2.66112 -0.0758,-2.66112 -0.0822,-2.66112 -0.07,-2.66112 -0.0748,-2.66112 -0.0695,-2.66112 -0.16693,-2.66112 -0.14385,-2.66112 -0.28206,-2.66112 -0.28463,-2.66112 -0.37108,-2.66112 -0.42668,-2.66112 -0.65485,-2.66112 -0.70913,-2.66112 -0.84402,-2.66112 -1.03342,-2.66112 -1.32181,-2.66112 -1.71615,-2.66112 -2.84647,-2.66112 -26.17356,-2.66112"
       clip-path="url(#pb618fcf7ba)"
       style="fill:none;stroke:#2ca02c;stroke-width:1.5;stroke-linecap:square"
       id="path87" />
  </g>
  <g
     id="patch_3">
    <path
       d="M 43.78125,277.11122 V 10.999219"
       style="fill:none;stroke:#000000;stroke-width:0.8;stroke-linecap:square;stroke-linejoin:miter"
       id="path106" />
  </g>
  <g
     id="patch_4">
    <path
       d="M 400.90125,277.11122 V 10.999219"
       style="fill:none;stroke:#000000;stroke-width:0.8;stroke-linecap:square;stroke-linejoin:miter"
       id="path107" />
  </g>
  <g
     id="patch_5">
    <path
       d="m 43.78125,277.11122 h 357.12"
       style="fill:none;stroke:#000000;stroke-width:0.8;stroke-linecap:square;stroke-linejoin:miter"
       id="path108" />
  </g>
  <g
     id="patch_6">
    <path
       d="m 43.78125,10.999219 h 357.12"
       style="fill:none;stroke:#000000;stroke-width:0.8;stroke-linecap:square;stroke-linejoin:miter"
       id="path109" />
  </g>
  <g
     id="g1"
     transform="translate(-107.71244,-6.2692189)">
    <g
       id="patch_7"
       transform="translate(21.821609,-17.747755)"
       style="fill:#ffffff">
      <path
         d="m 407.90125,116.30209 h 72.44844 c 1.33333,0 2,-0.66667 2,-2 V 41.808344 c 0,-1.333333 -0.66667,-2 -2,-2 h -72.44844 c -1.33333,0 -2,0.666667 -2,2 v 72.493746 c 0,1.33333 0.66667,2 2,2 z"
         style="opacity:0.8;fill:#ffffff;stroke:#cccccc;stroke-linejoin:miter"
         id="path110"
         sodipodi:nodetypes="sssssssss" />
    </g>
    <g
       id="g200"
       transform="translate(21.844755,-17.535258)">
      <g
         id="g195">
        <g
           id="line2d_62">
          <path
             d="m 409.90125,47.906781 h 10 10"
             style="fill:none;stroke:#1f77b4;stroke-width:1.5;stroke-linecap:square"
             id="path111" />
        </g>
        <g
           id="text_18">
          <!-- tfg -->
          <g
             transform="matrix(0.1,0,0,-0.1,437.90125,51.406781)"
             id="g113">
            <defs
               id="defs111">
              <path
                 id="DejaVuSans-66"
                 d="m 2375,4863 v -479 h -550 q -309,0 -430,-125 -120,-125 -120,-450 v -309 h 947 V 3053 H 1275 V 0 H 697 V 3053 H 147 v 447 h 550 v 244 q 0,584 272,851 272,268 862,268 z"
                 transform="scale(0.015625)" />
              <path
                 id="DejaVuSans-67"
                 d="m 2906,1791 q 0,625 -258,968 -257,344 -723,344 -462,0 -720,-344 -258,-343 -258,-968 0,-622 258,-966 258,-344 720,-344 466,0 723,344 258,344 258,966 z M 3481,434 q 0,-893 -397,-1329 -396,-436 -1215,-436 -303,0 -572,45 -269,45 -522,139 v 559 q 253,-137 500,-202 247,-66 503,-66 566,0 847,295 281,295 281,892 V 616 Q 2728,306 2450,153 2172,0 1784,0 1141,0 747,490 353,981 353,1791 q 0,812 394,1302 394,491 1037,491 388,0 666,-153 278,-153 456,-462 v 531 h 575 z"
                 transform="scale(0.015625)" />
            </defs>
            <use
               xlink:href="#DejaVuSans-74"
               id="use111" />
            <use
               xlink:href="#DejaVuSans-66"
               x="39.208984"
               id="use112" />
            <use
               xlink:href="#DejaVuSans-67"
               x="74.414062"
               id="use113" />
          </g>
        </g>
      </g>
      <g
         id="g196"
         transform="translate(0,1.7734385)">
        <g
           id="line2d_63">
          <path
             d="m 409.90125,62.584906 h 10 10"
             style="fill:none;stroke:#ff7f0e;stroke-width:1.5;stroke-linecap:square"
             id="path113" />
        </g>
        <g
           id="text_19">
          <!-- tfd -->
          <g
             transform="matrix(0.1,0,0,-0.1,437.90125,66.084906)"
             id="g116">
            <defs
               id="defs113">
              <path
                 id="DejaVuSans-64"
                 d="m 2906,2969 v 1894 h 575 V 0 H 2906 V 525 Q 2725,213 2448,61 2172,-91 1784,-91 1150,-91 751,415 353,922 353,1747 q 0,825 398,1331 399,506 1033,506 388,0 664,-152 277,-151 458,-463 z M 947,1747 q 0,-634 261,-995 261,-361 717,-361 456,0 718,361 263,361 263,995 0,634 -263,995 -262,361 -718,361 -456,0 -717,-361 -261,-361 -261,-995 z"
                 transform="scale(0.015625)" />
            </defs>
            <use
               xlink:href="#DejaVuSans-74"
               id="use114" />
            <use
               xlink:href="#DejaVuSans-66"
               x="39.208984"
               id="use115" />
            <use
               xlink:href="#DejaVuSans-64"
               x="74.414062"
               id="use116" />
          </g>
        </g>
      </g>
      <g
         id="g197"
         transform="translate(0,0.418753)">
        <g
           id="line2d_65">
          <path
             d="m 409.90125,91.941156 h 10 10"
             style="fill:none;stroke:#d62728;stroke-width:1.5;stroke-linecap:square"
             id="path122" />
        </g>
        <g
           id="text_21">
          <!-- rectum -->
          <g
             transform="matrix(0.1,0,0,-0.1,437.90125,95.441156)"
             id="g128">
            <defs
               id="defs122">
              <path
                 id="DejaVuSans-63"
                 d="m 3122,3366 v -538 q -244,135 -489,202 -245,67 -495,67 -560,0 -870,-355 -309,-354 -309,-995 0,-641 309,-996 310,-354 870,-354 250,0 495,67 245,67 489,202 V 134 Q 2881,22 2623,-34 2366,-91 2075,-91 1284,-91 818,406 353,903 353,1747 q 0,856 470,1346 471,491 1290,491 265,0 518,-55 253,-54 491,-163 z"
                 transform="scale(0.015625)" />
            </defs>
            <use
               xlink:href="#DejaVuSans-72"
               id="use123" />
            <use
               xlink:href="#DejaVuSans-65"
               x="38.863281"
               id="use124" />
            <use
               xlink:href="#DejaVuSans-63"
               x="100.38672"
               id="use125" />
            <use
               xlink:href="#DejaVuSans-74"
               x="155.36719"
               id="use126" />
            <use
               xlink:href="#DejaVuSans-75"
               x="194.57617"
               id="use127" />
            <use
               xlink:href="#DejaVuSans-6d"
               x="257.95508"
               id="use128" />
          </g>
        </g>
      </g>
      <g
         id="g198"
         transform="translate(0,-15)">
        <g
           id="line2d_67">
          <path
             d="m 409.90125,121.29741 h 10 10"
             style="fill:none;stroke:#8c564b;stroke-width:1.5;stroke-linecap:square"
             id="path130" />
        </g>
        <g
           id="text_23">
          <!-- prostate -->
          <g
             transform="matrix(0.1,0,0,-0.1,437.90125,124.79741)"
             id="g138">
            <defs
               id="defs130">
              <path
                 id="DejaVuSans-70"
                 d="M 1159,525 V -1331 H 581 v 4831 h 578 v -531 q 182,312 458,463 277,152 661,152 638,0 1036,-506 399,-506 399,-1331 0,-825 -399,-1332 -398,-506 -1036,-506 -384,0 -661,152 -276,152 -458,464 z m 1957,1222 q 0,634 -261,995 -261,361 -717,361 -457,0 -718,-361 -261,-361 -261,-995 0,-634 261,-995 261,-361 718,-361 456,0 717,361 261,361 261,995 z"
                 transform="scale(0.015625)" />
            </defs>
            <use
               xlink:href="#DejaVuSans-70"
               id="use131" />
            <use
               xlink:href="#DejaVuSans-72"
               x="63.476562"
               id="use132" />
            <use
               xlink:href="#DejaVuSans-6f"
               x="102.33984"
               id="use133" />
            <use
               xlink:href="#DejaVuSans-73"
               x="163.52148"
               id="use134" />
            <use
               xlink:href="#DejaVuSans-74"
               x="215.62109"
               id="use135" />
            <use
               xlink:href="#DejaVuSans-61"
               x="254.83008"
               id="use136" />
            <use
               xlink:href="#DejaVuSans-74"
               x="316.10938"
               id="use137" />
            <use
               xlink:href="#DejaVuSans-65"
               x="355.31836"
               id="use138" />
          </g>
        </g>
      </g>
      <g
         id="g199"
         transform="translate(0,0.0203155)">
        <g
           id="line2d_74"
           transform="translate(0,-145.5)">
          <path
             d="m 409.90125,224.04428 h 10 10"
             style="fill:none;stroke:#2ca02c;stroke-width:1.5;stroke-linecap:square"
             id="path185" />
        </g>
        <g
           id="text_30"
           transform="translate(0,-145.5)">
          <!-- PTV2 -->
          <g
             transform="matrix(0.1,0,0,-0.1,437.90125,227.54428)"
             id="g189">
            <path
               id="use186"
               d="M 19.671875,64.796875 V 37.40625 h 12.40625 q 6.890625,0 10.640625,3.5625 3.765625,3.5625 3.765625,10.15625 0,6.546875 -3.765625,10.109375 -3.75,3.5625 -10.640625,3.5625 z M 9.8125,72.90625 h 22.265625 q 12.265625,0 18.53125,-5.546875 6.28125,-5.546875 6.28125,-16.234375 0,-10.796875 -6.28125,-16.3125 -6.265625,-5.515625 -18.53125,-5.515625 H 19.671875 V 0 H 9.8125 Z"
               style="stroke-width:0.015625" />
            <path
               id="use187"
               d="m 60.005859,72.90625 h 61.671871 v -8.3125 H 95.802734 V 0 h -9.90625 V 64.59375 H 60.005859 Z"
               style="stroke-width:0.015625" />
            <use
               xlink:href="#DejaVuSans-56"
               x="121.38672"
               id="use188" />
          </g>
        </g>
      </g>
    </g>
  </g>
  <defs
     id="defs193">
    <clipPath
       id="pb618fcf7ba">
      <rect
         x="43.78125"
         y="10.999219"
         width="357.12"
         height="266.112"
         id="rect193" />
    </clipPath>
  </defs>
</svg>
