<?xml version="1.0" encoding="UTF-8" standalone="no"?>
<!-- Created with Inkscape (http://www.inkscape.org/) -->

<svg
   width="100mm"
   height="125mm"
   viewBox="0 0 100 125"
   version="1.1"
   id="svg1"
   xml:space="preserve"
   inkscape:version="1.3.2 (091e20e, 2023-11-25, custom)"
   sodipodi:docname="hand.svg"
   xmlns:inkscape="http://www.inkscape.org/namespaces/inkscape"
   xmlns:sodipodi="http://sodipodi.sourceforge.net/DTD/sodipodi-0.dtd"
   xmlns="http://www.w3.org/2000/svg"
   xmlns:svg="http://www.w3.org/2000/svg"><sodipodi:namedview
     id="namedview1"
     pagecolor="#ffffff"
     bordercolor="#000000"
     borderopacity="0.25"
     inkscape:showpageshadow="2"
     inkscape:pageopacity="0.0"
     inkscape:pagecheckerboard="0"
     inkscape:deskcolor="#d1d1d1"
     inkscape:document-units="mm"
     inkscape:zoom="0.71000982"
     inkscape:cx="145.06842"
     inkscape:cy="226.05321"
     inkscape:window-width="1920"
     inkscape:window-height="1009"
     inkscape:window-x="1912"
     inkscape:window-y="-8"
     inkscape:window-maximized="1"
     inkscape:current-layer="layer1" /><defs
     id="defs1" /><g
     inkscape:label="Layer 1"
     inkscape:groupmode="layer"
     id="layer1"
     transform="translate(-125.43792,-172.2432)"><path
       id="path7"
       style="color:#000000;opacity:0.93179;fill:#000000;stroke-linecap:round;stroke-linejoin:round;-inkscape-stroke:none;paint-order:markers stroke fill"
       d="m 170.49525,182.67022 c 0,-1.24264 -1.00736,-2.25 -2.25,-2.25 -1.24264,0 -2.25,1.00736 -2.25,2.25 v 9.875 c 0,1.24264 1.00736,2.25 2.25,2.25 1.24264,0 2.25,-1.00736 2.25,-2.25 z m 14.72757,6.15548 c 0.87868,-0.87868 2.3033,-0.87868 3.18198,0 0.87868,0.87868 0.87868,2.3033 0,3.18198 l -6.98268,6.98268 c -0.87868,0.87868 -2.3033,0.87868 -3.18198,0 -0.87868,-0.87868 -0.87868,-2.3033 0,-3.18198 z m -33.87005,0 c -0.87868,-0.87868 -2.3033,-0.87868 -3.18198,0 -0.87868,0.87868 -0.87868,2.3033 0,3.18198 l 6.98268,6.98268 c 0.87868,0.87868 2.3033,0.87868 3.18198,0 0.87868,-0.87868 0.87868,-2.3033 0,-3.18198 z m -9.23063,17.77292 c -1.24264,0 -2.25,1.00736 -2.25,2.25 0,1.24264 1.00736,2.25 2.25,2.25 h 9.875 c 1.24264,0 2.25,-1.00736 2.25,-2.25 0,-1.24264 -1.00736,-2.25 -2.25,-2.25 z m 42.51968,0 c -1.24264,0 -2.25,1.00736 -2.25,2.25 0,1.24264 1.00736,2.25 2.25,2.25 h 9.875 c 1.24264,0 2.25,-1.00736 2.25,-2.25 0,-1.24264 -1.00736,-2.25 -2.25,-2.25 z m -21.80294,82.12773 c -2.15322,-0.95687 -2.60365,-2.09602 -2.60365,-6.58463 v -3.51771 l -1.45833,-1.13896 c -5.75883,-4.49771 -12.09365,-17.74123 -16.91579,-35.36398 -0.51726,-1.89035 -0.94047,-3.948 -0.94047,-4.57256 0,-2.17518 1.1555,-3.95881 3.43959,-5.30936 2.20865,-1.30595 5.61784,-0.86 8.20208,1.07288 1.66965,1.24882 4.16205,4.00497 5.77493,6.38604 l 1.76569,2.60668 0.1323,-18.2171 c 0.13085,-18.01939 0.13855,-18.23063 0.70889,-19.46519 0.82248,-1.78033 2.7587,-3.74314 4.39392,-4.45426 3.93763,-1.71237 8.17596,0.14784 10.20726,4.47999 l 0.69722,1.48696 0.0795,8.6651 c 0.0438,4.76581 0.11808,8.66511 0.16517,8.66511 0.0471,0 0.59181,-0.1786 1.21049,-0.39688 1.46879,-0.51822 3.03458,-0.50255 4.64922,0.0465 1.79259,0.6096 4.1194,2.94688 4.77706,4.79855 0.26813,0.75494 0.56365,1.37262 0.65672,1.37262 0.0931,0 0.67541,-0.17859 1.29408,-0.39687 2.14621,-0.75723 4.55823,-0.39775 6.55663,0.97718 1.32798,0.91368 2.77807,2.80389 3.25149,4.23836 0.37773,1.14452 0.30169,1.11713 1.70126,0.61292 1.42815,-0.51451 3.46559,-0.49875 5.04385,0.039 1.59592,0.54379 3.69896,2.56993 4.62021,4.45128 0.60524,1.23599 0.65388,1.6532 0.74029,6.35 0.13546,7.36222 -0.62267,12.65051 -2.7386,19.10298 -1.86146,5.67646 -3.97445,9.46449 -6.88945,12.35095 l -1.64892,1.63277 -0.0929,3.71728 c -0.0861,3.44458 -0.14105,3.78756 -0.74977,4.67536 -0.36131,0.52695 -1.09189,1.20255 -1.62353,1.50135 -0.94723,0.53237 -1.29475,0.54283 -17.33475,0.52178 -11.97645,-0.0157 -16.55694,-0.10539 -17.07178,-0.33419 z m 32.05676,-7.59032 c 0,-2.29446 0.11932,-3.73294 0.35662,-4.29948 0.19614,-0.46827 1.15458,-1.5513 2.12988,-2.40673 2.76356,-2.42391 4.50135,-5.32481 6.28001,-10.48321 2.01571,-5.8459 2.69712,-10.12065 2.72308,-17.08287 l 0.0198,-5.30892 -0.72352,-1.09539 c -1.35938,-2.05806 -3.65307,-2.11005 -5.17305,-0.11725 -0.62982,0.82573 -0.72111,1.22359 -0.85618,3.73154 -0.16434,3.0514 -0.44811,3.79295 -1.64044,4.28683 -0.56141,0.23255 -0.91931,0.22805 -1.51579,-0.019 -1.49969,-0.62119 -1.6004,-1.05122 -1.6004,-6.83358 0,-4.98453 -0.032,-5.3203 -0.61212,-6.42546 -1.31435,-2.50384 -3.90724,-2.71788 -5.41123,-0.44668 -0.68345,1.0321 -0.73085,1.30381 -0.85581,4.90612 -0.13114,3.78017 -0.13879,3.81908 -0.87465,4.4518 -0.9486,0.81562 -2.06441,0.81572 -3.0132,2.6e-4 l -0.74236,-0.63803 -0.13229,-6.70415 c -0.11128,-5.63888 -0.20372,-6.83455 -0.58179,-7.52477 -1.36263,-2.48762 -4.48445,-2.36045 -5.74033,0.23384 -0.51812,1.07029 -0.55705,1.58725 -0.55705,7.39688 v 6.24616 l -0.68498,0.81405 c -0.81524,0.96886 -2.08218,1.09673 -3.05602,0.30845 l -0.62463,-0.5056 -0.13229,-18.21367 -0.13229,-18.21367 -0.59791,-1.11903 c -0.68534,-1.28267 -1.72767,-1.92368 -3.12802,-1.92368 -0.77208,0 -1.15677,0.1937 -1.85499,0.93404 -0.4845,0.51371 -1.00391,1.37692 -1.15425,1.91822 -0.17855,0.64292 -0.27385,9.12027 -0.27481,24.44707 -0.002,25.4359 0.0888,23.80269 -1.36054,24.57835 -0.65843,0.35238 -1.89558,0.0944 -2.44184,-0.50922 -0.2289,-0.25293 -0.73168,-1.40704 -1.11729,-2.56469 -0.90601,-2.71996 -2.72756,-6.60742 -4.27161,-9.11627 -3.39195,-5.51139 -6.7142,-8.36103 -8.87112,-7.60912 -1.39975,0.48795 -1.41988,1.05022 -0.193,5.39072 2.46109,8.70689 5.03367,15.72263 7.94437,21.66528 2.86532,5.84999 5.25745,9.17399 8.12846,11.29492 1.95319,1.44291 2.18109,2.09568 2.18109,6.24728 0,1.87219 0.0794,3.48335 0.17639,3.58037 0.097,0.097 6.88358,0.17639 15.08125,0.17639 h 14.90486 z" /></g></svg>
