<?xml version="1.0" encoding="UTF-8" standalone="no"?>
<!-- Created with Inkscape (http://www.inkscape.org/) -->

<svg
   width="150mm"
   height="190mm"
   viewBox="0 0 150 190"
   version="1.1"
   id="svg1"
   xml:space="preserve"
   inkscape:version="1.3.2 (091e20e, 2023-11-25, custom)"
   sodipodi:docname="power.svg"
   xmlns:inkscape="http://www.inkscape.org/namespaces/inkscape"
   xmlns:sodipodi="http://sodipodi.sourceforge.net/DTD/sodipodi-0.dtd"
   xmlns="http://www.w3.org/2000/svg"
   xmlns:svg="http://www.w3.org/2000/svg"><sodipodi:namedview
     id="namedview1"
     pagecolor="#ffffff"
     bordercolor="#000000"
     borderopacity="0.25"
     inkscape:showpageshadow="2"
     inkscape:pageopacity="0.0"
     inkscape:pagecheckerboard="0"
     inkscape:deskcolor="#d1d1d1"
     inkscape:document-units="mm"
     inkscape:zoom="0.51213161"
     inkscape:cx="-36.123527"
     inkscape:cy="268.48567"
     inkscape:window-width="1920"
     inkscape:window-height="1009"
     inkscape:window-x="3832"
     inkscape:window-y="-8"
     inkscape:window-maximized="1"
     inkscape:current-layer="layer1" /><defs
     id="defs1" /><g
     inkscape:label="Layer 1"
     inkscape:groupmode="layer"
     id="layer1"
     transform="translate(-37.085067,-13.558645)"><g
       id="g4"
       transform="translate(3.4099753,6.4619813)"><path
         id="path2"
         style="fill:#d40000"
         d="m 88.157926,63.758899 c -0.197119,-0.19713 -4.091752,0.609996 -7.439339,1.542025 -20.557726,5.723624 -36.720264,22.400226 -41.947827,43.281596 -2.057053,8.21684 -2.242472,18.13537 -0.495577,26.52189 3.24575,15.58226 12.625368,29.33749 25.897644,37.9796 4.618207,3.00711 8.188001,4.75651 13.486515,6.60941 2.435808,0.85185 3.175,1.04027 3.175,0.80822 0,-0.0612 0.357978,-3.2948 0.795818,-7.1856 0.437849,-3.89082 0.758734,-7.11159 0.713134,-7.15719 -0.04561,-0.0456 -0.909597,-0.39176 -1.920296,-0.76946 -2.415478,-0.90266 -6.957648,-3.30682 -9.113656,-4.82348 -10.907301,-7.67278 -17.525818,-18.41443 -19.468579,-31.59859 -0.587019,-3.98368 -0.402348,-10.51222 0.413412,-14.62443 2.811474,-14.17253 11.975357,-26.058126 24.973152,-32.39027 l 2.874244,-1.400431 4.095874,-8.32869 c 2.252817,-4.580866 4.035181,-8.3899 3.960481,-8.4646 z m 25.089944,1.537374 c -0.075,0.07495 -1.72186,13.79107 -1.72186,14.34021 0,0.07263 0.6846,0.387812 1.52135,0.700732 9.88601,3.697131 18.34724,11.139083 23.60321,20.419425 2.70447,-2.193258 6.19621,-3.466925 9.66608,-3.496944 1.66846,-0.08204 3.36731,0.08525 5.00538,0.492477 -0.85148,-1.832648 -1.79633,-3.609137 -2.81792,-5.332491 -3.19549,1.13e-4 -6.39236,-0.02838 -9.58597,0.0026 -1.28029,-0.119299 -2.83946,0.355162 -3.84525,-0.687814 -0.76242,-1.309352 -1.08995,-2.846573 -1.40611,-4.322216 -0.74839,-3.838587 -0.72788,-7.87744 0.13436,-11.70833 -4.2669,-3.330557 -8.99044,-6.098124 -14.07305,-8.183996 -3.03497,-1.245529 -6.32833,-2.375527 -6.48022,-2.223637 z m 43.55341,56.559337 c -1.59339,1.17049 -3.43207,2.01885 -5.35161,2.48512 -2.96545,0.7572 -6.16284,0.69582 -9.12606,-0.13694 -0.0239,3.88934 -0.13198,5.03587 -0.70848,7.7525 -2.98355,14.0594 -11.89661,25.61056 -24.54527,31.81046 l -2.79053,1.36787 -4.22093,8.28632 c -2.32154,4.55749 -4.2608,8.39727 -4.3093,8.53281 -0.12679,0.35426 0.37773,0.31124 3.23908,-0.2775 11.42171,-2.35011 21.64489,-7.81517 29.92892,-15.99851 11.76617,-11.62316 17.92054,-26.31016 17.91054,-42.74416 -2.2e-4,-0.36589 -0.0207,-0.7164 -0.0264,-1.07797 z" /><path
         style="fill:#aa0000"
         d="m 89.372161,190.27464 c -1.0614,-0.46142 -1.92125,-1.82462 -1.92212,-3.04731 -4.93e-4,-0.69746 4.910467,-45.50411 5.51878,-49.72392 l -27.877389,-0.15 -0.96402,-0.59948 c -1.238595,-0.77023 -1.914182,-2.16592 -1.750661,-3.61667 0.08634,-0.76604 5.841299,-12.54664 19.01404,-38.92244 20.444379,-40.9358 19.386009,-39.0161 21.509039,-39.01354 1.76718,0.002 3.59596,1.88546 3.5979,3.70521 5.5e-4,0.51045 -1.30813,12.29763 -2.90817,26.19375 -1.60003,13.89612 -2.90972,25.35497 -2.91041,25.46411 -7e-4,0.10914 6.31287,0.19844 14.03015,0.19844 15.22348,0 15.20224,-0.002 16.35125,1.45882 1.26804,1.61206 1.98188,0.048 -17.60816,38.58118 -9.99996,19.66971 -18.546609,36.41586 -18.992559,37.21365 -1.33526,2.38878 -3.04338,3.14695 -5.08767,2.25824 z"
         id="path1" /><text
         xml:space="preserve"
         style="font-style:normal;font-variant:normal;font-weight:bold;font-stretch:normal;font-size:151.731px;font-family:'Segoe UI';-inkscape-font-specification:'Segoe UI Bold';text-align:center;letter-spacing:3.18279px;word-spacing:0px;text-anchor:middle;fill:#0088aa;stroke:none;stroke-width:30.2417;stroke-linecap:round;stroke-linejoin:round;paint-order:fill markers stroke"
         x="150.00041"
         y="121.57808"
         id="text3"><tspan
           sodipodi:role="line"
           id="tspan3"
           x="151.59181"
           y="121.57808"
           style="font-style:normal;font-variant:normal;font-weight:bold;font-stretch:normal;font-family:'Segoe UI';-inkscape-font-specification:'Segoe UI Bold';fill:#0088aa;stroke:none;stroke-width:30.2416">?</tspan></text></g></g></svg>
