<?xml version="1.0" encoding="UTF-8" standalone="no"?>
<!-- Created with Inkscape (http://www.inkscape.org/) -->

<svg
   width="200mm"
   height="150mm"
   viewBox="0 0 200.00001 150.00001"
   version="1.1"
   id="svg1"
   xml:space="preserve"
   inkscape:version="1.3.2 (091e20e, 2023-11-25, custom)"
   sodipodi:docname="power0.svg"
   xmlns:inkscape="http://www.inkscape.org/namespaces/inkscape"
   xmlns:sodipodi="http://sodipodi.sourceforge.net/DTD/sodipodi-0.dtd"
   xmlns="http://www.w3.org/2000/svg"
   xmlns:svg="http://www.w3.org/2000/svg"><sodipodi:namedview
     id="namedview1"
     pagecolor="#ffffff"
     bordercolor="#000000"
     borderopacity="0.25"
     inkscape:showpageshadow="2"
     inkscape:pageopacity="0.0"
     inkscape:pagecheckerboard="0"
     inkscape:deskcolor="#d1d1d1"
     inkscape:document-units="mm"
     inkscape:zoom="0.72426347"
     inkscape:cx="569.54412"
     inkscape:cy="265.78726"
     inkscape:window-width="1920"
     inkscape:window-height="1009"
     inkscape:window-x="3832"
     inkscape:window-y="-8"
     inkscape:window-maximized="1"
     inkscape:current-layer="layer1" /><defs
     id="defs1" /><g
     inkscape:label="Layer 1"
     inkscape:groupmode="layer"
     id="layer1"
     transform="translate(-9.1526233,-20.187255)"><circle
       style="fill:none;stroke:#808080;stroke-width:13.1806;stroke-linecap:round;stroke-linejoin:round;stroke-dasharray:none;paint-order:fill markers stroke"
       id="path1"
       cx="107.42159"
       cy="111.0639"
       r="43.935196" /><path
       d="M 43.37937,122.13602 H 19.823543 v -9.51707 H 43.37937 Z"
       id="text2"
       style="font-weight:bold;font-size:88.1944px;font-family:'Segoe UI';-inkscape-font-specification:'Segoe UI Bold';text-align:center;letter-spacing:0.473604px;word-spacing:0px;text-anchor:middle;fill:#808080;stroke-width:15;stroke-linecap:round;stroke-linejoin:round;paint-order:fill markers stroke"
       aria-label="-" /><path
       id="path3"
       style="font-weight:bold;font-size:88.1944px;font-family:'Segoe UI';-inkscape-font-specification:'Segoe UI Bold';text-align:center;letter-spacing:0.473604px;word-spacing:0px;text-anchor:middle;fill:#808080;stroke-width:15;stroke-linecap:round;stroke-linejoin:round;paint-order:fill markers stroke"
       d="m 180.64009,108.97884 v 7.01921 h -7.01972 v 9.51725 h 7.01972 v 7.01921 h 9.51673 v -7.01921 h 7.01973 v -9.51725 h -7.01973 v -7.01921 z" /><g
       id="g6"
       transform="translate(-84.390481)"><path
         style="color:#000000;fill:#ffffff;stroke-linecap:round;stroke-linejoin:round;-inkscape-stroke:none;paint-order:markers stroke fill"
         d="m 148.4269,97.537109 c -9.70249,10e-7 -17.72852,8.026031 -17.72852,17.728521 0,9.70248 8.02603,17.72851 17.72852,17.72851 9.70249,0 17.72851,-8.02602 17.72851,-17.72851 0,-9.7025 -8.02602,-17.728521 -17.72851,-17.728521 z m 0,15.000001 c 1.59589,0 2.72851,1.13262 2.72851,2.72852 0,1.59589 -1.13262,2.72851 -2.72851,2.72851 -1.5959,0 -2.72852,-1.13262 -2.72852,-2.72851 0,-1.5959 1.13262,-2.72852 2.72852,-2.72852 z"
         id="path2" /><path
         style="color:#000000;fill:#808080;stroke-linecap:round;stroke-linejoin:round;-inkscape-stroke:none;paint-order:markers stroke fill"
         d="m 158.656,115.26626 a 10.228783,10.228783 0 0 1 -10.22878,10.22878 10.228783,10.228783 0 0 1 -10.22878,-10.22878 10.228783,10.228783 0 0 1 10.22878,-10.22878 10.228783,10.228783 0 0 1 10.22878,10.22878 z"
         id="path6" /></g><path
       id="path5"
       style="fill:#808080;stroke-width:16.1771;stroke-linecap:round;stroke-linejoin:round;paint-order:markers stroke fill"
       d="M 115.91878,28.78511 C 71.66292,28.872234 35.334443,61.6394 33.515549,103.11029 h 9.50433 c 2.123794,-30.02923 29.10777,-58.803938 64.803271,-58.813466 35.69551,0.0095 64.66546,26.301764 64.80328,58.813466 H 198.4817 C 196.66017,61.581531 160.2365,28.792043 115.91878,28.78511 Z"
       sodipodi:nodetypes="ccccccc" /></g></svg>
