<?xml version="1.0" encoding="UTF-8" standalone="no"?>
<!-- Created with Inkscape (http://www.inkscape.org/) -->

<svg
   width="60mm"
   height="60mm"
   viewBox="0 0 60 60"
   version="1.1"
   id="svg1"
   sodipodi:docname="target.svg"
   inkscape:version="1.3.2 (091e20e, 2023-11-25, custom)"
   inkscape:export-filename="target.png"
   inkscape:export-xdpi="96"
   inkscape:export-ydpi="96"
   xmlns:inkscape="http://www.inkscape.org/namespaces/inkscape"
   xmlns:sodipodi="http://sodipodi.sourceforge.net/DTD/sodipodi-0.dtd"
   xmlns="http://www.w3.org/2000/svg"
   xmlns:svg="http://www.w3.org/2000/svg">
  <sodipodi:namedview
     id="namedview1"
     pagecolor="#ffffff"
     bordercolor="#000000"
     borderopacity="0.25"
     inkscape:showpageshadow="2"
     inkscape:pageopacity="0.0"
     inkscape:pagecheckerboard="0"
     inkscape:deskcolor="#d1d1d1"
     inkscape:document-units="mm"
     inkscape:zoom="4"
     inkscape:cx="131.5"
     inkscape:cy="102.625"
     inkscape:window-width="1920"
     inkscape:window-height="1009"
     inkscape:window-x="1912"
     inkscape:window-y="-8"
     inkscape:window-maximized="1"
     inkscape:current-layer="layer1" />
  <defs
     id="defs1" />
  <g
     inkscape:label="Layer 1"
     inkscape:groupmode="layer"
     id="layer1">
    <circle
       style="opacity:0.93179;fill:none;stroke:#d40000;stroke-width:2.5;stroke-linecap:round;stroke-linejoin:round;paint-order:markers stroke fill"
       id="path1"
       cx="30"
       cy="30"
       r="20" />
    <circle
       style="opacity:0.93179;fill:none;stroke:#d40000;stroke-width:2.5;stroke-linecap:round;stroke-linejoin:round;paint-order:markers stroke fill"
       id="path2"
       cx="30"
       cy="30"
       r="12.5" />
    <circle
       style="opacity:0.93179;fill:#d40000;stroke:none;stroke-width:2.5;stroke-linecap:round;stroke-linejoin:round;paint-order:markers stroke fill"
       id="path3"
       cx="30"
       cy="30"
       r="5" />
    <g
       id="path4"
       style="opacity:0.93179;stroke:#ffffff;stroke-width:2;stroke-dasharray:none">
      <path
         style="color:#000000;fill:#d40000;stroke-linecap:round;stroke-linejoin:round;paint-order:markers stroke fill;stroke:#ffffff;stroke-width:2;stroke-dasharray:none"
         d="m 39.324219,28.5 a 1.5,1.5 0 0 0 -1.5,1.5 1.5,1.5 0 0 0 1.5,1.5 h 15 a 1.5,1.5 0 0 0 1.5,-1.5 1.5,1.5 0 0 0 -1.5,-1.5 z"
         id="path10" />
    </g>
    <g
       id="path5"
       style="opacity:0.93179;stroke:#ffffff;stroke-width:2;stroke-dasharray:none">
      <path
         style="color:#000000;fill:#d40000;stroke-linecap:round;stroke-linejoin:round;paint-order:markers stroke fill;stroke:#ffffff;stroke-width:2;stroke-dasharray:none"
         d="m 30,37.824219 a 1.5,1.5 0 0 0 -1.5,1.5 v 15 a 1.5,1.5 0 0 0 1.5,1.5 1.5,1.5 0 0 0 1.5,-1.5 v -15 a 1.5,1.5 0 0 0 -1.5,-1.5 z"
         id="path12" />
    </g>
    <g
       id="path6"
       style="opacity:0.93179;stroke:#ffffff;stroke-width:2;stroke-dasharray:none">
      <path
         style="color:#000000;fill:#d40000;stroke-linecap:round;stroke-linejoin:round;paint-order:markers stroke fill;stroke:#ffffff;stroke-width:2;stroke-dasharray:none"
         d="m 5.6757812,28.5 a 1.5,1.5 0 0 0 -1.5,1.5 1.5,1.5 0 0 0 1.5,1.5 H 20.675781 a 1.5,1.5 0 0 0 1.5,-1.5 1.5,1.5 0 0 0 -1.5,-1.5 z"
         id="path14" />
    </g>
    <g
       id="path7"
       style="opacity:0.93179;stroke:#ffffff;stroke-width:2;stroke-dasharray:none">
      <path
         style="color:#000000;fill:#d40000;stroke-linecap:round;stroke-linejoin:round;paint-order:markers stroke fill;stroke:#ffffff;stroke-width:2;stroke-dasharray:none"
         d="m 30,4.1757812 a 1.5,1.5 0 0 0 -1.5,1.5 V 20.675781 a 1.5,1.5 0 0 0 1.5,1.5 1.5,1.5 0 0 0 1.5,-1.5 V 5.6757812 a 1.5,1.5 0 0 0 -1.5,-1.5 z"
         id="path8" />
    </g>
  </g>
</svg>
